<!DOCTYPE svg PUBLIC "-//W3C//DTD SVG 20010904//EN" "http://www.w3.org/TR/2001/REC-SVG-20010904/DTD/svg10.dtd">
<svg version="1.0" xmlns="http://www.w3.org/2000/svg" width="800px" height="800px" viewBox="0 0 8000 8000" preserveAspectRatio="xMidYMid meet">
<g id="layer101" fill="#000000" stroke="none">
 <path d="M3981 7678 c-23 -36 -261 -447 -294 -508 -16 -30 -33 -59 -37 -65 -4 -5 -17 -27 -29 -47 -25 -45 -10 -19 -246 -428 -103 -179 -201 -350 -218 -380 -16 -30 -33 -59 -37 -65 -4 -5 -17 -27 -29 -47 -12 -21 -29 -53 -40 -70 -10 -18 -53 -94 -96 -168 -43 -74 -86 -148 -95 -165 -125 -215 -200 -348 -200 -351 0 -2 58 -4 129 -4 l130 0 14 28 c8 15 89 158 182 317 189 328 197 342 225 390 11 19 29 51 40 70 25 44 24 41 225 390 180 311 194 336 225 390 11 19 29 51 40 70 47 82 59 103 87 150 16 28 36 50 43 50 7 0 27 -22 43 -50 28 -47 40 -68 87 -150 11 -19 29 -51 40 -70 25 -44 24 -41 225 -390 180 -311 194 -336 225 -390 11 -19 29 -51 40 -70 28 -48 36 -62 225 -390 93 -159 174 -302 182 -317 l14 -28 130 0 c71 0 129 2 129 4 0 3 -86 154 -200 351 -30 53 -212 369 -232 405 -11 19 -24 40 -28 45 -4 6 -21 35 -37 65 -17 30 -115 201 -218 380 -236 409 -221 383 -246 428 -12 20 -25 42 -29 47 -4 6 -21 35 -37 65 -33 61 -271 472 -294 508 -7 12 -16 22 -19 22 -3 0 -12 -10 -19 -22z"/>
 <path d="M2917 6513 c-86 -83 -176 -169 -442 -424 -60 -58 -166 -159 -235 -225 -175 -167 -349 -334 -455 -437 l-90 -87 285 0 285 0 16 28 c27 45 442 732 488 807 24 39 51 84 61 100 9 17 51 86 92 155 87 145 101 170 93 170 -3 0 -47 -39 -98 -87z"/>
 <path d="M4990 6579 c16 -29 198 -333 495 -824 120 -198 225 -372 234 -387 l16 -28 285 0 285 0 -100 97 c-158 153 -303 292 -550 528 -126 121 -277 265 -335 320 -58 56 -149 143 -202 194 -53 51 -107 100 -118 108 -21 15 -22 15 -10 -8z"/>
 <path d="M3710 5800 c-157 -159 -287 -292 -290 -295 -7 -9 573 -585 590 -585 8 0 145 130 305 290 l289 290 -34 36 c-120 128 -554 554 -563 553 -7 0 -140 -130 -297 -289z"/>
 <path d="M4401 4995 c-104 -102 -194 -197 -201 -210 -13 -24 4 -42 629 -667 l642 -641 41 39 c24 21 118 115 211 208 l168 169 -633 634 c-348 349 -641 639 -651 644 -16 9 -47 -17 -206 -176z"/>
 <path d="M1328 4463 l-608 -608 595 -595 595 -595 458 -3 c251 -2 504 -1 561 3 l104 7 -588 588 c-514 514 -586 590 -577 606 6 11 128 136 271 279 l261 260 -67 67 c-37 38 -72 68 -77 68 -14 0 -686 -672 -686 -685 0 -5 214 -224 475 -485 261 -261 475 -481 475 -487 0 -10 -59 -13 -263 -13 l-262 0 -493 493 -492 492 503 503 502 502 165 0 165 0 462 -462 463 -463 618 -3 c343 -1 636 2 658 7 l39 9 -562 561 -563 561 -360 0 c-281 0 -360 -3 -360 -12 0 -7 42 -55 93 -105 l94 -93 227 0 228 0 349 -349 c192 -192 349 -354 349 -360 0 -8 -101 -11 -362 -11 l-363 0 -465 465 -465 465 -245 0 -245 0 -607 -607z"/>
 <path d="M4980 5057 c0 -6 261 -273 580 -592 319 -319 580 -584 580 -590 0 -6 -115 -125 -256 -265 -140 -140 -259 -263 -265 -272 -7 -13 2 -29 43 -73 88 -96 46 -121 429 261 187 186 339 343 339 349 0 5 -214 224 -475 485 -261 261 -475 481 -475 487 0 10 59 13 263 13 l262 0 488 -488 c268 -268 487 -492 487 -497 0 -6 -224 -234 -498 -508 l-497 -497 -165 0 -165 0 -465 465 -465 465 -648 0 c-512 0 -647 -3 -647 -13 0 -6 250 -262 555 -567 l555 -555 354 0 c195 0 358 4 362 8 5 5 -35 51 -87 103 l-96 94 -224 0 -224 0 -348 348 c-191 191 -347 353 -347 360 0 9 79 12 359 12 l360 0 462 -462 462 -463 248 0 249 0 600 600 c330 330 600 605 600 610 0 6 -267 277 -593 603 l-592 592 -553 0 c-436 0 -552 -3 -552 -13z"/>
 <path d="M2386 4076 c-108 -106 -196 -201 -196 -211 0 -18 1262 -1285 1280 -1285 13 0 410 393 410 406 0 14 -1273 1284 -1287 1284 -6 0 -100 -87 -207 -194z"/>
 <path d="M3710 2545 c-286 -286 -293 -295 -276 -314 55 -60 568 -571 574 -571 8 0 212 200 452 443 l144 147 -294 295 c-162 162 -297 295 -300 295 -3 0 -138 -133 -300 -295z"/>
 <path d="M942 2403 c-11 -16 -29 -45 -41 -65 -11 -21 -30 -54 -41 -73 -11 -19 -29 -51 -40 -70 -31 -54 -47 -82 -202 -350 -79 -138 -147 -257 -150 -267 -5 -11 0 -18 15 -22 30 -8 3236 -8 3276 0 l32 7 -108 108 -107 109 -1357 0 c-747 0 -1360 3 -1363 8 -4 6 51 104 310 555 19 33 34 65 34 73 0 11 -24 14 -119 14 -119 0 -120 0 -139 -27z"/>
 <path d="M6800 2416 c0 -8 15 -40 34 -73 18 -32 84 -146 146 -253 159 -275 170 -296 163 -304 -3 -3 -612 -6 -1352 -6 l-1346 0 -107 -109 -107 -109 31 -6 c39 -8 3226 -8 3255 0 15 4 20 11 15 22 -3 10 -71 129 -150 267 -155 268 -171 296 -202 350 -11 19 -29 51 -40 70 -11 19 -30 52 -41 73 -55 97 -46 92 -180 92 -95 0 -119 -3 -119 -14z"/>
 <path d="M3037 2333 l-77 -78 -832 -5 c-653 -4 -832 -8 -836 -17 -3 -10 167 -13 829 -13 l833 0 82 -80 82 -80 81 0 c44 0 81 3 81 8 0 4 -34 41 -75 82 -41 41 -75 79 -75 85 0 6 34 44 75 85 41 41 75 78 75 82 0 5 -37 8 -83 8 l-82 0 -78 -77z"/>
 <path d="M4740 2402 c0 -4 34 -41 75 -82 41 -41 75 -79 75 -85 0 -6 -34 -44 -75 -85 -41 -41 -75 -78 -75 -82 0 -5 37 -8 81 -8 l81 0 82 80 82 80 832 0 c482 0 832 4 832 9 0 5 -7 12 -16 15 -9 3 -383 6 -831 6 l-815 0 -82 80 -82 80 -82 0 c-45 0 -82 -3 -82 -8z"/>
 <path d="M3101 1193 c111 -118 901 -903 909 -903 5 0 220 210 476 468 l467 467 -269 3 -268 2 -203 -202 -203 -203 -203 203 -202 202 -270 0 -269 0 35 -37z"/>
 </g>

</svg>