<!DOCTYPE svg PUBLIC "-//W3C//DTD SVG 20010904//EN" "http://www.w3.org/TR/2001/REC-SVG-20010904/DTD/svg10.dtd">
<svg version="1.0" xmlns="http://www.w3.org/2000/svg" width="800px" height="800px" viewBox="0 0 8000 8000" preserveAspectRatio="xMidYMid meet">
<g id="layer101" fill="#000000" stroke="none">
 <path d="M4295 7835 c-27 -7 -66 -14 -86 -14 -20 -1 -53 -8 -72 -16 -20 -8 -47 -15 -61 -15 -13 0 -37 -7 -52 -15 -16 -8 -40 -15 -54 -15 -14 0 -34 -7 -44 -15 -11 -8 -29 -15 -40 -15 -12 0 -30 -7 -40 -15 -11 -8 -27 -15 -35 -15 -14 0 -119 -46 -161 -70 -8 -5 -35 -19 -60 -31 -103 -52 -270 -179 -359 -274 -64 -69 -71 -82 -47 -91 13 -5 41 9 134 68 51 32 167 86 222 103 30 10 73 23 95 30 164 53 268 68 470 70 154 2 258 11 284 26 33 18 122 49 145 49 13 0 49 23 87 56 72 62 161 124 180 124 15 0 79 39 79 49 0 3 -46 14 -102 24 -124 21 -405 22 -483 2z"/>
 <path d="M4930 7763 c-19 -2 -48 -10 -65 -17 -116 -53 -129 -63 -194 -141 -36 -44 -72 -91 -80 -105 -22 -39 -65 -235 -55 -252 3 -4 24 -8 47 -8 47 0 82 -15 57 -24 -8 -3 -35 -7 -60 -8 -42 -3 -45 -5 -52 -39 -4 -20 -11 -114 -17 -210 -9 -165 -19 -215 -53 -289 -7 -14 -13 -28 -15 -31 -1 -3 4 -17 12 -32 15 -29 40 -157 50 -252 3 -33 11 -95 17 -137 8 -58 7 -90 -1 -124 -15 -61 -7 -84 28 -84 21 0 36 10 55 34 14 19 26 40 26 46 0 24 54 102 97 140 81 71 122 85 250 85 76 0 116 -4 125 -12 6 -7 19 -13 27 -13 55 0 332 -182 400 -263 13 -16 51 -56 84 -90 67 -70 84 -100 120 -207 34 -101 37 -118 38 -198 1 -84 -44 -217 -84 -251 -8 -6 -76 -12 -165 -13 -190 -4 -204 -21 -23 -28 71 -3 132 -8 135 -11 3 -3 -18 -24 -47 -47 -28 -23 -58 -47 -65 -53 -22 -18 -210 -109 -226 -109 -8 0 -18 -4 -21 -10 -10 -16 -43 -12 -98 14 -64 30 -156 56 -194 56 -62 0 -195 -56 -207 -86 -10 -25 11 -34 80 -34 95 0 181 -45 215 -113 16 -31 19 -50 14 -91 -10 -78 -26 -123 -51 -146 l-22 -22 -7 23 c-10 31 -44 77 -63 84 -8 3 -23 3 -33 0 -15 -5 -17 -13 -12 -56 5 -45 4 -49 -15 -49 -12 0 -41 14 -65 30 -37 24 -55 30 -101 30 -31 0 -56 -4 -56 -8 0 -16 35 -40 75 -51 68 -20 145 -80 184 -145 30 -49 44 -61 84 -76 113 -43 364 -29 510 29 16 6 44 11 63 11 20 0 45 5 57 12 12 6 38 15 57 19 110 23 275 102 447 215 45 30 84 54 87 54 14 0 186 167 213 207 8 12 40 41 71 65 31 23 68 53 82 67 14 13 43 35 65 50 61 39 139 117 131 130 -4 6 -25 11 -47 11 -28 0 -39 4 -39 15 0 12 13 15 59 15 33 0 62 4 66 9 3 6 16 6 34 0 16 -6 57 -9 91 -7 l63 3 29 54 c16 29 36 60 44 68 7 8 14 18 14 23 0 5 20 30 45 56 25 26 44 52 42 58 -2 6 -27 16 -56 21 -54 11 -71 25 -71 63 0 12 -7 49 -17 82 -15 54 -19 60 -43 60 -43 0 -51 -30 -90 -308 -4 -34 -12 -68 -18 -75 -5 -7 -12 -29 -16 -49 -4 -21 -11 -38 -16 -38 -13 0 -13 60 0 113 6 23 16 121 23 217 15 195 6 440 -18 500 -7 19 -16 64 -19 100 -5 69 -50 255 -75 315 -40 94 -96 204 -135 262 -47 71 -182 233 -194 233 -4 0 -27 19 -52 43 -25 23 -65 58 -90 77 -25 19 -47 35 -50 37 -8 7 25 23 48 23 14 0 22 5 20 13 -3 7 -29 13 -73 15 -58 3 -76 8 -119 36 -106 70 -187 115 -376 208 -216 107 -325 158 -339 158 -5 0 -24 8 -43 17 -18 9 -42 21 -53 26 -11 6 -33 14 -50 18 -16 4 -55 17 -85 29 -83 34 -156 43 -250 33z m1601 -2516 c-13 -13 -26 -3 -16 12 3 6 11 8 17 5 6 -4 6 -10 -1 -17z"/>
 <path d="M4455 7458 c-16 -6 -36 -17 -43 -25 -10 -9 -47 -13 -137 -13 -68 0 -136 -5 -150 -10 -15 -6 -71 -15 -124 -20 -103 -10 -176 -23 -257 -46 -28 -8 -62 -14 -75 -14 -13 -1 -35 -7 -49 -15 -14 -8 -39 -14 -56 -15 -16 0 -39 -7 -50 -15 -10 -8 -29 -15 -41 -15 -12 0 -34 -6 -50 -14 -15 -8 -59 -29 -98 -47 -99 -47 -153 -84 -208 -143 -52 -56 -110 -146 -121 -189 -3 -15 -11 -27 -16 -27 -6 0 -10 -17 -10 -37 -1 -21 -7 -65 -15 -97 -8 -33 -19 -130 -26 -217 -10 -135 -9 -181 6 -330 24 -244 43 -275 110 -175 20 31 60 72 88 93 48 36 133 72 169 73 10 0 32 6 50 14 46 19 111 35 191 46 90 13 130 27 289 104 73 35 167 80 208 100 41 19 98 49 125 66 28 16 57 33 65 37 36 16 120 85 147 120 65 83 97 173 89 252 -17 160 -18 253 -1 348 10 54 24 113 31 132 18 42 18 91 2 90 -7 0 -26 -5 -43 -11z"/>
 <path d="M3075 7324 c-27 -13 -61 -24 -75 -24 -14 0 -38 -7 -53 -15 -16 -8 -46 -19 -67 -25 -55 -15 -56 -32 -2 -90 34 -37 54 -50 75 -50 15 0 40 -9 56 -21 20 -14 35 -18 54 -14 35 9 35 39 2 61 -33 21 -32 43 4 74 31 27 91 108 91 122 0 14 -33 7 -85 -18z"/>
 <path d="M2405 7245 c-60 -16 -114 -34 -135 -46 -8 -5 -22 -12 -30 -15 -31 -11 -287 -139 -322 -161 -21 -13 -43 -23 -51 -23 -7 0 -20 -9 -30 -20 -10 -12 -22 -18 -27 -15 -13 8 -3 25 16 25 8 0 14 4 14 8 0 16 144 116 215 151 78 38 121 57 148 65 10 3 17 12 14 19 -5 15 -74 11 -137 -8 -50 -15 -116 -32 -170 -44 -19 -4 -44 -12 -55 -18 -11 -6 -47 -24 -80 -39 -33 -16 -82 -43 -109 -61 -26 -18 -52 -33 -56 -33 -5 0 -15 -6 -22 -12 -7 -7 -31 -25 -53 -40 -182 -124 -393 -364 -493 -563 -46 -91 -75 -230 -69 -340 2 -49 6 -97 8 -105 3 -13 -17 -16 -125 -20 -91 -4 -131 -9 -134 -17 -4 -15 -7 -14 118 -13 52 0 109 -3 125 -8 28 -8 30 -13 37 -68 6 -55 15 -90 52 -189 23 -65 130 -269 180 -344 26 -38 85 -104 133 -148 48 -43 94 -85 103 -94 9 -8 24 -18 33 -22 9 -3 17 -11 17 -17 0 -5 7 -10 15 -10 7 0 18 -6 22 -13 4 -8 17 -19 28 -25 19 -11 19 -11 -2 -12 -13 0 -23 5 -23 10 0 6 -5 10 -12 10 -6 0 -18 7 -27 15 -53 48 -62 55 -71 55 -5 0 -10 5 -10 10 0 6 -8 14 -17 17 -10 4 -22 11 -28 15 -5 5 -20 16 -32 26 -56 44 -100 80 -146 120 -28 23 -60 42 -71 42 -16 0 -17 -3 -8 -12 7 -7 12 -22 12 -34 0 -12 7 -27 15 -34 8 -7 15 -18 15 -24 1 -6 9 -29 20 -51 11 -22 19 -44 20 -48 0 -5 27 -64 60 -133 33 -68 60 -127 60 -130 0 -3 12 -21 26 -40 44 -57 64 -42 64 46 0 27 4 51 8 54 4 2 20 -10 34 -28 23 -29 119 -86 144 -86 5 0 33 -12 63 -27 93 -48 280 -251 306 -332 14 -46 47 -92 64 -89 19 4 29 84 12 101 -6 6 -11 19 -11 29 0 15 9 18 65 18 61 0 81 -5 180 -51 52 -24 117 -89 130 -130 7 -22 40 -25 49 -4 3 8 -5 44 -18 79 -13 36 -21 67 -18 70 3 3 55 6 115 6 83 0 115 -4 137 -16 17 -11 35 -14 46 -10 17 7 13 13 -26 47 -26 22 -56 39 -70 39 -14 1 -36 7 -50 15 -14 8 -39 14 -56 15 -16 0 -39 7 -50 15 -10 8 -31 15 -45 15 -14 0 -34 7 -45 15 -10 8 -31 15 -45 15 -14 0 -34 7 -45 15 -10 8 -28 15 -40 15 -11 0 -29 7 -40 15 -10 8 -25 15 -33 15 -8 0 -32 9 -55 19 -23 11 -50 23 -61 27 -18 7 -17 8 8 12 16 2 44 -4 62 -12 18 -9 40 -16 48 -16 9 0 28 -6 44 -14 39 -19 93 -37 128 -43 17 -3 36 -10 43 -16 7 -5 29 -13 50 -18 66 -14 127 -31 145 -41 60 -30 191 -37 357 -18 67 7 94 16 167 53 30 15 36 55 10 68 -40 22 -109 5 -175 -41 -55 -39 -65 -43 -89 -34 -27 9 -28 13 -26 72 1 57 0 62 -20 62 -11 0 -36 -14 -54 -32 -24 -23 -36 -29 -44 -21 -18 18 -23 124 -7 163 8 19 12 42 11 51 -6 26 -106 59 -176 59 -34 0 -82 6 -107 14 -25 8 -79 24 -120 37 -41 12 -79 26 -85 30 -5 5 -15 9 -22 9 -20 0 -140 59 -240 118 -180 106 -376 306 -472 482 -66 122 -100 202 -108 258 -5 30 -3 32 25 32 23 0 31 -5 35 -22 16 -68 43 -117 84 -156 51 -48 79 -62 127 -62 40 0 105 -44 134 -92 11 -18 29 -75 40 -126 11 -52 23 -96 26 -99 15 -15 58 10 72 43 8 19 28 56 44 83 25 40 30 59 30 109 0 70 17 94 22 31 6 -82 53 -77 122 13 32 41 37 54 28 68 -6 10 -8 27 -6 37 14 51 -94 12 -111 -39 -9 -25 -25 -22 -25 3 0 51 72 112 147 124 23 4 63 20 88 37 69 46 50 58 -86 58 -60 0 -109 4 -109 9 0 16 43 21 174 21 l128 0 42 32 c22 18 43 35 46 38 18 20 99 80 109 80 6 0 11 11 11 24 0 17 -8 27 -28 34 -15 5 -45 25 -65 44 -32 31 -37 41 -37 81 0 60 13 92 52 128 40 36 85 39 116 6 23 -24 29 -52 13 -61 -5 -3 -14 1 -21 9 -18 21 -83 19 -103 -3 -24 -27 -22 -94 3 -117 23 -21 100 -34 146 -24 58 11 103 75 110 152 l5 52 -59 60 c-79 81 -95 117 -88 197 8 76 -9 112 -94 212 -64 74 -101 100 -131 91 -17 -6 -19 -11 -12 -33 4 -15 8 -55 8 -89 0 -54 -4 -66 -31 -100 -33 -40 -64 -55 -64 -29 0 8 -16 27 -36 43 -49 37 -150 44 -204 15 -42 -23 -46 -52 -8 -70 15 -7 41 -29 58 -50 25 -31 30 -45 30 -93 0 -93 -43 -151 -137 -183 -48 -16 -56 -17 -107 -2 -60 18 -183 21 -206 6 -13 -9 -12 -12 5 -25 11 -9 36 -20 56 -25 44 -12 79 -55 105 -127 17 -49 17 -54 1 -107 -24 -74 -64 -106 -134 -106 -44 0 -53 4 -68 26 l-17 26 39 -6 c53 -10 128 38 137 88 18 95 -29 166 -111 166 -120 0 -245 -133 -275 -294 -13 -66 -13 -67 -43 -64 l-30 3 -9 95 c-9 102 2 236 27 326 16 54 57 142 111 239 29 52 38 60 65 61 19 1 48 14 71 32 21 17 68 48 105 68 65 36 68 37 145 30 49 -4 81 -3 85 4 3 5 -5 25 -19 43 -14 19 -23 37 -19 40 3 4 32 7 63 7 34 0 64 6 76 15 32 24 126 19 184 -10 27 -14 52 -25 55 -25 11 0 4 38 -10 50 -8 7 -15 17 -15 22 0 6 -13 30 -30 55 -41 60 -39 70 16 79 97 14 197 -13 260 -71 39 -36 68 -30 69 15 0 8 7 13 15 11 129 -35 150 -48 183 -115 19 -38 34 -56 49 -58 14 -2 24 -12 28 -28 8 -34 42 -38 62 -8 9 13 19 44 23 68 4 25 14 57 21 72 20 38 18 45 -15 56 -16 6 -53 34 -83 62 -53 51 -148 120 -166 120 -5 0 -22 6 -38 14 -16 8 -67 17 -114 21 -47 3 -92 8 -100 9 -8 2 -37 -2 -65 -9z m-645 -325 c0 -5 -7 -10 -15 -10 -8 0 -15 -7 -15 -15 0 -8 -7 -15 -15 -15 -8 0 -15 -6 -15 -13 0 -7 -13 -24 -30 -37 -16 -14 -29 -31 -30 -37 0 -15 -20 -18 -20 -3 0 12 120 140 131 140 5 0 9 -4 9 -10z m-590 -990 c0 -5 -13 -10 -30 -10 -16 0 -30 5 -30 10 0 6 14 10 30 10 17 0 30 -4 30 -10z m471 -985 c-1 -15 -24 -12 -29 3 -3 9 2 13 12 10 10 -1 17 -7 17 -13z m39 -25 c8 -5 11 -12 8 -16 -10 -9 -38 3 -38 16 0 12 10 13 30 0z m58 -38 c3 -9 -2 -13 -14 -10 -9 1 -19 9 -22 16 -3 9 2 13 14 10 9 -1 19 -9 22 -16z m53 -35 c-11 -11 -41 -3 -41 11 0 5 12 7 26 4 17 -3 22 -8 15 -15z m43 -13 c9 -3 16 -10 16 -16 0 -14 -43 -5 -48 10 -4 13 7 15 32 6z m81 -45 c5 -5 -4 -9 -23 -9 -22 0 -32 5 -32 16 0 11 6 14 23 9 12 -4 26 -11 32 -16z m80 -35 c11 -8 27 -14 37 -14 10 0 18 -4 18 -10 0 -5 -13 -10 -30 -10 -20 0 -30 5 -30 15 0 10 -10 15 -29 15 -30 0 -46 12 -34 24 8 8 41 -2 68 -20z"/>
 <path d="M2740 6722 c-42 -6 -50 -20 -50 -87 0 -58 2 -64 37 -98 34 -35 75 -48 87 -28 3 5 -2 29 -11 54 -14 39 -15 51 -4 85 21 62 3 83 -59 74z"/>
 <path d="M1922 6630 l-24 -20 37 -42 c25 -29 34 -49 31 -63 -3 -11 -9 -30 -12 -42 -6 -21 -3 -23 34 -23 32 0 48 8 83 38 38 34 43 44 42 78 -2 57 -48 94 -118 94 -35 -1 -57 -7 -73 -20z"/>
 <path d="M4341 6569 c-20 -46 -125 -147 -211 -204 -121 -80 -287 -156 -375 -172 -16 -3 -35 -9 -40 -14 -6 -4 -29 -13 -50 -18 -22 -6 -64 -17 -92 -26 -29 -9 -76 -22 -105 -30 -29 -8 -62 -19 -73 -23 -11 -5 -47 -18 -80 -28 -175 -55 -291 -168 -283 -277 3 -38 6 -43 38 -53 21 -7 41 -8 52 -3 26 14 155 11 207 -5 58 -18 134 -37 188 -46 23 -4 48 -11 55 -17 7 -6 26 -13 41 -17 57 -14 217 -198 217 -251 0 -22 -21 -29 -26 -8 -9 35 -147 160 -185 168 -31 6 -52 14 -134 50 -86 37 -108 45 -128 45 -12 0 -42 8 -67 16 -38 14 -80 16 -275 11 -233 -5 -354 1 -412 22 -83 28 -100 34 -125 38 -15 3 -35 2 -44 -1 -16 -6 -15 -8 3 -25 46 -43 178 -82 313 -91 61 -5 115 -15 150 -30 30 -12 70 -27 88 -33 42 -14 41 -24 -4 -33 -51 -9 -42 -36 18 -49 58 -12 125 -74 234 -218 81 -109 96 -145 46 -117 -54 29 -197 80 -227 80 -11 0 -40 7 -65 16 -25 9 -61 14 -82 11 -56 -8 -117 -39 -118 -61 0 -14 4 -16 18 -10 9 4 45 10 80 12 55 3 68 0 102 -22 45 -30 106 -107 146 -186 31 -62 105 -170 146 -215 58 -63 -12 -38 -144 52 -88 60 -163 93 -214 93 -45 0 -131 -43 -139 -71 -13 -38 11 -45 55 -14 34 23 47 27 89 23 32 -3 57 -13 72 -27 l24 -22 -31 -28 c-36 -32 -50 -61 -30 -61 8 0 36 9 62 20 51 22 51 22 149 -20 22 -10 53 -22 70 -26 40 -13 45 -41 8 -50 -35 -9 -74 -35 -134 -90 -27 -25 -65 -48 -90 -55 -24 -7 -51 -18 -59 -24 -8 -7 -22 -15 -31 -18 -30 -10 -89 -94 -105 -148 -14 -47 -15 -66 -4 -149 11 -85 11 -99 -4 -127 -9 -19 -16 -56 -16 -91 0 -44 -4 -61 -15 -66 -8 -3 -15 -17 -15 -31 0 -20 5 -25 24 -25 14 0 28 5 31 10 7 12 55 14 55 3 0 -11 -76 -53 -95 -53 -9 0 -29 -7 -44 -15 -26 -13 -90 -24 -256 -44 -88 -10 -181 -59 -254 -133 -62 -63 -72 -82 -47 -91 21 -8 265 12 286 23 10 6 28 10 39 10 22 0 125 32 178 56 17 8 35 14 40 14 12 0 138 64 141 73 2 4 9 7 16 7 12 0 43 22 77 55 9 8 19 12 22 9 7 -7 -65 -84 -77 -84 -7 0 -67 -40 -76 -51 -3 -3 -17 -9 -32 -13 -16 -3 -28 -11 -28 -16 0 -6 -5 -10 -11 -10 -6 0 -25 -7 -42 -15 -77 -35 -141 -55 -175 -55 -21 0 -43 -5 -49 -11 -7 -7 -56 -14 -115 -16 -57 -2 -112 -8 -123 -13 -11 -5 -42 -11 -70 -12 -43 -3 -51 -7 -66 -33 -23 -40 -50 -176 -43 -214 5 -21 12 -31 25 -31 11 0 19 7 19 15 0 28 41 138 61 163 10 13 33 32 51 42 34 18 139 33 164 23 24 -9 15 -22 -21 -29 -39 -7 -104 -65 -130 -113 -15 -30 -15 -31 5 -31 11 0 40 18 62 40 l42 40 86 0 c56 0 95 -5 114 -15 41 -21 225 -21 291 1 93 31 179 81 212 124 6 8 15 12 19 7 4 -4 -2 -16 -13 -27 -12 -10 -27 -27 -35 -37 -19 -27 -94 -83 -110 -83 -7 0 -22 -6 -33 -14 -37 -25 -99 -38 -215 -45 -107 -6 -118 -8 -157 -36 -79 -57 -113 -159 -113 -343 0 -57 -7 -164 -16 -236 -15 -125 -18 -135 -64 -216 -27 -47 -50 -92 -52 -100 -9 -41 73 9 153 94 38 39 64 110 53 140 -5 12 19 101 32 124 1 2 11 -2 22 -9 11 -7 26 -10 34 -6 26 9 58 84 58 135 0 66 11 79 36 45 54 -74 57 -197 8 -292 -17 -33 -3 -48 30 -33 31 14 120 120 147 175 11 23 23 65 25 92 3 28 13 73 21 100 17 52 80 144 100 145 6 0 13 6 16 13 2 6 7 9 11 6 3 -3 -6 -21 -20 -40 -38 -49 -56 -95 -70 -174 -32 -183 -48 -211 -240 -420 -45 -49 -93 -103 -105 -119 -12 -16 -36 -43 -52 -60 -55 -59 -82 -100 -113 -170 l-31 -71 -52 -3 c-30 -2 -51 1 -51 7 0 16 39 112 66 163 14 27 22 52 19 58 -8 13 -41 13 -81 -2 -27 -10 -35 -8 -62 11 -38 27 -57 77 -42 115 17 47 12 70 -23 93 -17 13 -49 39 -69 58 -57 54 -90 46 -113 -30 -3 -11 -15 -31 -26 -44 -20 -25 -30 -22 -42 13 -3 9 -76 -15 -127 -41 -14 -7 -31 -13 -38 -13 -8 0 -12 -6 -10 -12 3 -8 29 -15 64 -18 32 -3 52 -9 44 -12 -36 -15 -85 -28 -105 -28 -11 0 -30 -7 -41 -15 -18 -15 -17 -17 38 -68 32 -30 96 -72 150 -100 152 -77 193 -107 193 -142 0 -25 4 -31 26 -33 18 -2 33 -15 48 -43 26 -46 65 -69 84 -50 6 6 16 29 22 49 10 36 12 37 63 40 28 2 52 0 52 -3 0 -27 -113 -402 -135 -450 -65 -139 -79 -213 -90 -455 -7 -159 0 -227 32 -340 33 -116 87 -275 95 -285 4 -5 8 -17 8 -26 0 -10 6 -30 14 -46 8 -15 24 -52 36 -81 21 -54 51 -92 72 -92 6 0 8 3 5 7 -4 3 -2 12 3 18 11 13 -1 96 -40 282 -12 54 -23 143 -26 198 -6 98 4 166 56 385 5 25 12 55 15 67 7 31 54 83 75 83 29 0 90 -125 102 -209 4 -33 31 -49 52 -32 19 16 22 151 5 236 -18 93 -22 181 -10 203 9 16 20 21 46 20 19 -1 38 2 43 6 4 4 10 44 13 89 5 79 8 86 69 187 35 58 77 122 93 142 16 21 39 57 51 80 l23 43 141 5 c78 3 145 10 150 15 4 6 16 36 25 67 l18 57 -27 51 c-24 47 -26 57 -22 148 4 86 8 104 37 157 18 33 39 67 47 76 8 8 14 19 14 23 0 9 38 62 68 96 30 33 35 55 22 80 -9 17 -7 29 15 65 25 43 81 95 103 95 20 0 71 60 98 118 26 55 28 65 31 242 2 102 7 203 11 225 l8 40 19 -48 c18 -43 23 -48 48 -44 38 5 35 -14 -10 -76 l-38 -52 0 -130 c0 -128 -1 -131 -36 -205 -35 -74 -70 -118 -123 -153 -21 -15 -24 -22 -16 -37 8 -15 6 -21 -11 -31 -29 -15 -75 -65 -106 -115 -80 -127 -101 -180 -110 -281 -4 -49 14 -126 38 -158 8 -11 26 -58 60 -160 17 -49 20 -75 15 -142 -5 -66 -3 -83 7 -83 8 0 21 8 29 18 32 35 86 192 95 276 6 55 18 86 33 86 5 0 29 14 54 30 43 30 46 30 70 15 23 -15 25 -23 24 -92 0 -64 3 -78 23 -99 12 -13 31 -24 41 -24 15 0 18 7 17 42 -2 53 15 116 39 144 9 12 38 36 65 53 26 18 55 43 63 57 20 29 30 30 44 4 8 -15 7 -41 -4 -100 -18 -92 -52 -151 -140 -243 -31 -32 -56 -63 -56 -68 0 -17 42 0 100 41 30 22 87 61 125 87 39 26 92 69 118 96 l48 47 19 -22 c16 -21 20 -21 44 -9 25 14 76 106 76 137 0 16 16 19 25 4 10 -16 52 -12 59 6 3 9 6 38 6 65 0 51 13 66 24 26 3 -12 6 -61 6 -108 0 -79 -2 -89 -29 -126 -27 -37 -28 -41 -15 -72 11 -26 14 -104 14 -356 0 -305 1 -323 19 -339 40 -36 71 1 71 82 0 28 38 151 52 167 4 5 8 15 8 23 0 8 6 28 14 45 8 18 24 59 37 92 36 93 68 137 107 149 16 6 21 1 26 -21 4 -15 22 -46 42 -68 29 -34 124 -186 163 -262 6 -12 11 -53 11 -92 0 -60 3 -72 20 -81 13 -7 26 -7 38 -1 13 7 23 6 30 -1 16 -16 15 -155 -3 -253 -8 -44 -15 -108 -15 -142 0 -52 3 -64 20 -73 34 -18 56 3 64 61 4 28 10 58 15 67 55 120 77 141 111 104 31 -33 47 -74 70 -182 12 -58 28 -132 36 -166 18 -77 18 -187 0 -272 -8 -37 -22 -110 -31 -162 -9 -52 -22 -116 -30 -142 -14 -53 -9 -98 12 -98 18 0 62 50 63 71 0 8 7 24 15 35 8 10 15 25 15 32 0 8 7 30 16 50 37 86 42 99 49 132 4 19 11 40 15 45 4 6 11 26 15 45 4 19 11 40 15 45 10 14 40 146 50 214 18 135 -12 484 -50 566 -34 75 -50 116 -50 127 0 8 -4 18 -9 23 -5 6 -18 44 -30 85 -12 41 -28 95 -36 120 -7 25 -21 79 -31 120 -45 201 -89 269 -358 564 -159 175 -193 237 -212 386 -8 69 -31 122 -80 185 -50 64 -61 90 -74 173 -8 46 -23 87 -49 132 -29 49 -42 88 -56 162 -20 106 -13 159 12 99 13 -32 137 -162 179 -188 35 -22 99 -51 148 -67 66 -21 239 -22 289 -1 22 9 68 15 116 15 77 0 80 -1 127 -40 56 -46 64 -48 64 -17 0 33 -83 113 -126 121 -54 11 -29 26 42 26 48 0 75 -6 102 -21 39 -23 82 -79 82 -107 0 -16 26 -97 36 -114 3 -4 12 -4 21 -1 30 12 1 223 -37 266 -10 12 -108 26 -247 37 -61 4 -120 13 -131 19 -12 6 -31 11 -44 11 -46 0 -156 45 -313 128 -14 7 -25 17 -25 23 0 5 -6 9 -12 9 -16 0 -60 45 -52 53 3 3 20 -5 38 -17 29 -19 86 -48 221 -111 17 -8 44 -17 60 -21 17 -4 35 -10 40 -14 6 -4 33 -11 60 -15 28 -4 55 -11 61 -16 6 -5 71 -13 145 -18 175 -13 184 -7 108 75 -82 86 -184 142 -264 144 -50 1 -239 36 -262 48 -12 7 -33 12 -48 12 -14 0 -28 6 -31 14 -3 8 -16 17 -30 20 -13 4 -24 11 -24 16 0 13 37 13 45 0 3 -5 19 -10 36 -10 22 0 29 5 29 19 0 10 -7 24 -15 31 -10 9 -15 31 -15 72 0 33 -6 69 -12 81 -9 15 -13 67 -13 157 0 133 0 136 -31 190 -29 51 -103 118 -131 119 -28 2 -109 44 -133 70 -41 42 -92 78 -123 85 -37 9 -32 38 8 49 17 5 44 15 60 23 98 44 105 45 152 29 80 -27 91 -19 41 32 l-32 34 28 24 c50 43 150 24 194 -37 16 -23 42 -23 42 -1 0 27 -48 82 -92 104 -74 38 -184 7 -305 -84 -83 -62 -153 -93 -153 -67 0 6 4 10 9 10 5 0 33 32 63 72 58 78 60 82 109 178 19 36 60 92 91 125 57 58 58 59 122 63 36 2 79 -1 96 -6 27 -10 30 -9 30 9 0 10 -5 19 -11 19 -7 0 -32 10 -56 22 -40 20 -48 21 -106 10 -147 -29 -171 -36 -274 -83 -62 -29 -83 -34 -83 -23 0 22 195 268 243 306 19 15 50 30 70 33 51 10 67 32 32 45 -14 5 -31 10 -36 10 -14 0 -11 20 4 20 6 1 30 9 52 20 22 11 47 19 56 20 8 0 20 5 27 12 6 6 60 15 119 19 110 8 166 19 238 47 52 21 96 53 88 65 -6 10 -64 5 -108 -11 -135 -47 -137 -47 -431 -44 -223 2 -290 0 -325 -12 -24 -7 -61 -17 -83 -21 -21 -3 -46 -10 -55 -14 -51 -26 -113 -52 -161 -67 -65 -21 -94 -38 -135 -79 -123 -124 -155 -222 -121 -368 8 -34 18 -75 21 -91 8 -38 117 -146 148 -146 37 0 49 -13 34 -34 -13 -17 -18 -16 -90 23 -95 51 -141 55 -116 9 8 -14 7 -24 -2 -35 -11 -13 -10 -17 5 -29 18 -13 18 -14 -8 -24 -33 -12 -56 -13 -75 -1 -12 8 -13 12 -1 25 11 14 10 19 -3 34 -12 13 -14 21 -6 29 15 15 3 33 -22 33 -11 0 -52 -19 -90 -41 -68 -40 -70 -41 -90 -24 -21 20 -11 35 24 35 31 0 95 48 127 96 51 74 84 251 58 314 -18 45 -13 73 10 61 25 -13 62 5 62 29 0 19 21 75 52 137 22 44 114 131 230 217 146 108 210 173 248 252 27 55 30 70 30 160 -1 54 -5 119 -11 144 -13 61 -28 162 -35 235 -7 63 -22 85 -58 85 -14 0 -26 -11 -35 -31z m-546 -1819 c-5 -8 -11 -8 -17 -2 -6 6 -7 16 -3 22 5 8 11 8 17 2 6 -6 7 -16 3 -22z m215 4 c0 -17 -22 -14 -28 4 -2 7 3 12 12 12 9 0 16 -7 16 -16z m-340 -24 c0 -5 -4 -10 -10 -10 -5 0 -10 -6 -10 -14 0 -18 -27 -28 -36 -14 -4 7 -2 14 5 16 7 2 17 10 24 18 14 16 27 18 27 4z m498 -28 c2 -7 -6 -12 -17 -12 -21 0 -27 11 -14 24 9 9 26 2 31 -12z m-790 -14 c3 -13 -3 -18 -22 -18 -20 0 -26 5 -26 21 0 15 5 20 22 17 13 -2 24 -11 26 -20z m517 -8 c13 0 27 5 30 10 4 7 20 3 43 -11 53 -32 58 -37 44 -51 -9 -9 -16 -7 -32 7 -29 26 -149 27 -174 2 -19 -19 -36 -14 -36 8 0 8 16 21 35 29 19 8 35 20 35 26 0 7 7 5 16 -4 8 -9 26 -16 39 -16z m555 10 c0 -14 -7 -20 -24 -20 -28 0 -54 25 -34 33 32 13 58 7 58 -13z m-860 -20 c0 -5 -12 -10 -26 -10 -14 0 -23 4 -19 10 3 6 15 10 26 10 10 0 19 -4 19 -10z m648 1 c9 -6 29 -12 45 -16 39 -8 34 -25 -8 -25 -24 0 -35 5 -35 15 0 9 -9 15 -25 15 -14 0 -25 5 -25 10 0 13 25 13 48 1z m-708 -26 c0 -10 -10 -15 -30 -15 -47 0 -35 27 13 29 9 1 17 -6 17 -14z m130 -29 c0 -23 -127 -146 -150 -146 -26 0 -25 8 5 63 23 41 55 71 95 89 26 12 50 9 50 -6z m538 -13 c30 -20 61 -53 62 -67 0 -5 7 -17 16 -27 21 -23 12 -51 -13 -42 -23 9 -143 128 -143 142 0 17 48 13 78 -6z m-741 -14 c17 -17 -56 -116 -110 -150 -31 -19 -59 -28 -93 -29 -88 -3 -94 -2 -94 21 0 30 65 115 103 135 56 29 174 43 194 23z m1054 -25 c50 -28 109 -100 109 -135 0 -36 -122 -27 -193 14 -57 34 -129 133 -106 148 25 18 136 2 190 -27z m-396 -39 c27 -17 58 -72 45 -80 -13 -8 -46 10 -54 30 -3 8 -17 20 -31 25 -14 5 -25 16 -25 24 0 8 -8 17 -17 20 -10 2 0 2 22 -1 22 -3 49 -11 60 -18z m-394 5 c18 0 9 -21 -13 -30 -13 -5 -35 -19 -49 -31 -15 -11 -35 -19 -45 -17 -15 2 -11 10 24 47 28 29 46 41 57 37 9 -3 21 -6 26 -6z m-688 -144 c-4 -6 -19 -29 -34 -51 -14 -22 -30 -50 -33 -62 -4 -13 -11 -23 -16 -23 -5 0 -11 -14 -15 -30 -8 -36 -25 -30 -24 8 1 67 80 189 114 176 8 -3 12 -11 8 -18z m656 3 c21 -20 21 -59 0 -67 -5 -2 -9 -9 -9 -16 0 -21 -49 -61 -61 -49 -7 7 0 20 21 43 30 32 39 64 20 75 -12 7 -13 35 -2 35 5 0 18 -9 31 -21z m433 -1 c-21 -21 -13 -63 18 -95 19 -19 27 -34 20 -38 -6 -4 -24 8 -41 26 -53 57 -59 102 -15 119 26 9 34 4 18 -12z m207 -62 c8 -6 51 -48 96 -92 57 -57 92 -103 116 -150 19 -38 37 -71 41 -74 4 -3 12 -17 17 -30 11 -25 32 -61 41 -70 12 -12 50 -70 50 -76 0 -4 8 -13 17 -20 10 -7 15 -16 10 -20 -6 -6 -51 37 -97 93 -12 15 -68 113 -76 133 -3 8 -10 22 -15 30 -5 8 -13 24 -18 35 -5 11 -74 83 -155 160 -183 176 -192 204 -27 81z m-783 47 c-3 -10 -31 -40 -63 -68 -91 -80 -202 -195 -208 -216 -4 -10 -10 -19 -15 -19 -4 0 -11 -12 -15 -27 -3 -15 -10 -30 -13 -33 -4 -3 -18 -25 -31 -49 -24 -46 -33 -58 -63 -92 -10 -10 -18 -22 -18 -25 0 -13 -79 -84 -84 -76 -3 5 3 15 12 24 9 8 24 25 32 38 8 12 20 28 25 34 6 6 35 52 64 101 29 50 56 97 61 105 5 8 19 34 31 57 12 22 51 71 88 107 64 63 193 167 199 161 2 -2 1 -12 -2 -22z m1268 -2 c23 -24 64 -141 49 -141 -12 0 -43 22 -43 31 0 6 -13 29 -29 52 -15 23 -33 52 -40 65 -11 20 -9 22 12 22 13 0 36 -13 51 -29z m-1484 -41 c0 -5 -22 -10 -50 -10 -27 0 -50 5 -50 10 0 6 23 10 50 10 28 0 50 -4 50 -10z m1210 0 c0 -5 -20 -10 -45 -10 -25 0 -45 5 -45 10 0 6 20 10 45 10 25 0 45 -4 45 -10z m70 -30 c12 -8 11 -10 -7 -10 -13 0 -23 5 -23 10 0 13 11 13 30 0z m-1010 -59 c0 -13 -34 -23 -54 -15 -9 3 -13 10 -10 15 7 12 64 12 64 0z m639 0 c10 -6 10 -10 1 -16 -15 -10 -62 3 -55 15 8 12 35 13 54 1z m-715 -30 c3 -5 -1 -11 -9 -15 -15 -6 -29 7 -18 18 9 9 21 8 27 -3z m208 3 c3 -3 4 -13 1 -24 -4 -14 -19 -19 -69 -25 -66 -7 -108 0 -99 16 4 5 19 9 34 9 15 0 36 7 47 15 19 14 75 20 86 9z m418 -14 c19 -7 41 -15 48 -16 7 -2 10 -9 6 -15 -11 -18 -136 -3 -151 17 -27 37 17 43 97 14z m135 9 c4 -6 5 -12 2 -15 -7 -7 -37 7 -37 17 0 13 27 11 35 -2z m-645 -121 c0 -21 -51 -78 -71 -78 -22 0 -26 37 -9 71 12 21 80 28 80 7z m574 -4 c17 -17 22 -69 7 -79 -14 -8 -81 54 -81 76 0 24 51 26 74 3z m-544 -94 c0 -5 -4 -10 -9 -10 -5 0 -13 -9 -16 -21 -5 -15 -14 -19 -33 -17 -38 4 -40 27 -3 34 17 4 34 11 37 15 7 12 24 11 24 -1z m465 1 c3 -5 19 -12 35 -16 33 -7 39 -19 14 -29 -28 -11 -39 -6 -56 24 -9 17 -13 30 -8 30 5 0 11 -4 15 -9z m-745 -119 c0 -4 -5 -13 -10 -18 -6 -6 -12 -27 -13 -46 -2 -31 -9 -41 -55 -72 -88 -59 -91 -35 -8 64 26 30 51 61 57 68 11 14 29 16 29 4z m1033 -6 c9 -7 17 -16 17 -20 0 -3 23 -35 51 -71 28 -35 48 -69 44 -74 -3 -6 -25 4 -50 24 -25 18 -53 36 -63 39 -13 5 -18 16 -18 44 0 20 -4 45 -8 55 -10 20 2 22 27 3z m-703 -131 c29 -31 21 -42 -19 -26 -37 16 -53 7 -130 -73 -36 -36 -63 -56 -70 -52 -14 9 -5 71 15 103 8 12 14 31 14 43 0 11 5 20 11 20 5 0 9 -10 7 -22 -2 -19 2 -24 25 -26 15 -2 34 4 43 13 9 9 22 14 29 11 7 -2 15 4 18 15 7 26 29 24 57 -6z m397 12 c11 -17 52 -42 81 -49 17 -5 25 0 36 19 13 25 14 24 35 -47 33 -109 23 -114 -60 -34 -72 71 -101 87 -132 72 -30 -15 -40 2 -16 28 25 27 44 30 56 11z m-877 -83 c0 -14 -4 -23 -10 -19 -5 3 -10 15 -10 26 0 10 5 19 10 19 6 0 10 -12 10 -26z m521 -93 c-14 -24 -24 7 -15 47 l7 37 8 -35 c4 -19 4 -41 0 -49z m279 29 c0 -27 -4 -50 -10 -50 -11 0 -14 83 -3 93 12 12 13 8 13 -43z m-830 -55 c0 -20 -7 -52 -16 -73 -8 -20 -14 -50 -14 -67 3 -53 0 -67 -12 -62 -8 2 -13 22 -13 48 0 42 -1 44 -27 41 -33 -3 -34 1 -10 26 41 43 72 87 72 104 0 10 5 18 10 18 6 0 10 -16 10 -35z m713 -65 c15 -16 27 -41 27 -55 0 -32 -14 -32 -28 -1 -7 17 -22 27 -46 31 -34 7 -35 8 -19 31 20 32 34 30 66 -6z m149 -270 c5 -166 8 -202 22 -215 9 -9 16 -23 16 -31 0 -8 4 -14 9 -14 5 0 11 -9 14 -20 3 -13 0 -20 -9 -20 -8 0 -14 6 -14 14 0 8 -7 16 -15 20 -8 3 -15 13 -15 22 0 10 -8 26 -17 37 -15 16 -18 36 -15 136 2 115 2 116 -25 146 -27 29 -57 80 -58 100 0 5 11 12 25 15 17 4 26 14 28 30 6 52 14 56 32 17 14 -31 18 -77 22 -237z m-922 101 c0 -11 -4 -23 -10 -26 -6 -4 -10 5 -10 19 0 14 5 26 10 26 6 0 10 -9 10 -19z m-30 -55 c0 -8 -4 -17 -9 -20 -10 -7 -23 19 -14 28 11 11 23 6 23 -8z m-30 -94 c0 -56 -14 -86 -23 -50 -14 49 -4 114 14 102 5 -3 9 -26 9 -52z m-30 -116 c0 -27 -15 -42 -25 -26 -8 13 3 50 16 50 5 0 9 -11 9 -24z m1136 -176 c19 0 94 -60 94 -74 0 -4 9 -19 19 -32 16 -20 17 -30 9 -58 -10 -31 -8 -37 28 -83 22 -27 48 -66 59 -86 11 -20 23 -37 27 -37 5 0 8 -10 8 -22 0 -20 -8 -15 -53 32 -107 111 -149 185 -117 205 22 14 6 42 -60 105 -38 37 -66 70 -63 74 4 4 13 0 19 -8 6 -9 20 -16 30 -16z m278 -463 c-9 -24 -24 -11 -24 21 0 24 2 25 15 11 9 -9 13 -23 9 -32z"/>
 <path d="M4466 5878 c-53 -65 -62 -74 -134 -132 -62 -49 -71 -60 -61 -73 15 -17 74 -12 120 12 15 8 45 15 66 15 21 0 60 7 87 15 27 8 63 15 80 15 57 0 63 13 30 61 -32 46 -122 119 -147 119 -8 0 -27 -15 -41 -32z"/>
 <path d="M1003 5269 c-7 -7 -7 -28 -1 -62 6 -29 7 -89 3 -134 -8 -92 -26 -127 -108 -202 -58 -53 -87 -115 -94 -198 -11 -130 26 -227 102 -270 49 -28 84 -29 133 -4 61 31 84 63 84 117 1 41 -3 51 -31 76 -35 31 -68 35 -111 13 -38 -20 -45 -5 -14 28 48 52 112 44 161 -20 23 -30 26 -43 25 -103 -1 -68 -1 -69 36 -98 82 -64 154 -84 254 -70 64 10 68 12 91 51 21 34 35 45 83 62 59 21 59 21 62 65 4 47 -28 133 -57 158 -30 25 -58 14 -80 -31 -42 -87 -140 -96 -199 -18 -42 56 -92 183 -92 235 0 9 -9 34 -20 54 -10 20 -32 66 -48 102 -16 36 -37 81 -46 102 -9 20 -16 39 -16 43 0 13 -53 76 -80 95 -18 13 -30 16 -37 9z"/>
 <path d="M6838 5229 c-10 -5 -18 -15 -18 -20 0 -26 -105 -119 -180 -159 -20 -11 -72 -56 -190 -165 -19 -18 -48 -48 -65 -68 -16 -19 -59 -56 -95 -83 -36 -26 -72 -54 -81 -63 -40 -40 -118 -100 -149 -114 -8 -4 -28 -16 -45 -27 -16 -10 -55 -31 -85 -46 -30 -15 -72 -38 -94 -52 -45 -28 -116 -48 -206 -57 -65 -7 -156 -31 -175 -46 -13 -10 -79 -27 -162 -42 -34 -7 -64 -15 -68 -19 -9 -8 42 -35 91 -47 168 -43 205 -61 277 -134 32 -32 64 -56 70 -54 19 6 20 46 2 94 -9 24 -15 50 -12 57 3 8 25 16 49 19 24 3 59 9 79 15 41 10 161 70 169 83 11 17 145 79 173 79 15 0 36 4 46 10 16 8 70 19 185 39 22 3 41 11 43 17 4 13 -70 76 -100 87 -10 4 -15 11 -12 17 8 13 72 40 95 40 10 0 49 16 86 35 53 28 96 64 193 164 125 128 126 129 201 150 41 12 81 24 88 26 20 7 15 53 -7 60 -32 10 -33 35 -3 73 30 39 57 116 47 132 -8 13 -125 12 -147 -1z"/>
 <path d="M6965 4908 c-11 -6 -24 -17 -28 -25 -4 -7 -17 -13 -27 -13 -11 0 -50 -12 -87 -27 -56 -22 -81 -40 -140 -102 -74 -78 -76 -84 -41 -130 10 -14 18 -40 18 -64 0 -35 -6 -46 -45 -83 -27 -27 -61 -47 -87 -55 -24 -6 -47 -15 -53 -19 -5 -4 -29 -11 -52 -15 -24 -4 -45 -10 -48 -15 -3 -4 -21 -11 -41 -15 -58 -10 -99 -35 -117 -69 -48 -96 -69 -268 -36 -301 14 -14 22 -14 94 6 45 12 93 19 114 16 20 -3 61 0 91 7 49 10 55 14 63 43 26 88 -24 143 -131 143 -33 0 -64 -4 -67 -10 -3 -5 -14 -10 -23 -9 -11 0 -12 3 -4 6 6 2 12 11 12 19 0 41 145 43 201 3 17 -12 40 -40 50 -63 38 -84 17 -158 -59 -206 -68 -42 -76 -65 -80 -230 -2 -80 -8 -149 -13 -155 -5 -5 -9 -15 -9 -23 0 -28 -51 -119 -100 -181 l-52 -63 12 -82 c10 -68 10 -90 -3 -139 -19 -71 -36 -98 -73 -116 -16 -7 -37 -17 -46 -22 -24 -12 -58 -11 -58 1 0 6 -11 10 -25 10 -16 0 -25 6 -25 15 0 19 20 19 47 0 20 -14 25 -13 58 6 97 58 100 242 5 323 -25 21 -40 25 -93 24 -73 0 -100 -14 -174 -90 -68 -69 -93 -136 -93 -250 l0 -83 56 -50 c31 -27 84 -76 117 -107 34 -32 70 -58 81 -58 12 0 38 18 60 40 21 22 44 40 50 40 6 0 25 7 41 16 17 9 53 18 81 21 48 5 53 3 93 -32 22 -20 41 -46 41 -56 0 -10 5 -29 12 -43 20 -46 -39 -141 -100 -160 -23 -8 -95 21 -87 34 3 6 27 10 51 10 40 0 51 5 85 40 36 36 52 80 29 80 -5 0 -16 13 -24 29 -9 16 -28 33 -44 39 -61 21 -203 -28 -230 -79 -15 -28 -7 -101 13 -133 8 -12 17 -45 21 -73 5 -44 4 -53 -9 -53 -15 0 -27 28 -27 68 0 59 -133 212 -184 212 -34 0 -40 -14 -21 -50 20 -39 33 -143 24 -195 -4 -23 -17 -58 -29 -79 l-23 -37 -28 35 c-34 40 -140 126 -184 148 -39 20 -132 31 -169 20 -16 -4 -34 -16 -40 -26 -9 -14 -6 -21 14 -37 14 -11 39 -31 57 -45 17 -15 45 -52 62 -84 65 -121 32 -277 -86 -407 l-29 -33 17 -67 c16 -65 18 -68 49 -71 25 -3 40 3 64 26 45 42 182 143 251 184 76 46 201 167 220 212 8 19 19 37 25 41 5 3 10 19 10 34 0 43 11 91 21 91 15 0 10 -104 -5 -126 -19 -27 -5 -49 25 -41 33 9 93 69 150 152 26 38 76 99 110 135 34 36 87 97 117 135 31 39 58 72 61 75 21 18 64 112 84 181 21 69 21 149 2 213 -16 52 -10 143 6 101 4 -11 8 -30 8 -42 1 -33 43 -92 70 -99 18 -5 29 -1 43 16 10 12 18 28 18 35 0 6 11 33 24 58 14 25 29 60 35 79 5 18 17 52 25 75 18 49 54 177 68 243 13 61 28 70 114 70 70 0 101 11 68 24 -9 3 -66 6 -128 6 -62 0 -115 3 -119 6 -3 3 14 25 37 48 23 24 53 63 66 87 22 40 25 55 24 164 -1 94 -5 131 -20 170 -19 47 -22 50 -59 53 -90 5 -151 37 -181 94 -16 31 -19 118 -4 118 6 0 10 -17 10 -37 1 -31 8 -46 41 -78 35 -36 45 -40 87 -39 100 1 148 58 161 190 12 116 0 161 -65 252 -30 42 -57 86 -60 98 -7 26 31 114 57 132 24 17 25 52 2 52 -10 0 -27 -6 -38 -12z m-37 -455 c2 -9 -8 -13 -32 -13 -20 0 -36 4 -36 9 0 22 60 25 68 4z m-87 -36 c-13 -13 -26 -3 -16 12 3 6 11 8 17 5 6 -4 6 -10 -1 -17z m28 -854 c0 -5 -29 -33 -65 -63 -94 -79 -117 -128 -139 -294 -10 -74 -26 -42 -27 55 -1 62 3 93 16 119 31 60 95 139 134 165 35 23 83 33 81 18z m-859 -508 c0 -44 -12 -60 -24 -30 -7 20 4 75 15 75 5 0 9 -20 9 -45z"/>
 <path d="M6519 4580 c-80 -54 -90 -65 -83 -84 9 -24 50 -38 90 -30 61 11 108 96 72 132 -18 18 -30 15 -79 -18z"/>
 <path d="M1576 4378 c-24 -48 -20 -80 17 -120 35 -40 90 -55 119 -34 15 11 16 17 3 59 -8 26 -21 57 -30 69 -8 13 -15 30 -15 40 0 14 -8 18 -39 18 -34 0 -42 -4 -55 -32z"/>
 <path d="M1070 4365 c-33 -18 -60 -25 -102 -25 -32 0 -58 -3 -58 -7 0 -10 63 -53 77 -53 19 0 63 -60 63 -85 0 -27 -38 -122 -84 -210 -30 -58 -31 -64 -30 -190 0 -102 4 -136 17 -160 9 -16 17 -36 17 -42 0 -26 124 -209 163 -241 8 -7 43 -20 77 -29 74 -18 126 -8 194 41 57 40 82 72 90 116 14 66 17 74 27 59 13 -21 -2 -100 -26 -139 -26 -40 -74 -84 -133 -119 -33 -20 -39 -28 -32 -42 19 -35 73 -56 165 -62 166 -11 237 -49 359 -191 44 -50 63 -134 43 -189 -24 -70 -114 -137 -183 -137 -42 0 -119 30 -155 60 -45 36 -68 114 -48 163 20 52 48 77 87 77 36 0 41 -22 6 -28 -26 -5 -84 -69 -84 -93 0 -11 7 -22 15 -25 8 -4 15 -12 15 -19 0 -19 41 -49 88 -64 55 -19 119 6 172 67 47 53 58 97 36 140 -9 17 -16 36 -16 42 0 25 -85 89 -150 112 -25 9 -88 18 -140 21 -118 6 -165 25 -245 101 -45 43 -66 56 -85 54 -23 -3 -25 -6 -23 -55 2 -51 28 -106 66 -145 40 -40 57 -92 57 -178 1 -128 29 -197 136 -331 61 -77 112 -119 189 -155 50 -24 119 -32 129 -15 4 5 24 12 45 16 84 14 148 61 187 138 13 26 28 47 32 47 4 0 28 -20 52 -46 63 -64 129 -104 172 -104 31 0 38 5 52 34 21 44 20 100 -1 132 -11 18 -17 50 -18 102 -2 87 -17 134 -64 192 -37 47 -68 57 -123 41 -31 -10 -43 -10 -54 0 -28 23 -51 84 -59 153 -10 96 -35 150 -76 165 -17 6 -40 11 -49 11 -9 0 -35 13 -57 29 -70 51 -114 182 -82 243 6 11 8 22 5 25 -3 3 -33 8 -68 12 -35 4 -69 10 -76 15 -9 5 -24 1 -43 -13 -15 -11 -30 -21 -32 -21 -3 0 -8 15 -11 33 -14 69 -68 107 -152 107 -53 0 -67 -4 -93 -26 -61 -51 -26 -134 55 -134 35 0 44 -16 22 -38 -15 -15 -68 -15 -89 1 -26 19 -59 89 -59 122 0 68 83 135 166 135 30 0 56 7 74 20 60 43 65 158 10 215 -33 34 -33 73 -1 59 32 -13 97 -16 133 -6 25 7 39 7 47 -1 17 -17 13 -34 -18 -69 -84 -97 -81 -195 11 -290 45 -46 49 -48 101 -48 65 0 67 4 67 97 0 46 -9 94 -29 157 -17 50 -35 123 -42 161 -12 76 -31 115 -54 115 -8 0 -42 28 -75 62 -55 57 -62 62 -97 58 -85 -8 -159 -3 -188 13 -16 9 -34 17 -38 17 -5 0 -29 16 -54 35 -54 41 -64 42 -123 10z"/>
 <path d="M6260 3933 c-30 -11 -60 -47 -60 -72 0 -23 -34 -162 -55 -228 l-7 -23 141 0 141 0 0 101 c0 87 -3 107 -22 138 -12 20 -28 42 -35 49 -11 11 -77 43 -85 41 -2 0 -10 -3 -18 -6z"/>
 <path d="M7225 3590 c7 -12 75 -10 75 2 0 4 -18 8 -41 8 -25 0 -38 -4 -34 -10z"/>
 <path d="M6132 3571 c-26 -16 -64 -96 -60 -124 3 -18 16 -27 96 -66 76 -37 101 -28 171 62 47 62 68 116 48 129 -16 10 -239 10 -255 -1z"/>
 <path d="M1760 3525 c-19 -23 7 -111 43 -141 26 -22 85 -33 99 -19 10 11 -22 109 -47 141 -28 37 -73 46 -95 19z"/>
 <path d="M4647 3354 c-5 -5 17 -49 33 -64 30 -29 74 -112 78 -149 5 -46 43 -125 93 -193 19 -28 29 -53 29 -78 0 -36 26 -150 51 -220 31 -88 130 -200 209 -236 63 -28 75 -33 100 -40 27 -8 170 -114 170 -126 0 -4 9 -17 20 -28 20 -20 20 -20 20 0 0 25 -33 78 -117 190 -59 78 -64 88 -61 130 3 41 6 46 36 55 36 10 41 29 17 76 -14 26 -14 30 0 35 8 4 25 3 38 0 12 -4 60 -13 107 -21 47 -8 108 -20 135 -27 54 -15 165 -67 177 -83 12 -16 9 -2 -13 61 -11 32 -24 73 -30 91 -5 18 -14 35 -19 38 -6 4 -10 14 -10 23 0 23 -58 139 -95 189 -16 23 -46 49 -65 59 -58 30 -60 32 -45 61 19 36 12 43 -41 43 -32 0 -68 11 -122 37 -71 34 -85 37 -172 39 -126 3 -281 22 -300 37 -8 7 -35 24 -60 37 -25 13 -56 34 -70 47 -23 22 -78 32 -93 17z"/>
 <path d="M4296 1951 c-13 -14 -16 -28 -11 -53 4 -23 0 -53 -14 -92 -11 -33 -18 -63 -15 -67 14 -23 55 -6 108 44 54 51 56 55 56 104 0 76 -5 83 -60 83 -33 0 -52 -5 -64 -19z"/>
 <path d="M1838 1944 c-10 -3 -18 -10 -18 -15 0 -14 47 -22 96 -16 47 5 62 12 51 24 -9 8 -106 13 -129 7z"/>
 <path d="M4030 1895 c-74 -50 -65 -43 -147 -113 -34 -30 -69 -70 -78 -90 -9 -21 -20 -45 -25 -54 -14 -25 -12 -76 3 -94 40 -50 56 -62 98 -67 124 -18 209 63 140 132 -29 29 -58 34 -91 17 -29 -14 -30 -14 -30 8 0 22 44 56 73 56 9 0 29 -11 45 -25 34 -29 77 -32 110 -9 49 34 111 209 92 258 -9 24 -14 26 -67 26 -52 -1 -65 -5 -123 -45z"/>
 <path d="M3600 1883 c-78 -169 -135 -246 -195 -261 -30 -8 -30 -9 -36 -93 -3 -46 -9 -103 -13 -125 -11 -61 6 -74 79 -61 71 13 126 0 255 -60 53 -24 124 -49 160 -55 67 -11 64 -11 230 33 109 28 222 97 295 177 l39 44 1 119 c1 107 -1 119 -17 125 -11 3 -32 -5 -56 -23 -49 -37 -151 -85 -209 -97 -39 -9 -48 -20 -57 -67 -11 -63 -87 -119 -162 -119 -44 0 -59 5 -94 33 -66 50 -80 111 -54 235 6 30 2 37 -38 77 -38 37 -46 52 -51 95 -7 60 -12 70 -37 70 -12 0 -25 -16 -40 -47z"/>
 <path d="M3020 1902 c0 -5 8 -16 19 -26 18 -17 23 -27 81 -171 61 -153 82 -217 98 -305 6 -35 12 -46 28 -48 43 -6 49 18 52 232 2 111 1 229 -3 264 l-7 62 -134 0 c-74 0 -134 -4 -134 -8z"/>
 <path d="M2962 1783 c-30 -26 -142 -223 -142 -249 0 -26 34 -54 65 -54 24 0 72 -23 130 -63 44 -30 121 -38 131 -14 6 17 -24 128 -60 222 -15 39 -33 86 -41 105 -7 19 -16 43 -19 53 -3 9 -14 17 -25 17 -10 0 -28 -8 -39 -17z"/>
 <path d="M4763 1788 c-23 -32 -65 -140 -104 -263 -17 -55 -33 -104 -35 -110 -9 -20 -30 -53 -43 -69 -18 -22 -6 -46 23 -46 18 0 35 12 58 43 31 42 108 107 126 107 22 0 149 44 162 56 19 19 3 62 -68 182 -63 106 -95 132 -119 100z"/>
 <path d="M4329 1334 c-33 -30 -74 -60 -90 -66 -31 -11 -34 -15 -21 -35 13 -21 49 -18 229 17 1 0 9 7 17 16 14 13 14 19 2 42 -7 15 -16 39 -20 55 -11 44 -47 36 -117 -29z"/>
 </g>

</svg>