<!DOCTYPE svg PUBLIC "-//W3C//DTD SVG 20010904//EN" "http://www.w3.org/TR/2001/REC-SVG-20010904/DTD/svg10.dtd">
<svg version="1.0" xmlns="http://www.w3.org/2000/svg" width="800px" height="800px" viewBox="0 0 8000 8000" preserveAspectRatio="xMidYMid meet">
<g id="layer101" fill="#000000" stroke="none">
 <path d="M4524 7574 c-38 -31 -71 -59 -74 -63 -3 -4 -27 -25 -55 -46 -27 -22 -63 -52 -80 -67 -16 -14 -40 -34 -53 -45 l-23 -18 -2 -365 -2 -365 -78 -5 c-42 -3 -77 -9 -77 -15 0 -5 35 -12 77 -15 l78 -5 3 -65 c3 -91 8 -106 39 -118 45 -18 346 -20 366 -3 13 11 17 31 17 97 0 95 4 92 -103 96 -83 4 -70 22 20 28 l78 5 3 490 c1 270 0 500 -3 513 -10 40 -54 29 -131 -34z"/>
 <path d="M4982 7608 c-9 -9 -12 -160 -12 -620 0 -595 0 -608 20 -618 12 -7 89 -9 207 -8 l188 3 5 475 5 475 -25 25 c-15 14 -45 41 -69 60 -24 19 -64 54 -90 77 -147 131 -199 161 -229 131z"/>
 <path d="M2545 7082 c-30 -7 -35 -20 -35 -110 0 -81 0 -83 28 -92 15 -6 35 -15 44 -20 10 -6 25 -10 34 -10 9 0 38 -9 63 -21 139 -64 143 -66 245 -161 28 -26 47 -50 43 -55 -5 -4 -36 -10 -70 -13 -93 -8 -75 -25 29 -28 l92 -3 24 -37 c13 -20 29 -46 35 -57 7 -11 29 -49 51 -85 46 -78 77 -148 69 -156 -3 -3 -61 -5 -128 -5 l-122 2 -64 59 c-74 69 -110 83 -233 84 -76 1 -92 -2 -144 -29 -62 -31 -99 -70 -139 -146 -49 -92 -51 -163 -9 -250 41 -81 54 -98 122 -145 l55 -39 117 2 c108 1 120 3 163 29 52 30 115 90 115 110 0 7 12 26 26 43 l26 31 175 -2 175 -3 28 -52 c55 -102 122 -187 230 -291 98 -95 216 -172 263 -172 12 0 31 -6 42 -14 30 -20 113 -30 131 -15 10 8 14 35 14 96 0 80 -2 86 -29 114 -16 16 -37 29 -45 29 -9 0 -33 9 -53 20 -21 11 -42 20 -48 20 -5 1 -45 24 -87 53 -53 36 -95 76 -137 129 -33 42 -57 79 -52 82 5 3 125 10 267 16 143 5 282 12 309 15 28 2 246 7 485 10 461 5 706 12 858 21 86 6 92 5 92 -13 0 -28 -318 -340 -356 -348 -16 -4 -55 -15 -87 -26 -31 -10 -66 -19 -76 -19 -10 0 -32 -7 -47 -15 -16 -8 -40 -15 -52 -15 -42 0 -91 -31 -124 -79 -17 -25 -77 -113 -133 -196 -56 -82 -120 -177 -143 -211 -49 -71 -140 -174 -153 -174 -5 0 -44 -16 -86 -36 -43 -20 -96 -44 -118 -54 -22 -9 -56 -25 -77 -34 -20 -9 -42 -16 -50 -16 -8 0 -18 -4 -23 -9 -11 -10 -77 -36 -135 -52 -19 -6 -48 -16 -65 -24 -32 -14 -73 -30 -170 -65 -33 -12 -73 -28 -90 -35 -16 -7 -57 -22 -90 -34 -33 -13 -72 -29 -87 -37 -14 -8 -32 -14 -40 -14 -7 -1 -31 -9 -53 -20 -22 -11 -45 -19 -52 -20 -6 0 -24 -6 -40 -14 -15 -8 -50 -24 -78 -36 -27 -12 -63 -28 -80 -35 -16 -7 -55 -23 -85 -35 -30 -12 -68 -27 -85 -35 -16 -7 -52 -23 -80 -35 -27 -11 -58 -26 -69 -32 -30 -16 -162 -51 -296 -78 -30 -6 -77 -17 -105 -25 -46 -12 -70 -18 -195 -46 -47 -11 -124 -29 -200 -48 -25 -6 -70 -16 -100 -22 -30 -6 -68 -15 -85 -21 -16 -6 -52 -14 -80 -18 -27 -4 -61 -13 -75 -19 -14 -6 -50 -15 -80 -20 -30 -6 -74 -15 -97 -20 -24 -6 -62 -16 -85 -22 -24 -5 -72 -16 -108 -24 -36 -8 -85 -19 -110 -25 -75 -20 -154 -39 -182 -45 -41 -8 -198 -175 -198 -210 0 -24 27 -29 68 -13 54 22 130 41 312 78 30 6 73 16 95 21 22 6 72 16 110 24 121 24 178 36 235 50 61 15 127 28 310 65 26 5 124 5 235 0 105 -5 330 -9 500 -10 171 0 452 -5 625 -10 173 -6 455 -14 625 -19 289 -8 313 -10 352 -30 41 -22 80 -60 203 -201 36 -41 104 -114 153 -163 48 -49 87 -95 87 -102 0 -8 -13 -34 -30 -58 -16 -24 -34 -55 -40 -68 -16 -38 -71 -132 -86 -150 -8 -8 -14 -19 -14 -23 0 -4 -29 -57 -65 -117 -36 -61 -65 -115 -65 -119 0 -5 21 -12 48 -15 99 -13 87 -33 -23 -34 l-60 -1 -70 -121 c-38 -67 -82 -142 -96 -168 -14 -25 -37 -64 -51 -86 -14 -23 -39 -64 -54 -93 -16 -29 -39 -69 -51 -90 -13 -20 -26 -44 -29 -52 -4 -8 -13 -22 -19 -30 -7 -8 -26 -39 -41 -68 -16 -30 -39 -70 -51 -90 -11 -20 -34 -61 -49 -89 -16 -29 -31 -53 -35 -53 -4 0 -12 -12 -18 -27 -6 -16 -15 -35 -20 -43 -63 -96 -162 -283 -155 -290 5 -5 61 -11 124 -12 94 -2 115 -6 115 -18 0 -12 -25 -16 -144 -20 l-143 -5 -17 -31 c-15 -29 -82 -146 -106 -185 -34 -56 -55 -101 -50 -109 9 -15 91 -12 144 4 25 8 75 20 111 26 133 22 216 39 243 49 16 6 42 11 58 11 32 0 166 31 239 55 25 8 62 15 82 15 21 0 54 7 75 16 104 44 154 70 214 110 l67 44 128 0 c130 0 175 10 144 30 -8 5 -60 10 -116 10 -55 0 -103 3 -107 6 -6 6 1 19 103 188 36 59 74 122 85 141 11 18 49 81 85 139 36 59 74 122 85 141 61 103 109 182 120 195 7 8 23 35 37 60 13 25 37 65 53 90 43 65 53 82 65 110 6 13 15 27 19 30 4 3 20 28 35 55 16 28 45 74 63 103 l35 52 63 0 c57 0 87 11 71 27 -3 3 -28 8 -56 11 -27 2 -50 6 -50 8 0 2 57 99 137 232 12 21 26 46 31 57 6 11 29 41 52 67 38 44 45 48 88 48 26 0 106 7 177 15 72 8 234 19 360 25 433 19 583 44 686 116 23 15 78 68 123 117 69 77 124 121 228 182 107 64 215 167 281 267 62 95 40 129 -45 68 -22 -16 -49 -30 -58 -30 -10 0 -37 -7 -61 -16 -64 -23 -260 -21 -365 5 -117 27 -257 97 -407 203 -16 11 -47 32 -70 48 -23 16 -85 61 -137 99 -52 39 -129 91 -170 116 -103 63 -108 66 -160 101 -25 16 -53 33 -63 37 -30 11 -8 27 38 27 45 0 68 16 44 31 -8 5 -53 9 -101 9 -79 0 -93 3 -155 35 -37 19 -71 35 -75 35 -5 0 -52 22 -107 49 -54 27 -113 52 -129 56 -20 4 -34 15 -41 33 -6 15 -16 34 -23 44 -12 16 -2 59 37 168 7 19 23 69 35 110 25 83 84 268 101 315 6 17 16 48 21 70 6 22 15 45 19 50 4 6 12 29 18 50 5 22 14 54 20 70 6 17 20 64 31 105 12 41 26 83 31 94 6 10 17 40 25 66 8 26 21 53 29 60 18 15 869 -3 925 -20 19 -5 82 -10 140 -11 58 0 113 -4 122 -7 19 -7 13 -15 -80 -117 -16 -16 -79 -90 -140 -162 l-113 -133 -172 -2 c-157 -3 -172 -5 -169 -20 2 -10 48 -62 104 -115 56 -54 122 -118 148 -143 124 -120 160 -150 181 -150 14 0 44 23 82 63 33 34 106 109 161 167 56 58 140 146 186 195 114 122 413 436 473 497 l49 50 -81 81 c-44 45 -98 102 -121 127 -23 25 -83 88 -134 140 -50 53 -129 136 -175 185 -47 50 -130 137 -185 195 -56 58 -129 136 -163 172 -58 63 -104 90 -121 73 -4 -4 -90 -86 -191 -183 -102 -98 -193 -185 -204 -195 -10 -10 -17 -26 -15 -35 3 -15 22 -17 172 -17 l168 -1 46 -51 c64 -69 274 -312 291 -335 7 -11 11 -22 8 -24 -3 -3 -52 -8 -109 -10 -56 -2 -173 -9 -258 -15 -397 -27 -2015 -33 -2480 -9 -118 7 -359 15 -534 18 l-320 7 -22 45 c-13 25 -35 70 -49 100 -47 96 -90 178 -98 187 -5 4 -48 10 -95 13 -102 6 -112 23 -18 30 35 3 67 8 71 11 13 14 -22 61 -118 156 -105 103 -175 158 -262 206 -122 68 -253 117 -290 109z m148 -883 c43 -22 87 -85 87 -122 0 -53 -59 -131 -108 -144 -35 -9 -87 20 -122 68 -35 49 -36 54 -12 106 37 83 100 120 155 92z m3092 -1619 c0 -12 -16 -16 -69 -18 -69 -3 -95 6 -81 28 4 7 33 10 78 8 56 -2 72 -6 72 -18z m1184 -978 c12 -22 -3 -42 -31 -42 -11 0 -32 -7 -49 -16 -39 -20 -72 -10 -64 19 11 37 43 57 91 57 32 0 46 -5 53 -18z"/>
 <path d="M3824 6975 c-21 -25 -62 -59 -91 -76 -28 -16 -53 -33 -55 -37 -2 -4 -37 -36 -78 -72 -41 -35 -78 -69 -82 -75 -4 -5 -8 -31 -8 -57 0 -54 -3 -56 -105 -60 -73 -4 -80 -22 -10 -26 28 -1 65 -4 83 -7 l32 -6 0 -63 c0 -98 -6 -96 220 -99 l195 -2 0 85 0 85 -78 5 c-42 3 -77 10 -77 15 0 6 35 12 77 15 l78 5 0 205 0 205 -31 3 c-26 3 -37 -4 -70 -43z"/>
 <path d="M5697 7013 c-9 -8 -9 -616 -1 -637 5 -14 33 -16 209 -16 164 0 205 3 214 14 8 10 12 57 11 143 0 70 1 139 2 152 2 19 -16 40 -88 105 -49 44 -112 99 -139 121 -27 22 -71 59 -97 83 -46 40 -92 54 -111 35z"/>
 <path d="M5051 5846 c-41 -6 -76 -16 -78 -22 -7 -20 28 -46 51 -39 12 4 48 13 81 22 70 17 67 15 59 37 -7 18 -10 18 -113 2z"/>
 <path d="M4313 5831 c-77 -13 -73 9 -73 -388 0 -225 4 -361 10 -374 15 -26 35 -24 108 12 70 35 93 62 225 260 l77 115 0 180 c0 127 -4 184 -12 192 -13 13 -259 15 -335 3z"/>
 <path d="M6023 5828 c-5 -7 -20 -47 -33 -88 -39 -128 -131 -413 -145 -450 -7 -19 -23 -69 -35 -110 -13 -41 -34 -106 -48 -145 -36 -102 -35 -126 8 -147 19 -9 85 -40 145 -69 61 -29 117 -59 125 -66 22 -17 59 -5 64 21 3 11 4 255 3 541 l-2 520 -36 3 c-21 2 -40 -2 -46 -10z"/>
 <path d="M6468 5826 c-35 -18 -45 -42 -25 -64 15 -16 37 -20 160 -25 169 -6 191 -3 206 30 22 48 -16 59 -212 66 -65 2 -116 -1 -129 -7z"/>
 <path d="M2985 5781 c-16 -10 -68 -57 -115 -105 l-84 -85 -1 -423 0 -423 47 -3 c26 -2 62 4 83 12 21 9 51 16 67 16 43 0 170 30 196 46 l22 14 0 475 c0 547 12 495 -112 495 -54 0 -81 -5 -103 -19z"/>
 <path d="M3527 5483 c-8 -8 -9 -649 -1 -680 3 -12 17 -24 30 -27 24 -6 44 0 140 45 23 10 48 19 56 19 8 0 23 7 34 15 10 8 27 15 37 15 31 0 125 50 128 68 2 9 3 81 1 160 l-4 143 -31 20 c-18 10 -47 22 -66 25 -40 8 -127 65 -197 130 -77 72 -107 88 -127 67z"/>
 <path d="M6435 5317 c-3 -6 -4 -170 -3 -362 l3 -350 77 -5 c75 -5 99 -13 84 -27 -4 -5 -42 -10 -84 -13 -69 -4 -77 -7 -80 -26 -2 -16 12 -34 50 -66 99 -82 273 -200 313 -212 44 -12 50 5 55 156 l5 143 77 5 c42 3 80 9 84 13 15 15 -20 27 -78 27 -94 0 -89 -11 -88 184 0 94 1 177 0 183 0 7 -62 72 -137 145 -75 73 -156 152 -179 176 -43 42 -89 56 -99 29z"/>
 <path d="M2373 5157 c-13 -5 -25 -19 -29 -30 -3 -10 -30 -69 -58 -131 -67 -141 -73 -156 -101 -241 -12 -38 -31 -87 -41 -108 -16 -34 -17 -39 -2 -53 17 -17 49 -13 173 21 28 8 65 17 83 21 23 4 36 14 43 31 11 29 12 463 1 479 -11 17 -45 22 -69 11z"/>
 <path d="M7185 5137 c-3 -7 -4 -129 -3 -272 l3 -260 80 -5 c62 -4 80 -8 80 -20 0 -12 -18 -16 -78 -20 l-78 -5 -4 -157 c-5 -185 -3 -188 97 -188 62 0 78 -13 78 -63 0 -13 9 -32 20 -42 21 -19 47 -18 155 5 55 11 89 43 75 70 -4 8 -11 35 -15 60 -7 45 -23 108 -51 205 -8 28 -16 64 -17 80 l-2 30 67 5 c117 9 101 40 -20 40 -60 0 -74 3 -78 18 -3 9 -12 31 -20 47 -7 17 -25 65 -39 107 -14 43 -29 86 -33 95 -5 10 -16 34 -25 53 -42 95 -103 216 -112 222 -17 13 -75 9 -80 -5z"/>
 <path d="M3240 4645 c-33 -12 -94 -24 -235 -46 -33 -5 -80 -16 -104 -24 -25 -8 -57 -15 -72 -15 -14 0 -42 -6 -60 -14 -19 -7 -60 -17 -91 -20 -32 -4 -60 -11 -63 -16 -3 -5 -31 -12 -63 -16 -31 -3 -65 -11 -76 -16 -10 -6 -42 -14 -70 -18 -57 -9 -168 -35 -236 -56 -25 -8 -60 -14 -78 -14 -19 0 -48 -6 -65 -14 -18 -8 -57 -19 -87 -25 -30 -5 -75 -15 -100 -21 -90 -23 -225 -53 -310 -70 -30 -6 -75 -17 -100 -25 -25 -7 -64 -16 -87 -20 -72 -11 -129 -38 -158 -75 -16 -19 -44 -52 -63 -72 -50 -53 -40 -69 40 -62 35 3 79 11 98 17 33 10 73 19 210 48 30 6 78 17 105 24 107 28 192 48 242 55 28 5 57 11 64 16 6 4 42 13 78 20 84 16 152 31 216 49 28 7 73 18 100 23 153 32 263 61 311 83 23 10 50 19 60 19 10 0 28 7 38 15 11 8 30 15 43 15 12 0 37 6 55 14 40 17 119 44 171 57 21 5 45 13 55 18 22 11 145 60 197 78 22 7 54 20 70 28 17 7 38 16 48 19 12 4 17 14 15 28 -4 28 -45 33 -98 13z"/>
 <path d="M1810 3744 c-19 -7 -47 -13 -61 -13 -15 -1 -43 -8 -62 -16 -20 -8 -48 -15 -61 -15 -14 0 -47 -7 -73 -16 -26 -9 -70 -20 -98 -24 -47 -8 -69 -13 -175 -40 -25 -6 -74 -18 -110 -25 -36 -7 -81 -18 -100 -23 -53 -15 -128 -33 -195 -47 -184 -38 -227 -56 -273 -114 -21 -25 -50 -61 -67 -79 -43 -48 -50 -63 -34 -73 19 -12 52 -11 86 2 27 11 86 26 188 49 28 6 70 18 95 25 25 8 63 17 85 21 22 4 54 13 72 21 18 7 47 13 65 13 18 1 44 7 58 15 14 8 37 14 51 15 14 0 55 8 90 19 97 28 149 41 199 51 25 4 68 15 95 23 83 24 137 38 190 47 28 5 68 16 90 24 22 8 50 15 61 16 12 0 38 7 57 15 20 8 51 15 69 15 18 0 45 6 59 13 14 8 44 17 67 21 24 3 72 16 108 28 54 18 64 25 62 41 -3 20 -11 21 -253 23 -188 1 -259 -2 -285 -12z"/>
 <path d="M2694 3731 c-17 -4 -36 -11 -43 -16 -7 -4 -40 -14 -74 -22 -58 -13 -110 -26 -217 -54 -25 -6 -74 -20 -109 -30 -35 -11 -71 -19 -79 -19 -8 0 -35 -6 -61 -14 -74 -23 -153 -45 -196 -56 -72 -17 -129 -31 -180 -46 -27 -8 -68 -18 -90 -24 -83 -19 -131 -32 -160 -42 -16 -5 -51 -14 -77 -18 -26 -5 -55 -13 -66 -19 -11 -6 -44 -15 -73 -20 -30 -6 -88 -20 -129 -31 -41 -12 -100 -28 -130 -35 -30 -7 -63 -16 -72 -20 -9 -3 -45 -13 -80 -21 -35 -8 -88 -21 -118 -29 -30 -8 -75 -19 -100 -25 -25 -7 -58 -16 -75 -22 -16 -5 -50 -16 -75 -23 -135 -41 -140 -44 -207 -130 -9 -11 -38 -46 -64 -77 -27 -31 -49 -59 -49 -61 0 -20 85 -13 155 12 17 5 64 20 105 31 41 12 89 26 105 32 17 5 53 14 80 20 28 5 55 13 60 18 6 5 28 11 50 15 22 4 60 13 85 20 25 8 70 22 100 31 30 9 71 20 90 24 19 5 49 13 65 18 29 10 126 38 235 68 30 9 75 22 100 29 25 7 63 17 85 21 22 3 45 11 52 16 6 5 33 13 60 17 26 5 62 14 78 20 28 10 111 33 230 66 99 27 201 57 230 67 17 5 53 14 80 20 28 5 55 14 60 18 6 5 31 12 55 16 25 4 57 13 72 20 15 8 37 14 49 14 20 0 105 24 184 52 17 5 48 14 70 18 22 4 54 13 70 19 27 9 73 22 230 66 28 8 66 17 85 21 40 8 79 33 80 52 0 6 -1 12 -2 12 -32 6 -452 7 -474 1z"/>
 <path d="M7522 3591 l-103 -99 1 -660 0 -661 -22 -25 c-23 -25 -26 -26 -223 -35 -110 -5 -212 -14 -227 -19 -14 -6 -55 -14 -90 -18 -34 -4 -77 -13 -95 -21 -18 -7 -45 -13 -60 -13 -15 0 -41 -7 -57 -15 -15 -8 -35 -15 -43 -15 -8 0 -31 -7 -51 -16 -21 -9 -57 -26 -82 -37 -82 -36 -284 -138 -345 -173 -33 -19 -73 -41 -90 -50 -57 -29 -231 -134 -298 -181 -26 -18 -72 -50 -102 -71 -29 -21 -69 -51 -87 -67 -18 -17 -55 -48 -83 -69 -127 -101 -368 -332 -520 -501 -123 -136 -129 -141 -147 -116 -17 25 -153 173 -248 273 -42 43 -85 79 -95 79 -36 2 -60 -3 -95 -21 -19 -10 -67 -21 -107 -25 -55 -5 -74 -11 -78 -24 -3 -11 58 -80 213 -236 161 -164 232 -243 276 -310 131 -200 118 -184 156 -184 31 0 38 5 64 47 110 177 144 218 341 421 166 171 525 491 550 491 2 0 56 39 119 87 63 49 146 108 186 133 39 25 83 53 98 62 15 10 34 21 42 25 8 4 29 16 46 28 17 12 94 52 170 89 76 37 151 74 166 82 14 8 31 14 38 14 7 0 26 7 43 15 151 69 276 87 637 91 168 2 313 4 322 4 53 1 64 167 61 955 -1 473 -15 811 -34 847 -5 10 -17 18 -27 18 -9 -1 -63 -45 -120 -99z"/>
 <path d="M4225 3570 c-35 -9 -121 -27 -220 -45 -38 -7 -90 -17 -115 -23 -52 -12 -132 -28 -240 -47 -41 -7 -88 -18 -103 -24 -16 -6 -43 -11 -62 -11 -19 0 -46 -5 -62 -11 -15 -6 -64 -17 -108 -24 -92 -16 -171 -32 -235 -47 -25 -6 -70 -14 -100 -18 -30 -4 -79 -15 -109 -24 -30 -9 -69 -16 -87 -16 -17 0 -51 -7 -74 -15 -23 -8 -55 -15 -71 -15 -16 0 -72 -11 -125 -25 -108 -27 -144 -53 -192 -135 -14 -25 -45 -73 -69 -107 -24 -34 -43 -64 -43 -66 0 -12 60 -17 96 -8 46 12 113 27 209 46 116 23 267 55 310 66 22 5 69 14 105 20 36 6 84 17 108 25 23 8 58 14 76 14 19 0 50 7 69 15 20 8 50 15 66 15 27 0 104 16 251 52 25 6 70 14 102 18 31 4 62 11 70 16 7 5 45 14 83 20 39 6 90 16 115 22 51 12 122 27 230 46 41 8 88 19 103 25 16 6 42 11 59 11 16 0 61 9 99 21 59 18 69 24 69 44 0 24 -108 168 -139 185 -22 11 -24 11 -66 0z"/>
 <path d="M4405 3243 c-11 -3 -25 -9 -30 -13 -6 -5 -35 -12 -65 -16 -30 -4 -66 -11 -80 -17 -14 -6 -47 -13 -75 -17 -46 -7 -117 -23 -235 -52 -25 -6 -70 -14 -100 -18 -30 -4 -66 -11 -80 -17 -14 -6 -51 -14 -83 -17 -32 -4 -74 -14 -92 -22 -19 -8 -50 -14 -69 -14 -19 0 -47 -5 -63 -11 -15 -6 -62 -17 -103 -24 -75 -14 -134 -26 -220 -47 -58 -13 -169 -36 -245 -50 -33 -6 -77 -17 -98 -24 -20 -8 -53 -14 -72 -14 -19 0 -54 -7 -78 -15 -24 -8 -72 -19 -108 -25 -35 -5 -84 -14 -109 -20 -116 -28 -140 -34 -205 -45 -122 -21 -123 -22 -235 -186 -19 -28 -52 -73 -72 -99 -57 -74 -48 -99 26 -74 21 8 53 14 70 14 17 0 43 7 58 14 15 8 53 18 85 22 32 4 72 13 90 20 18 8 50 14 72 14 22 0 52 5 68 11 27 10 113 28 238 51 33 5 83 16 110 23 28 7 75 18 105 24 104 19 165 33 216 47 28 8 61 14 74 14 21 0 144 26 245 51 22 6 68 14 102 19 35 5 71 13 80 19 10 5 45 12 78 16 33 4 77 14 99 21 21 8 53 14 71 14 18 0 50 6 71 14 22 7 62 16 89 20 28 4 72 14 99 22 27 8 62 14 77 14 16 0 48 6 71 14 24 8 65 17 91 21 42 6 51 11 75 48 35 56 48 76 67 112 8 17 21 39 28 50 7 11 23 36 35 55 12 19 22 42 22 51 0 26 -40 35 -95 22z"/>
 <path d="M2095 3216 c-27 -6 -54 -14 -60 -17 -5 -4 -29 -12 -53 -19 -27 -7 -46 -19 -50 -31 -4 -11 -7 -95 -7 -187 l0 -167 26 -3 c33 -4 109 75 109 112 0 14 25 62 55 106 30 44 55 85 55 89 0 5 7 14 15 21 21 17 30 77 15 95 -14 17 -33 17 -105 1z"/>
 <path d="M4115 2745 c-16 -8 -47 -14 -67 -15 -21 0 -55 -6 -75 -14 -21 -7 -65 -18 -98 -24 -81 -15 -162 -31 -210 -43 -22 -6 -67 -15 -100 -20 -33 -5 -80 -16 -104 -24 -25 -8 -59 -15 -77 -15 -18 0 -45 -5 -61 -11 -27 -10 -116 -29 -238 -51 -33 -5 -78 -16 -100 -24 -23 -8 -55 -14 -72 -14 -17 0 -49 -6 -71 -14 -23 -8 -72 -20 -109 -25 -37 -6 -88 -15 -113 -21 -114 -28 -139 -34 -205 -45 -38 -7 -83 -17 -98 -24 -16 -6 -43 -11 -61 -11 -19 0 -51 -6 -72 -14 -22 -7 -64 -16 -94 -20 -30 -4 -74 -14 -98 -22 -23 -8 -58 -14 -77 -14 -19 0 -45 -5 -58 -11 -13 -6 -50 -16 -82 -22 -64 -13 -51 0 -183 -175 -9 -12 -21 -28 -27 -35 -42 -52 -76 -110 -71 -122 6 -18 63 -19 121 -4 22 6 72 17 110 24 67 13 89 18 235 50 36 8 87 17 115 21 27 4 64 13 82 20 18 8 48 14 67 14 19 0 47 5 63 11 15 7 62 17 103 25 94 16 173 32 225 45 22 6 67 14 100 19 33 5 74 14 90 20 16 6 57 15 90 20 33 5 78 13 100 19 128 31 223 51 244 51 13 0 47 6 75 14 51 15 114 28 216 47 30 6 78 17 105 24 28 8 77 18 110 24 96 16 196 38 252 56 l52 16 73 125 c92 159 107 187 101 197 -7 12 -75 7 -108 -8z"/>
 <path d="M3820 2280 c-36 -4 -76 -12 -90 -17 -14 -6 -49 -13 -79 -17 -30 -4 -63 -12 -73 -17 -10 -5 -46 -14 -81 -19 -34 -5 -80 -13 -102 -19 -22 -5 -64 -15 -92 -20 -130 -27 -161 -33 -209 -47 -28 -8 -65 -14 -83 -14 -17 0 -47 -6 -65 -14 -18 -7 -57 -17 -87 -20 -30 -4 -76 -13 -104 -21 -51 -14 -106 -26 -230 -49 -38 -8 -90 -18 -115 -24 -92 -21 -186 -41 -225 -48 -22 -3 -62 -12 -90 -19 -55 -15 -125 -29 -230 -48 -38 -7 -75 -16 -81 -20 -7 -4 -40 -11 -75 -17 -35 -5 -82 -14 -104 -19 -22 -6 -84 -21 -139 -33 l-98 -22 -52 -68 c-28 -37 -73 -99 -101 -138 -27 -40 -58 -79 -67 -88 -10 -9 -18 -22 -18 -29 0 -19 201 -18 260 1 25 8 72 19 105 25 69 12 180 34 245 49 25 6 70 16 100 22 136 28 188 38 230 48 25 6 70 16 100 22 62 12 168 34 250 51 30 6 80 17 110 24 30 8 80 18 110 24 90 17 163 32 205 42 43 11 143 31 240 49 33 6 83 17 110 25 49 13 85 21 248 50 42 8 81 16 86 20 6 3 45 12 88 21 43 8 90 17 105 20 14 3 35 16 46 28 22 23 76 115 93 159 6 15 15 27 19 27 4 0 13 12 19 28 15 34 36 71 49 84 6 6 8 17 5 24 -6 15 -28 16 -133 4z"/>
 <path d="M3557 1799 c-31 -5 -78 -15 -103 -24 -24 -8 -59 -15 -77 -15 -17 0 -49 -6 -72 -14 -22 -8 -67 -19 -100 -24 -111 -20 -180 -33 -235 -47 -56 -14 -111 -25 -235 -50 -38 -8 -88 -18 -110 -24 -43 -11 -108 -24 -220 -45 -38 -8 -90 -18 -115 -24 -107 -25 -188 -42 -235 -48 -27 -4 -55 -11 -61 -15 -6 -5 -44 -13 -83 -18 -40 -5 -75 -12 -78 -14 -5 -6 32 -14 110 -22 31 -4 57 -10 57 -15 0 -27 -383 -25 -455 3 -38 14 -95 13 -95 -2 0 -4 11 -14 25 -21 14 -7 23 -15 21 -17 -2 -3 -37 -9 -78 -15 -40 -5 -78 -14 -84 -19 -6 -4 -37 -11 -70 -15 -32 -4 -74 -13 -93 -20 -18 -8 -49 -14 -68 -14 -75 0 -133 -53 -253 -230 -19 -28 -49 -71 -67 -95 -25 -32 -29 -45 -20 -53 13 -11 93 -2 117 13 13 8 58 17 220 46 36 6 88 17 115 24 66 17 146 34 220 46 33 6 74 15 90 21 17 6 55 14 85 18 30 4 82 14 115 24 32 9 72 16 87 16 16 0 45 7 65 15 19 8 51 15 70 15 18 0 49 6 67 14 18 7 62 17 97 21 35 4 81 14 103 21 21 8 54 14 73 14 19 0 44 5 55 11 11 6 55 17 97 24 72 12 96 17 216 46 28 6 82 17 120 24 130 24 190 37 235 51 32 10 98 14 231 14 190 0 279 7 279 21 0 4 -30 10 -67 14 -103 10 -119 20 -54 34 77 16 103 36 142 104 19 33 49 86 66 116 66 114 65 111 52 127 -13 15 -17 15 -102 3z"/>
 <path d="M3305 1331 c-3 -5 -31 -12 -63 -16 -31 -3 -75 -13 -97 -21 -23 -8 -57 -14 -77 -14 -21 0 -57 -6 -80 -14 -24 -8 -70 -19 -103 -25 -33 -5 -78 -14 -100 -20 -38 -9 -63 -14 -230 -47 -141 -27 -181 -35 -220 -45 -22 -6 -69 -15 -105 -20 -36 -5 -82 -16 -103 -24 -20 -8 -55 -15 -77 -15 -22 0 -57 -6 -77 -14 -21 -7 -65 -18 -98 -24 -119 -21 -181 -34 -235 -47 -58 -14 -134 -29 -235 -46 -33 -6 -73 -15 -90 -21 -16 -6 -61 -14 -99 -19 -38 -6 -76 -14 -86 -19 -9 -5 -41 -12 -71 -15 -30 -4 -71 -13 -92 -21 -20 -8 -55 -14 -78 -14 -22 0 -54 -6 -72 -13 -18 -8 -50 -17 -72 -21 -65 -13 -108 -41 -153 -103 -198 -267 -195 -259 -76 -248 42 4 90 11 107 17 34 11 131 30 237 48 36 6 85 17 110 25 25 7 70 16 100 20 30 3 74 13 98 21 23 8 57 14 74 14 17 0 54 6 82 14 51 15 118 28 231 47 33 6 81 17 106 25 26 7 60 14 76 14 16 0 52 7 79 15 27 8 79 19 114 25 36 5 83 14 105 19 42 10 101 23 220 46 39 7 86 18 105 24 19 6 51 11 72 11 20 0 49 5 65 11 15 7 62 18 103 25 93 16 173 32 225 45 22 5 72 14 110 20 39 6 89 17 113 25 23 8 56 14 73 14 40 0 107 35 120 63 5 12 18 37 29 55 11 17 29 47 40 65 11 17 24 41 29 53 5 11 21 38 35 59 40 58 35 75 -18 75 -25 0 -47 -4 -51 -9z"/>
 </g>

</svg>