<!DOCTYPE svg PUBLIC "-//W3C//DTD SVG 20010904//EN" "http://www.w3.org/TR/2001/REC-SVG-20010904/DTD/svg10.dtd">
<svg version="1.0" xmlns="http://www.w3.org/2000/svg" width="800px" height="800px" viewBox="0 0 8000 8000" preserveAspectRatio="xMidYMid meet">
<g id="layer101" fill="#000000" stroke="none">
 <path d="M4122 7808 c4 -9 26 -42 50 -74 74 -101 100 -154 126 -255 l19 -74 68 -12 c126 -23 225 -85 267 -166 26 -52 18 -120 -23 -197 -49 -88 -119 -151 -203 -181 -41 -15 -76 -58 -76 -95 0 -11 -3 -24 -7 -28 -4 -3 -13 -23 -21 -44 -19 -47 -30 -482 -13 -482 6 0 11 5 11 10 0 15 16 34 86 106 50 51 82 72 175 117 63 30 146 62 184 71 90 22 169 61 216 107 45 44 60 72 88 162 24 79 50 139 65 149 6 4 7 8 2 8 -12 0 -99 -63 -169 -123 -32 -27 -60 -47 -63 -44 -14 13 75 182 122 232 50 53 74 164 56 251 -14 62 -54 154 -67 154 -19 0 -115 -38 -149 -60 -33 -20 -80 -68 -88 -89 -1 -5 -9 -11 -16 -13 -10 -2 -14 21 -16 92 -5 119 -31 182 -108 257 -74 72 -141 102 -293 134 -69 14 -152 48 -197 81 -24 16 -30 18 -26 6z"/>
 <path d="M3840 7792 c0 -18 -189 -82 -245 -82 -13 0 -27 -4 -30 -10 -3 -5 -13 -10 -21 -10 -30 0 -124 -52 -172 -95 -32 -29 -61 -69 -81 -110 -28 -58 -32 -76 -33 -160 -1 -52 -4 -95 -7 -95 -3 0 -25 22 -49 49 -41 49 -130 102 -195 117 -25 6 -29 2 -53 -49 -63 -139 -47 -281 44 -377 25 -27 117 -208 109 -216 -2 -3 -40 26 -83 63 -44 37 -92 74 -107 82 -15 8 -27 18 -27 23 0 4 -7 8 -15 8 -13 0 -12 -4 4 -21 10 -11 33 -65 51 -119 17 -54 44 -116 60 -139 40 -55 113 -106 180 -126 142 -42 190 -59 258 -93 95 -48 201 -129 221 -169 9 -18 21 -34 26 -37 16 -6 20 340 5 396 -28 104 -35 126 -57 171 -13 26 -29 47 -36 47 -21 0 -117 54 -153 86 -47 44 -98 131 -113 196 -12 50 -12 57 8 97 48 93 136 148 280 174 l65 12 11 60 c12 61 53 167 67 173 4 2 8 8 8 14 0 13 55 92 86 123 18 18 21 25 9 25 -8 0 -15 -3 -15 -8z"/>
 <path d="M3953 7643 c-90 -110 -127 -190 -158 -335 -5 -27 -7 -28 -74 -28 -93 0 -160 -22 -239 -79 -23 -17 -42 -36 -42 -42 0 -24 116 -131 173 -159 33 -17 66 -30 73 -30 33 0 96 -123 114 -221 14 -76 20 -1952 7 -1966 -5 -4 -377 -10 -827 -13 l-818 -5 -86 -83 c-47 -45 -86 -86 -86 -90 0 -4 41 -48 90 -97 l90 -90 818 -5 817 -5 9 -177 c4 -98 4 -243 0 -325 l-9 -148 -575 -3 -576 -2 -89 -90 -90 -90 93 -93 92 -92 563 -1 c310 0 569 -4 575 -8 16 -9 16 -419 1 -501 -10 -56 -55 -164 -81 -195 -7 -9 -35 -24 -63 -34 -27 -11 -69 -32 -91 -47 -41 -28 -124 -115 -124 -130 0 -15 66 -63 120 -87 39 -17 82 -26 145 -31 l90 -6 6 -45 c7 -52 32 -127 59 -175 28 -51 72 -119 79 -125 4 -3 18 -20 30 -39 l24 -33 28 29 c28 30 104 147 126 193 18 38 42 116 49 159 6 39 6 39 53 39 97 0 169 20 243 67 75 47 73 58 -15 143 -49 46 -143 102 -173 102 -31 0 -85 102 -109 204 -20 88 -22 500 -2 513 6 4 226 6 487 5 261 -2 518 0 570 4 l94 7 87 87 87 87 -92 92 -91 91 -562 0 c-309 0 -568 3 -577 6 -14 5 -16 43 -16 324 0 178 4 321 9 324 5 3 374 6 820 7 l811 1 94 93 93 93 -91 91 -91 91 -800 0 c-440 0 -810 3 -822 6 l-23 6 0 959 c0 822 2 967 15 1023 30 128 69 189 136 213 66 24 158 90 193 141 l30 42 -22 23 c-23 24 -106 69 -161 86 -19 6 -64 11 -100 11 l-67 0 -12 59 c-20 95 -84 229 -137 287 -5 6 -19 23 -30 37 -11 15 -23 27 -26 27 -4 0 -25 -21 -46 -47z m-53 -5111 c0 -14 -33 -40 -73 -57 -45 -19 -137 -20 -137 -2 0 14 47 45 88 57 36 11 122 12 122 2z m329 -25 c67 -34 64 -47 -11 -47 -64 0 -136 29 -146 58 -7 22 107 15 157 -11z m-224 -113 c26 -64 12 -194 -22 -194 -32 0 -43 179 -13 215 17 20 18 20 35 -21z"/>
 <path d="M2435 7184 c-79 -24 -115 -44 -154 -84 -56 -57 -91 -150 -91 -238 0 -84 67 -227 139 -297 22 -21 38 -43 35 -47 -3 -4 -25 -8 -50 -8 -37 0 -50 -6 -81 -35 -23 -22 -47 -35 -63 -35 -15 0 -44 -9 -66 -19 -43 -22 -120 -89 -111 -98 3 -3 27 0 54 5 160 35 320 42 482 21 121 -16 309 -58 355 -80 22 -11 46 -19 53 -19 7 0 13 -3 13 -8 0 -4 14 -13 31 -21 17 -7 56 -35 88 -61 177 -147 233 -338 171 -579 -11 -45 -50 -142 -59 -151 -4 -3 -15 -21 -26 -40 -43 -77 -137 -186 -251 -290 -68 -62 -84 -75 -172 -142 l-63 -48 333 0 c373 1 340 -6 410 81 126 156 220 424 220 624 0 157 -47 297 -143 421 -77 101 -231 214 -364 269 -38 16 -74 32 -79 37 -6 4 -18 8 -28 8 -10 0 -26 4 -36 9 -9 5 -44 17 -77 26 -66 18 -107 32 -145 47 -14 6 -34 14 -45 18 -169 65 -320 175 -371 271 -23 44 -24 159 -1 210 9 20 34 52 56 72 46 41 68 49 51 18 -26 -50 -4 -166 39 -198 20 -16 96 -17 124 -2 92 50 127 182 71 265 -33 49 -47 59 -112 90 -60 28 -69 28 -137 8z"/>
 <path d="M5430 7168 c-66 -31 -116 -88 -123 -137 -12 -96 23 -183 87 -212 17 -7 51 -13 75 -13 35 1 49 7 67 28 34 39 49 101 34 149 -6 21 -9 41 -6 44 3 3 22 -7 42 -22 75 -58 106 -189 63 -279 -38 -82 -153 -180 -279 -238 -133 -62 -164 -73 -290 -108 -50 -14 -47 -13 -178 -65 -266 -107 -441 -279 -517 -510 -33 -98 -30 -302 4 -405 5 -14 14 -45 22 -70 7 -25 16 -49 21 -54 4 -6 8 -16 8 -24 0 -12 43 -103 81 -172 22 -40 60 -92 98 -132 l34 -38 335 0 335 0 -41 30 c-127 92 -329 282 -393 371 -82 112 -127 212 -154 342 -19 90 -19 119 0 202 37 160 112 260 267 357 57 36 86 50 133 66 160 54 504 95 626 74 38 -7 84 -12 102 -12 17 0 57 -7 87 -15 30 -8 56 -13 57 -11 2 2 -12 19 -31 38 -42 42 -128 88 -166 88 -18 0 -35 9 -47 23 -25 33 -55 47 -97 47 -20 0 -36 4 -36 8 0 5 19 29 43 54 23 25 59 79 80 121 35 71 37 80 37 171 0 80 -4 104 -25 150 -44 96 -136 157 -260 170 -39 4 -60 1 -95 -16z"/>
 <path d="M2960 5513 c-79 -77 -204 -155 -370 -231 -110 -50 -262 -89 -378 -95 -67 -4 -74 -3 -91 19 -11 14 -44 35 -75 49 -109 48 -221 23 -280 -64 -24 -36 -28 -52 -28 -107 0 -55 5 -71 27 -100 15 -20 48 -45 74 -56 75 -32 243 -17 406 37 54 17 62 20 145 57 30 14 70 31 88 39 17 8 32 17 32 21 0 5 5 8 10 8 16 0 117 68 195 131 76 61 154 141 200 204 17 22 32 42 35 45 13 11 52 71 49 74 -2 2 -20 -12 -39 -31z"/>
 <path d="M5040 5510 c0 -40 176 -230 310 -333 106 -82 334 -192 470 -228 157 -41 263 -49 329 -27 115 39 160 137 110 243 -35 74 -103 115 -190 115 -58 0 -144 -36 -176 -73 -20 -24 -25 -25 -105 -20 -45 3 -91 10 -100 14 -9 5 -28 9 -42 9 -14 0 -35 4 -48 9 -13 5 -48 16 -78 26 -93 29 -290 122 -290 137 0 5 -5 8 -11 8 -11 0 -57 32 -131 93 -27 21 -48 34 -48 27z"/>
 <path d="M780 4861 c-117 -31 -196 -78 -293 -176 -40 -40 -107 -138 -107 -155 0 -6 -4 -10 -10 -10 -5 0 -10 -8 -10 -18 0 -10 -4 -22 -8 -27 -22 -26 -62 -228 -62 -315 0 -159 67 -341 177 -481 87 -111 247 -234 368 -283 39 -16 79 -32 90 -36 11 -5 31 -11 45 -14 14 -2 59 -13 100 -22 61 -15 122 -18 325 -18 291 -1 389 13 615 91 90 30 240 100 240 111 0 8 28 40 128 147 32 33 88 95 126 138 l68 77 83 0 83 0 50 53 c58 60 172 211 172 227 0 5 4 10 9 10 5 0 11 8 14 18 3 9 17 36 31 58 l26 42 -208 7 c-114 4 -290 5 -392 3 -173 -5 -189 -7 -243 -32 -32 -14 -64 -26 -72 -26 -7 0 -16 -4 -19 -8 -3 -5 -39 -17 -81 -27 -85 -20 -226 -17 -280 5 -16 7 -39 16 -50 20 -54 21 -174 83 -193 100 -43 40 -56 16 -55 -106 1 -82 11 -115 62 -198 25 -40 23 -43 -54 -63 -280 -76 -526 -14 -647 162 -60 88 -78 140 -78 226 0 80 25 145 75 196 48 47 138 66 200 43 l26 -10 -22 -31 c-49 -69 -44 -149 13 -209 80 -85 174 -91 259 -18 55 48 69 85 69 187 0 83 -3 100 -30 156 -27 56 -47 79 -116 135 -26 21 -115 55 -192 74 -80 20 -149 19 -232 -3z"/>
 <path d="M6970 4861 c-94 -26 -149 -54 -201 -103 -41 -38 -55 -58 -90 -130 -5 -10 -9 -65 -9 -123 0 -98 2 -108 27 -146 64 -98 196 -118 278 -43 70 64 83 136 40 213 -29 51 -25 60 33 68 81 11 173 -41 209 -117 34 -74 43 -163 22 -217 -58 -144 -129 -231 -223 -276 -75 -37 -102 -44 -198 -58 -92 -13 -154 -7 -294 28 -89 22 -92 25 -63 65 13 18 30 47 38 63 7 17 17 38 22 47 15 29 10 170 -6 192 -13 18 -16 17 -58 -20 -62 -54 -149 -96 -238 -115 -58 -13 -228 -7 -270 9 -13 5 -42 15 -64 22 -22 6 -60 21 -85 32 -25 12 -85 25 -135 30 -87 10 -702 4 -712 -6 -5 -5 108 -187 131 -212 6 -6 29 -35 51 -64 22 -29 57 -70 77 -91 35 -37 41 -39 96 -39 l59 0 105 -112 c58 -62 133 -142 166 -178 43 -47 79 -74 124 -95 35 -17 65 -33 68 -36 3 -3 14 -8 25 -11 11 -4 58 -19 105 -36 99 -34 146 -47 215 -61 28 -6 77 -16 110 -23 81 -18 475 -18 570 0 96 18 199 44 240 62 210 91 330 187 453 363 44 63 66 107 105 207 19 48 21 75 21 215 0 167 -8 212 -57 330 -72 172 -233 318 -409 369 -72 21 -194 19 -278 -3z"/>
 <path d="M3293 4283 c-61 -4 -62 -4 -74 -41 -17 -56 -118 -261 -152 -311 -24 -35 -27 -45 -16 -52 17 -11 499 -12 515 -1 6 4 14 27 18 52 16 106 36 278 36 313 l0 37 -43 0 c-24 0 -84 2 -133 4 -49 2 -117 2 -151 -1z"/>
 <path d="M4461 4283 l-73 -4 6 -82 c8 -100 22 -204 38 -275 l12 -54 257 4 c142 1 261 6 265 10 4 4 -9 31 -27 60 -43 65 -129 246 -153 321 -4 12 -16 17 -39 17 -19 0 -74 2 -123 4 -49 2 -122 1 -163 -1z"/>
 <path d="M5540 3333 c0 -5 -23 -24 -51 -43 l-52 -35 -403 0 c-221 0 -406 -3 -409 -7 -4 -4 -1 -22 8 -40 8 -18 27 -62 42 -98 43 -102 152 -293 212 -370 123 -159 212 -248 353 -356 137 -104 151 -116 243 -204 92 -87 175 -193 184 -232 7 -35 22 -35 55 0 64 68 87 163 69 297 -4 39 -7 71 -6 73 2 2 25 -17 53 -41 179 -160 315 -184 633 -116 54 12 128 -5 182 -42 42 -29 127 -120 127 -136 0 -7 5 -13 10 -13 6 0 10 -6 10 -14 0 -8 5 -18 11 -21 11 -7 9 18 -13 165 -6 41 -15 79 -19 85 -5 5 -9 17 -9 27 0 10 -4 26 -9 36 -5 9 -21 43 -36 74 -46 100 -120 203 -224 311 -56 57 -101 107 -101 109 0 3 17 8 38 11 133 22 193 50 274 127 32 30 58 57 58 60 0 3 -32 3 -71 2 -103 -5 -218 27 -314 86 -58 36 -79 47 -175 90 -67 30 -164 62 -188 62 -11 0 -24 5 -27 10 -3 6 -16 10 -29 10 -12 0 -71 16 -132 35 -121 40 -125 41 -207 78 -58 27 -87 33 -87 20z"/>
 <path d="M2350 3298 c-41 -16 -84 -34 -95 -39 -57 -24 -209 -66 -273 -76 -18 -3 -35 -9 -38 -14 -3 -5 -15 -9 -28 -9 -12 0 -26 -3 -29 -7 -4 -3 -28 -14 -54 -23 -53 -19 -145 -61 -153 -69 -13 -15 -116 -69 -175 -92 -37 -14 -80 -21 -168 -28 l-87 -6 30 -36 c34 -42 118 -99 170 -116 19 -7 64 -17 100 -24 36 -7 66 -13 67 -14 2 -1 -43 -48 -98 -105 -114 -118 -201 -242 -243 -345 -16 -38 -32 -79 -36 -90 -18 -45 -43 -206 -37 -245 l3 -25 11 25 c32 74 126 158 211 190 50 19 64 20 117 11 258 -45 319 -48 407 -20 68 22 159 77 228 138 40 35 54 39 46 14 -2 -10 -8 -50 -11 -89 -7 -69 2 -124 28 -184 11 -25 76 -100 87 -100 3 0 12 16 19 35 31 86 221 280 411 419 267 194 478 470 603 787 l35 87 -187 7 c-102 4 -290 4 -418 0 -249 -7 -245 -8 -314 46 -20 16 -41 29 -45 29 -5 -1 -43 -15 -84 -32z"/>
 <path d="M3453 3158 c-88 -119 -113 -159 -156 -244 -34 -68 -94 -221 -118 -299 -6 -22 -15 -49 -19 -60 -11 -29 -51 -200 -61 -265 -17 -103 -29 -245 -33 -376 -3 -123 -5 -136 -34 -198 -17 -36 -51 -88 -77 -115 -44 -47 -45 -49 -23 -55 62 -16 226 3 298 35 114 51 289 167 344 228 29 32 46 27 46 -16 0 -52 33 -222 58 -298 17 -54 69 -161 105 -218 70 -108 188 -227 226 -227 30 0 221 196 221 227 0 5 8 18 18 29 10 10 28 44 41 74 13 30 29 69 36 85 25 59 52 175 68 288 l12 89 65 -52 c121 -97 252 -177 340 -207 108 -37 232 -52 308 -37 l31 6 -43 43 c-23 24 -59 77 -79 118 -33 66 -37 83 -37 151 0 76 -21 237 -40 309 -27 102 -36 131 -72 241 -74 227 -185 477 -287 645 -28 46 -51 88 -51 92 0 4 -4 9 -9 11 -4 2 -20 22 -35 46 l-26 42 -80 0 -80 0 0 -144 c0 -150 4 -173 50 -271 24 -52 34 -64 76 -85 64 -32 142 -82 174 -112 35 -32 93 -108 107 -138 37 -83 37 -87 8 -122 -32 -39 -99 -94 -139 -115 -55 -29 -183 -62 -238 -63 -35 0 -38 -2 -38 -27 0 -34 -22 -100 -57 -171 -54 -114 -230 -301 -270 -288 -29 10 -127 107 -182 180 -70 92 -108 175 -128 279 -5 23 -10 27 -42 27 -120 2 -281 75 -360 166 -28 31 -32 42 -26 71 20 108 142 234 297 308 58 27 70 44 109 150 16 40 19 78 19 202 l0 153 -74 0 -74 0 -69 -92z"/>
 <path d="M2775 1938 c-86 -87 -275 -228 -305 -228 -5 0 -10 -4 -10 -10 0 -19 -31 -10 -76 21 -90 62 -150 81 -251 82 -79 0 -96 -3 -125 -23 -90 -63 -114 -105 -112 -203 2 -96 35 -155 107 -194 24 -14 55 -18 127 -18 104 0 132 8 219 63 79 50 122 92 229 226 53 67 99 123 102 126 3 3 32 41 64 85 33 44 66 88 74 98 28 33 -3 15 -43 -25z"/>
 <path d="M5220 1941 c0 -7 9 -25 20 -39 12 -15 52 -67 90 -117 38 -49 84 -108 102 -129 18 -22 40 -49 48 -60 25 -36 119 -124 163 -154 77 -52 138 -75 214 -80 166 -11 263 69 263 218 0 96 -44 167 -129 208 -40 19 -185 22 -224 5 -71 -31 -137 -67 -155 -84 -12 -10 -26 -19 -31 -19 -26 0 -202 118 -273 183 -81 75 -88 80 -88 68z"/>
 <path d="M5290 1490 c0 -26 -65 -127 -111 -170 -52 -51 -123 -100 -143 -100 -8 0 -17 -4 -20 -9 -17 -27 -259 -66 -355 -57 l-69 7 -7 -33 c-22 -103 -60 -193 -121 -288 -101 -157 -218 -239 -401 -280 -53 -12 -104 -6 -188 23 -49 16 -135 61 -135 69 0 4 -6 8 -13 8 -19 0 -124 106 -166 170 -51 76 -98 176 -121 260 -7 25 -14 51 -16 59 -3 10 -19 12 -72 6 -71 -6 -256 15 -308 36 -106 43 -159 77 -217 139 -62 65 -77 88 -97 144 l-11 30 -86 -86 -85 -86 12 -38 c34 -112 107 -213 195 -274 87 -60 232 -90 436 -90 4 0 12 -30 19 -67 34 -199 120 -349 275 -482 94 -80 269 -173 400 -212 22 -6 48 -15 57 -20 24 -12 125 -11 133 1 3 6 17 10 30 10 13 0 27 5 30 10 3 6 13 10 21 10 41 0 263 118 341 182 76 62 203 202 203 223 0 4 8 19 18 33 34 49 92 230 92 285 0 23 3 24 138 34 75 6 153 15 172 20 163 47 288 173 331 334 l12 45 -86 85 c-53 52 -87 79 -87 69z"/>
 </g>

</svg>