<!DOCTYPE svg PUBLIC "-//W3C//DTD SVG 20010904//EN" "http://www.w3.org/TR/2001/REC-SVG-20010904/DTD/svg10.dtd">
<svg version="1.0" xmlns="http://www.w3.org/2000/svg" width="800px" height="800px" viewBox="0 0 8000 8000" preserveAspectRatio="xMidYMid meet">
<g id="layer101" fill="#000000" stroke="none">
 <path d="M2878 7528 c-13 -18 -35 -51 -48 -73 -14 -22 -28 -44 -33 -50 -5 -5 -29 -41 -53 -80 -76 -123 -128 -206 -146 -233 -34 -52 -37 -73 -48 -274 -6 -112 -13 -240 -16 -285 l-6 -82 -86 -3 c-69 -2 -87 -6 -87 -18 0 -12 17 -16 80 -18 44 -2 84 -7 88 -11 5 -5 1 -147 -7 -317 -9 -170 -20 -406 -26 -524 -13 -270 -13 -269 -45 -338 -15 -31 -42 -88 -60 -127 -42 -90 -76 -165 -110 -240 -14 -33 -30 -69 -35 -80 -5 -11 -18 -42 -30 -70 -12 -27 -26 -61 -33 -74 -10 -21 -8 -26 21 -51 19 -15 46 -30 60 -33 37 -8 151 -104 218 -185 63 -76 155 -210 181 -262 4 -8 18 -35 33 -60 14 -25 34 -65 45 -90 10 -25 27 -64 37 -87 10 -23 18 -47 18 -53 0 -6 7 -24 15 -40 19 -37 51 -39 81 -5 19 23 22 40 27 222 3 109 13 425 21 703 9 278 20 611 25 740 6 129 13 402 17 606 l7 372 -86 3 c-82 4 -108 11 -93 26 4 4 46 10 94 13 l87 5 6 150 c4 83 9 261 13 398 l7 248 -35 14 c-19 8 -37 19 -40 24 -6 9 8 165 20 234 6 36 6 37 -24 37 -22 0 -36 -8 -54 -32z"/>
 <path d="M3835 7548 c-11 -6 -27 -18 -36 -27 -9 -9 -47 -43 -85 -76 -37 -33 -113 -100 -169 -149 -216 -192 -250 -222 -283 -251 -31 -28 -34 -35 -35 -95 -2 -60 0 -65 20 -68 20 -3 67 30 159 113 6 6 35 30 64 55 112 95 287 245 346 296 61 53 61 53 67 120 4 44 3 72 -4 81 -14 16 -18 16 -44 1z"/>
 <path d="M4127 7553 c-4 -3 -7 -37 -7 -75 0 -69 0 -69 43 -107 124 -111 114 -99 92 -116 -17 -14 -18 -17 -5 -25 22 -14 46 -12 59 4 21 25 121 29 121 5 0 -5 -12 -11 -27 -15 -16 -3 -34 -8 -41 -10 -12 -4 49 -60 209 -194 30 -25 77 -67 106 -93 37 -35 58 -48 75 -45 21 3 23 8 23 68 0 74 8 62 -128 183 -51 44 -82 79 -75 82 7 2 29 8 48 13 l35 9 -28 12 c-16 6 -49 11 -75 11 -26 0 -55 7 -65 14 -23 17 -130 112 -237 208 -79 72 -107 88 -123 71z"/>
 <path d="M5056 7552 c-2 -4 2 -63 9 -132 7 -69 11 -128 9 -132 -2 -3 -20 -12 -39 -18 -19 -6 -35 -17 -36 -23 -3 -39 3 -315 11 -512 5 -126 14 -426 20 -665 6 -239 13 -497 16 -573 l7 -138 -94 3 -94 3 -3 172 -2 171 -58 54 c-68 63 -227 188 -239 188 -4 0 -31 20 -58 45 -28 25 -53 45 -57 45 -15 0 -7 46 12 70 59 74 111 161 103 174 -4 7 -93 102 -198 210 -104 108 -191 202 -193 210 -2 8 5 19 15 25 15 8 27 1 64 -32 25 -23 74 -67 109 -97 102 -89 152 -132 219 -190 36 -30 87 -76 115 -102 51 -48 86 -66 105 -53 6 3 11 31 11 62 0 55 -1 57 -57 112 -32 31 -89 84 -128 116 -38 33 -94 83 -125 110 -218 195 -286 252 -321 269 -36 19 -39 19 -57 3 -11 -10 -32 -49 -47 -88 -16 -38 -32 -72 -37 -75 -4 -3 -8 -18 -8 -34 0 -30 71 -111 292 -333 48 -49 99 -102 113 -118 l25 -30 -43 -59 c-23 -32 -48 -66 -55 -77 -7 -10 -28 -40 -47 -67 l-35 -50 0 -318 0 -318 -39 0 c-26 0 -41 5 -45 16 -10 26 -7 652 3 659 5 3 12 19 16 35 4 17 26 69 51 116 l44 85 -79 93 c-44 51 -106 119 -138 150 -96 93 -116 85 -295 -123 -105 -122 -107 -127 -67 -183 10 -15 19 -34 19 -41 0 -8 7 -20 15 -27 8 -7 15 -20 15 -29 0 -9 7 -29 15 -45 12 -23 15 -85 15 -359 0 -293 -2 -332 -17 -349 -15 -17 -15 -19 2 -38 16 -18 17 -27 6 -117 -18 -146 -22 -158 -51 -158 l-25 0 -3 130 c-2 102 -6 133 -19 147 -15 17 -15 19 0 36 15 16 17 55 17 334 l0 315 -84 118 c-61 85 -82 123 -77 136 3 10 88 101 187 201 99 101 192 198 207 216 28 35 29 58 2 112 -7 14 -23 48 -35 76 -12 29 -33 58 -46 64 -20 11 -28 10 -62 -13 -22 -14 -84 -65 -139 -114 -54 -48 -166 -146 -248 -218 -82 -71 -164 -144 -183 -161 -29 -26 -36 -40 -43 -89 -13 -97 25 -110 105 -36 49 46 141 128 222 197 32 28 106 93 164 143 101 87 137 106 147 74 4 -12 -193 -224 -328 -354 -70 -67 -83 -95 -54 -119 8 -7 15 -17 15 -22 0 -4 22 -38 50 -73 27 -35 50 -70 50 -77 -1 -15 -61 -68 -140 -123 -30 -21 -57 -41 -60 -44 -3 -4 -36 -31 -75 -61 -38 -30 -87 -70 -108 -90 l-37 -35 -9 -825 c-7 -800 -7 -826 11 -843 31 -30 122 -177 152 -244 36 -83 67 -177 77 -233 21 -116 35 -170 52 -188 21 -23 96 -36 132 -22 l25 9 2 568 c3 525 4 568 20 571 11 2 28 -12 47 -39 l31 -42 0 -529 0 -528 27 -41 c24 -36 25 -42 12 -66 -8 -14 -60 -74 -117 -132 -56 -58 -103 -113 -105 -121 -1 -10 8 -16 26 -18 35 -4 81 32 233 183 l112 110 6 285 c11 471 25 1219 28 1486 2 202 0 254 -11 268 -12 14 -12 19 1 34 13 14 17 79 22 398 l7 382 -34 68 c-20 40 -32 76 -28 86 8 20 128 148 140 148 5 0 15 -10 24 -22 8 -13 37 -49 65 -80 l50 -57 -38 -78 -37 -78 9 -320 c4 -176 7 -347 6 -380 l-3 -60 -48 -7 c-27 -4 -52 -9 -55 -12 -10 -11 5 -17 55 -24 l48 -7 2 -50 c6 -123 33 -1561 33 -1744 0 -242 -6 -226 139 -366 132 -128 179 -165 207 -165 53 0 39 29 -58 128 -145 148 -161 178 -118 217 18 17 19 36 22 554 3 564 2 547 47 604 20 24 48 21 55 -5 3 -13 6 -269 6 -570 0 -534 0 -548 20 -558 23 -12 96 -3 126 15 21 13 34 55 54 170 14 86 81 268 123 340 32 53 73 114 99 147 l29 37 -2 623 -1 623 90 3 91 3 5 -43 c4 -41 23 -680 35 -1228 5 -228 8 -258 25 -283 15 -22 25 -27 49 -25 29 3 33 8 59 83 26 76 108 245 149 310 10 17 22 37 26 45 3 8 22 35 40 60 18 25 43 59 55 75 12 17 60 68 107 115 62 62 105 95 154 120 73 35 95 63 71 91 -8 8 -14 21 -14 28 0 12 -14 45 -66 159 -13 28 -36 78 -50 110 -39 85 -101 219 -134 287 -15 33 -30 68 -33 77 -5 14 -26 17 -151 20 -137 3 -169 8 -152 26 4 4 74 9 154 12 l147 5 -4 125 c-2 69 -5 129 -8 133 -3 5 -9 124 -14 265 -4 141 -13 334 -19 427 -5 94 -15 283 -21 420 -5 138 -15 268 -21 290 -7 22 -37 78 -67 125 -31 47 -58 90 -61 95 -8 16 -57 92 -134 207 -54 83 -76 108 -93 108 -12 0 -24 -3 -27 -8z m-319 -2205 c13 -14 -9 -20 -86 -25 -78 -4 -101 4 -85 29 7 12 158 8 171 -4z m-459 -164 c-3 -113 -6 -138 -18 -140 -8 -2 -20 0 -27 5 -12 7 -37 248 -27 264 3 4 21 8 40 8 l35 0 -3 -137z"/>
 <path d="M3840 7263 c-8 -3 -20 -10 -25 -17 -6 -6 -46 -42 -90 -80 -44 -39 -84 -75 -90 -80 -5 -6 -62 -56 -125 -111 -129 -112 -174 -152 -242 -216 -43 -40 -47 -48 -49 -94 -1 -27 -1 -58 0 -67 2 -31 44 -20 92 25 37 33 288 248 432 370 137 116 134 111 140 184 6 81 -3 100 -43 86z"/>
 <path d="M4120 7171 c0 -54 7 -64 110 -151 30 -25 101 -85 159 -135 58 -49 152 -130 210 -180 58 -49 114 -98 123 -107 19 -19 63 -24 73 -8 3 5 1 37 -4 72 -8 49 -16 68 -38 87 -15 13 -50 44 -78 68 -27 25 -61 55 -75 67 -120 104 -186 162 -190 167 -3 3 -43 39 -90 80 -47 40 -86 77 -88 81 -2 5 -28 8 -58 8 l-54 0 0 -49z"/>
 <path d="M3254 6167 l-64 -63 -2 -87 c-1 -48 -2 -102 -2 -119 -1 -58 31 -49 142 41 55 44 102 87 106 96 11 31 6 92 -9 105 -8 7 -15 17 -15 22 0 5 -10 22 -22 38 -33 46 -59 39 -134 -33z"/>
 <path d="M4600 6169 c-37 -56 -39 -63 -30 -102 9 -44 35 -72 154 -165 82 -64 90 -58 94 63 2 55 1 109 -2 121 -10 37 -125 144 -156 144 -13 0 -33 -21 -60 -61z"/>
 <path d="M1073 3614 c-5 -14 20 -46 94 -121 18 -17 111 -137 170 -218 29 -39 72 -138 77 -177 6 -40 11 -48 38 -57 20 -7 294 -13 812 -17 430 -3 787 -8 794 -10 7 -2 12 -14 10 -26 l-3 -23 -822 -5 c-452 -3 -823 -7 -826 -10 -8 -9 -27 -73 -27 -91 0 -11 10 -19 28 -23 15 -3 407 -6 872 -8 944 -3 851 -10 936 69 23 21 83 76 135 123 51 47 123 113 159 147 36 34 73 68 83 75 25 19 12 48 -22 48 -207 1 -869 23 -919 30 -37 5 -110 10 -162 10 -52 0 -124 7 -160 15 -36 8 -97 14 -136 15 -39 0 -93 7 -120 15 -27 8 -74 15 -105 15 -30 0 -78 6 -105 14 -27 8 -69 17 -94 21 -25 3 -54 10 -65 15 -11 5 -42 14 -70 20 -162 37 -222 55 -499 150 -71 24 -65 24 -73 4z"/>
 <path d="M6845 3606 c-136 -53 -405 -132 -600 -176 -27 -7 -78 -18 -112 -26 -34 -8 -84 -14 -110 -14 -26 0 -70 -7 -97 -15 -27 -8 -83 -15 -125 -15 -42 -1 -103 -7 -136 -15 -33 -8 -105 -15 -160 -15 -55 0 -127 -4 -160 -10 -45 -7 -732 -29 -923 -30 -49 0 -35 -29 54 -113 157 -147 315 -291 352 -322 l36 -30 855 3 c471 2 864 6 874 8 13 4 17 16 17 47 0 78 75 71 -847 77 l-828 5 -3 23 c-2 12 3 24 10 26 7 2 365 7 796 10 874 7 852 5 852 69 0 19 15 63 34 101 43 84 177 263 255 341 48 48 57 63 50 77 -12 22 -11 22 -84 -6z"/>
 <path d="M3960 3182 c-14 -9 -36 -27 -50 -38 -14 -12 -63 -54 -110 -94 -47 -40 -87 -76 -90 -79 -3 -4 -26 -24 -53 -45 l-47 -39 -133 -2 c-80 -2 -143 -7 -156 -14 -26 -14 -92 -84 -105 -112 -6 -12 -5 -24 4 -34 10 -12 44 -15 199 -15 l187 0 134 -135 c74 -74 137 -143 141 -152 25 -71 35 -346 14 -410 -5 -17 2 -31 36 -68 67 -73 74 -74 126 -23 64 62 67 71 47 124 -16 43 -16 53 -1 182 10 75 17 151 17 167 0 25 24 54 138 173 l137 142 183 0 c179 0 222 6 222 33 0 17 -90 113 -119 127 -14 8 -79 13 -158 15 l-133 2 -44 39 c-157 140 -287 249 -313 263 -29 15 -43 13 -73 -7z"/>
 <path d="M1318 2518 c-27 -36 -82 -115 -191 -276 -38 -56 -80 -112 -93 -125 -13 -12 -24 -28 -24 -34 0 -21 48 -26 84 -9 19 9 41 16 49 16 8 0 28 7 43 15 16 8 41 15 56 15 15 0 29 4 33 9 3 5 20 13 38 16 17 4 58 16 89 26 54 18 111 19 927 26 822 6 872 5 890 -11 28 -25 65 -14 151 45 39 28 77 55 84 60 6 6 39 28 74 50 93 60 94 67 21 131 -34 29 -68 59 -75 66 -22 21 -64 13 -106 -20 l-40 -32 -552 12 c-303 7 -731 15 -951 18 -309 5 -406 10 -427 20 -40 21 -53 17 -80 -18z"/>
 <path d="M4469 2482 c-83 -78 -83 -84 -1 -135 28 -18 94 -62 146 -99 52 -36 104 -69 116 -73 11 -4 40 1 66 11 42 16 102 17 892 10 466 -3 863 -11 882 -15 19 -5 50 -14 68 -20 17 -6 47 -16 65 -22 17 -6 50 -15 72 -20 22 -5 49 -13 60 -18 95 -39 148 -46 153 -20 2 9 -8 29 -21 43 -13 14 -43 54 -67 88 -24 35 -63 92 -88 128 -26 36 -61 87 -79 113 -70 104 -81 111 -126 83 -17 -11 -104 -15 -422 -20 -220 -3 -648 -11 -951 -18 l-552 -11 -40 31 c-62 50 -87 44 -173 -36z"/>
 <path d="M4345 2298 c-12 -5 -31 -31 -43 -57 -21 -47 -22 -61 -22 -337 0 -261 10 -527 28 -734 l7 -75 39 -5 c55 -7 60 -30 7 -30 -28 0 -44 -5 -47 -15 -7 -17 26 -733 35 -762 1 -2 158 -3 351 -3 l350 0 6 26 c5 20 1 29 -17 42 -53 37 -130 136 -165 212 -4 8 -12 22 -19 30 -7 8 -15 24 -18 35 -3 11 -16 47 -27 80 -26 71 -46 151 -65 260 -16 87 -13 95 37 95 15 0 30 4 33 10 6 9 -16 17 -65 22 -21 3 -25 9 -27 38 -2 19 -10 85 -18 145 -39 291 -54 466 -55 651 l0 162 -38 33 c-22 19 -74 63 -118 99 -43 35 -81 67 -84 71 -10 12 -46 16 -65 7z"/>
 <path d="M3549 2252 c-30 -26 -77 -65 -104 -87 -93 -76 -92 -74 -87 -167 7 -145 -19 -460 -64 -765 -9 -61 -14 -118 -11 -127 3 -8 22 -16 43 -18 53 -4 56 -26 4 -30 -39 -3 -43 -6 -56 -44 -8 -23 -18 -68 -23 -100 -12 -72 -29 -138 -47 -182 -8 -18 -14 -40 -14 -50 0 -9 -7 -26 -15 -36 -8 -11 -15 -26 -15 -34 0 -8 -13 -34 -30 -59 -16 -24 -30 -47 -30 -51 0 -14 -34 -56 -97 -119 -46 -47 -60 -67 -56 -83 5 -21 53 -30 53 -10 0 6 9 10 20 10 11 0 20 -4 20 -10 0 -9 608 -16 611 -7 10 28 30 320 35 504 4 133 10 247 14 254 5 6 25 15 45 18 47 8 47 25 0 29 -20 2 -39 10 -42 18 -3 8 0 85 6 172 6 86 12 329 13 539 l1 382 -24 50 c-22 47 -26 51 -59 51 -27 0 -47 -11 -91 -48z"/>
 <path d="M3075 2060 c-66 -4 -141 -8 -166 -9 -36 -1 -53 -8 -87 -36 -45 -39 -45 -49 -4 -101 13 -16 36 -49 53 -74 16 -25 47 -70 70 -100 22 -30 61 -86 86 -125 60 -90 83 -115 103 -115 21 0 93 35 108 52 17 21 51 278 51 396 1 59 -3 76 -19 92 -11 11 -26 20 -34 20 -8 0 -20 1 -28 3 -7 2 -67 0 -133 -3z"/>
 <path d="M4760 2057 c-46 -23 -54 -57 -41 -176 7 -58 17 -151 23 -206 6 -61 17 -108 26 -120 19 -25 93 -58 119 -53 9 2 48 48 85 103 38 55 86 125 106 155 69 100 115 165 129 178 23 23 14 49 -25 80 -37 30 -42 31 -172 37 -74 3 -155 8 -180 10 -26 3 -56 -1 -70 -8z"/>
 <path d="M3950 1600 c-19 -19 -20 -31 -18 -263 l3 -242 45 -5 c53 -6 60 -24 10 -28 -19 -2 -41 -8 -47 -14 -10 -8 -13 -88 -13 -338 0 -283 2 -329 15 -340 20 -17 95 -14 113 3 10 11 13 81 12 345 l0 331 22 5 c13 3 31 7 41 8 32 5 19 23 -20 28 l-38 5 -5 248 c-5 231 -6 250 -24 263 -28 20 -73 17 -96 -6z"/>
 </g>

</svg>