<!DOCTYPE svg PUBLIC "-//W3C//DTD SVG 20010904//EN" "http://www.w3.org/TR/2001/REC-SVG-20010904/DTD/svg10.dtd">
<svg version="1.0" xmlns="http://www.w3.org/2000/svg" width="800px" height="800px" viewBox="0 0 8000 8000" preserveAspectRatio="xMidYMid meet">
<g id="layer101" fill="#000000" stroke="none">
 <path d="M2686 7028 c-345 -424 -376 -462 -376 -470 0 -4 261 -8 581 -8 550 0 581 1 574 18 -4 9 -22 60 -40 112 -18 52 -49 137 -69 189 l-36 95 42 43 c23 24 49 43 58 43 8 0 62 -28 120 -63 290 -174 418 -251 442 -269 l28 -19 127 77 c71 43 191 115 268 162 77 46 154 93 171 103 l31 19 47 -41 c25 -22 46 -49 46 -58 0 -17 -52 -170 -65 -191 -8 -13 -75 -203 -75 -212 0 -5 261 -8 580 -8 319 0 580 3 580 6 0 3 -55 74 -123 157 -68 84 -185 229 -261 322 -76 94 -145 176 -154 183 -12 9 -263 12 -1173 12 l-1158 0 -165 -202z"/>
 <path d="M2025 6901 c-11 -5 -45 -39 -75 -75 l-55 -66 -141 0 c-97 0 -145 -4 -156 -12 -9 -7 -48 -53 -87 -102 -51 -65 -68 -92 -59 -98 7 -4 137 -8 289 -8 320 0 276 -14 400 130 102 120 173 219 164 228 -10 10 -257 13 -280 3z"/>
 <path d="M5738 6903 c-10 -2 -18 -7 -18 -9 0 -15 77 -121 145 -199 43 -49 88 -103 101 -120 l23 -30 286 -3 c157 -2 292 1 299 5 11 6 1 25 -45 83 -33 41 -71 87 -85 103 l-24 27 -144 0 -145 0 -21 28 c-12 15 -42 48 -66 75 l-45 47 -122 -1 c-67 -1 -130 -3 -139 -6z"/>
 <path d="M4410 6850 c-49 -38 -329 -243 -363 -265 -33 -21 -54 -14 -132 44 -194 147 -328 242 -333 237 -5 -6 26 -114 103 -350 25 -76 43 -146 40 -155 -3 -9 -31 -33 -63 -54 -31 -21 -70 -48 -87 -60 -16 -12 -86 -63 -154 -112 l-125 -90 270 -6 c148 -4 270 -7 271 -8 1 0 28 -81 58 -178 91 -287 108 -333 119 -333 6 0 21 31 33 68 11 37 47 148 78 247 31 99 61 184 66 190 11 11 9 11 312 13 l229 2 -29 23 c-15 13 -112 84 -215 157 -110 78 -188 140 -188 150 0 8 11 49 24 90 65 200 126 404 124 410 -2 4 -19 -5 -38 -20z"/>
 <path d="M1011 6420 c-112 -37 -190 -144 -191 -262 0 -90 69 -196 160 -244 34 -18 87 -19 1335 -19 l1300 0 3 33 c2 21 -2 34 -12 38 -8 3 -131 9 -273 12 l-258 7 0 55 0 54 215 138 c118 75 219 144 225 152 7 11 5 20 -5 31 -13 13 -169 15 -1233 17 -1076 3 -1224 1 -1266 -12z"/>
 <path d="M5710 6430 l-1195 -5 0 -25 c0 -21 31 -45 220 -167 l220 -142 0 -53 0 -53 -230 -6 c-126 -4 -249 -7 -273 -8 l-43 -1 3 -37 3 -38 1275 -3 c1156 -2 1280 -1 1327 14 134 42 213 181 178 316 -21 84 -49 121 -125 172 -34 22 -127 49 -153 44 -7 -2 -550 -5 -1207 -8z"/>
 <path d="M7353 6109 c-7 -13 -35 -91 -62 -174 l-49 -150 -184 -6 c-100 -3 -185 -6 -187 -7 -3 -1 60 -50 138 -108 78 -58 145 -112 147 -119 3 -7 -18 -82 -45 -166 -50 -150 -57 -179 -45 -179 6 0 136 92 229 162 28 21 55 38 61 38 6 0 75 -45 153 -100 78 -55 146 -100 151 -100 6 0 6 9 0 23 -17 43 -100 307 -100 320 0 8 44 45 98 82 155 110 194 142 176 149 -9 3 -92 6 -185 6 -93 0 -169 1 -169 3 -1 1 -26 80 -58 176 -52 157 -59 171 -69 150z"/>
 <path d="M649 6093 c-11 -30 -77 -234 -87 -268 -11 -43 -18 -45 -191 -45 -91 0 -172 -4 -179 -9 -11 -6 -6 -14 20 -32 76 -53 258 -191 258 -195 0 -3 -23 -75 -51 -162 -28 -86 -52 -163 -55 -171 -7 -23 22 -5 161 94 73 52 137 95 142 95 6 0 70 -43 143 -96 73 -52 139 -98 147 -101 18 -7 14 10 -44 183 -23 73 -43 140 -43 150 0 11 20 33 43 50 155 113 237 177 237 185 0 5 -82 10 -182 11 l-183 3 -55 168 c-30 92 -58 167 -63 167 -4 0 -12 -12 -18 -27z"/>
 <path d="M1555 5771 c4 -14 19 -41 33 -60 15 -18 40 -50 56 -71 l28 -38 -148 -218 c-179 -265 -232 -345 -266 -404 -288 -502 -430 -1082 -415 -1698 7 -323 49 -524 175 -844 29 -72 126 -258 143 -274 25 -22 33 -14 82 76 19 36 88 162 152 280 65 118 131 240 147 270 17 30 44 79 60 108 26 45 30 61 25 100 -47 389 -47 522 -1 877 l15 120 -77 140 c-42 77 -92 169 -111 204 -42 76 -42 122 0 211 14 30 46 102 72 160 85 193 186 373 323 580 76 112 160 228 187 257 49 53 52 54 118 60 48 4 67 3 67 -6 0 -6 -42 -66 -93 -134 -51 -67 -118 -162 -148 -212 -101 -161 -277 -462 -284 -485 -4 -11 -31 -73 -61 -136 l-54 -116 38 -73 c21 -40 43 -70 48 -67 5 4 18 27 29 52 10 25 62 136 116 247 75 156 128 248 235 410 222 332 367 519 489 628 41 37 73 70 70 73 -3 3 -242 7 -531 8 l-526 2 7 -27z"/>
 <path d="M5420 5790 c0 -2 42 -45 93 -95 121 -118 261 -299 453 -587 152 -228 223 -358 339 -619 25 -57 49 -107 54 -112 8 -8 81 117 81 139 0 7 -12 39 -26 71 -14 32 -37 83 -50 113 -41 92 -82 166 -207 375 -139 233 -190 309 -281 424 -36 46 -66 91 -66 99 0 12 12 14 68 9 66 -6 68 -7 114 -59 85 -94 302 -423 395 -598 73 -136 215 -459 220 -501 6 -38 7 -34 -127 -279 -100 -182 -95 -169 -82 -267 24 -168 31 -289 32 -483 0 -175 -17 -385 -36 -433 -4 -11 21 -67 67 -149 74 -136 88 -161 154 -283 150 -278 218 -395 230 -395 20 0 45 39 112 175 98 196 174 434 209 655 24 150 24 575 0 760 -41 323 -120 628 -224 875 -102 240 -161 344 -389 683 -102 151 -187 280 -190 288 -3 7 20 46 51 85 51 66 61 85 54 107 -3 7 -1048 10 -1048 2z"/>
 <path d="M3415 5754 c-143 -42 -351 -109 -433 -141 -92 -35 -93 -36 -188 -141 -144 -160 -263 -336 -241 -358 3 -3 50 25 104 64 355 251 684 427 977 522 76 25 96 35 94 48 -3 15 -21 17 -133 19 -89 1 -146 -3 -180 -13z"/>
 <path d="M4301 5743 c-7 -16 -23 -55 -36 -88 -41 -109 -163 -343 -183 -349 -10 -3 -56 -5 -102 -4 -78 1 -91 -2 -160 -34 -187 -87 -542 -370 -845 -673 -154 -154 -266 -288 -373 -446 l-31 -47 82 -83 c97 -100 153 -193 208 -349 21 -60 48 -128 59 -151 l21 -40 -25 -54 c-21 -46 -30 -55 -63 -64 -21 -6 -52 -11 -69 -11 -55 0 -191 -107 -229 -180 -58 -112 -94 -299 -65 -335 21 -25 47 -17 81 24 33 42 54 44 62 8 2 -12 16 -67 31 -122 23 -84 44 -235 46 -322 0 -32 -44 -68 -114 -93 -89 -31 -232 -96 -299 -136 -54 -31 -87 -42 -87 -29 0 4 7 20 16 36 8 17 14 42 12 57 -2 22 -9 28 -33 30 -25 2 -40 -8 -97 -65 -69 -70 -108 -116 -108 -128 0 -20 -43 -63 -69 -68 -17 -4 -43 -19 -60 -34 -30 -28 -103 -158 -137 -243 -10 -25 -31 -63 -47 -85 -79 -110 -90 -168 -70 -355 14 -128 55 -199 143 -253 19 -11 55 -40 78 -64 84 -82 207 -103 374 -63 54 13 118 20 183 20 105 0 189 16 262 50 56 26 58 26 144 -14 215 -99 254 -115 364 -152 264 -90 616 -139 731 -100 27 9 67 17 88 19 44 2 40 6 166 -174 90 -130 113 -154 184 -193 81 -45 144 -58 229 -46 144 21 258 114 354 290 73 134 96 247 97 480 l1 174 74 42 c89 50 160 110 201 169 33 48 33 72 -1 55 -36 -20 -40 0 -12 51 28 52 123 143 251 242 70 54 162 153 162 174 0 5 -13 19 -30 31 -49 37 -47 56 16 167 32 55 90 172 130 260 39 88 96 215 127 282 58 124 87 198 87 221 0 7 -15 26 -32 43 -30 27 -34 36 -39 107 -3 42 -12 136 -19 207 l-13 130 52 90 c28 50 54 100 58 113 12 50 -94 414 -197 672 -130 325 -248 562 -365 735 -45 66 -100 155 -123 197 -97 179 -168 277 -294 406 l-91 92 -322 0 -322 0 -12 -27z m-991 -1247 c0 -2 -35 -76 -78 -163 -44 -87 -95 -194 -115 -238 -40 -89 -105 -288 -112 -343 -10 -78 -35 -47 -46 55 -4 43 -13 107 -19 143 -15 83 -6 269 14 308 28 54 151 158 239 201 72 36 117 50 117 37z m711 -126 c127 -33 180 -52 196 -72 50 -62 82 -171 107 -363 17 -129 10 -142 -39 -73 -86 118 -216 270 -337 392 -70 71 -128 133 -128 137 0 18 88 8 201 -21z m1150 -161 c27 -53 69 -158 95 -235 59 -174 69 -288 35 -367 -32 -74 -164 -286 -178 -287 -7 0 -13 1 -14 3 0 1 -5 166 -9 367 -9 387 -4 623 13 617 6 -2 32 -46 58 -98z m-1755 44 c-11 -49 -150 -325 -169 -334 -24 -13 -41 28 -41 102 -1 52 3 61 44 115 42 53 143 143 164 144 4 0 5 -12 2 -27z m1234 -252 c0 -10 10 -40 22 -67 18 -42 22 -72 26 -209 4 -159 4 -160 -28 -250 -17 -49 -34 -98 -37 -107 -16 -54 -59 21 -69 120 -5 48 38 404 61 510 6 27 25 30 25 3z m307 -484 c6 -56 15 -174 19 -262 5 -132 4 -171 -10 -223 -39 -154 -86 -239 -224 -409 -115 -141 -115 -130 -17 213 71 247 121 445 161 639 25 123 39 163 53 149 3 -3 11 -51 18 -107z m-2132 -452 c35 -17 62 -56 50 -75 -5 -8 -12 -5 -22 9 -20 30 -66 51 -108 51 -33 0 -43 8 -28 23 12 12 74 7 108 -8z m-36 -109 c19 -11 39 -24 45 -28 5 -3 9 -29 7 -57 -1 -39 3 -55 19 -71 11 -11 23 -20 28 -20 4 0 34 25 67 55 33 30 67 55 76 55 23 0 58 -49 114 -160 87 -174 125 -321 125 -485 l0 -93 -52 -79 c-77 -114 -102 -130 -423 -283 -93 -44 -183 -87 -198 -95 -16 -8 -33 -15 -38 -15 -5 0 -9 36 -9 81 0 85 -10 119 -37 119 -31 0 -84 -45 -139 -117 -30 -40 -59 -73 -63 -73 -28 0 -131 24 -156 37 -65 33 -135 117 -135 163 0 17 6 20 45 20 57 0 85 18 129 84 65 98 265 243 453 328 102 46 122 63 121 101 -7 212 -36 402 -75 485 -12 26 -13 38 -4 58 9 20 15 23 38 18 16 -4 43 -16 62 -28z m521 -1853 c79 -35 78 -52 -2 -88 -60 -27 -66 -28 -129 -17 -71 12 -159 46 -171 65 -10 16 30 36 105 52 93 20 131 18 197 -12z m1360 -58 c0 -32 -91 -230 -138 -302 -52 -79 -96 -99 -155 -72 -28 13 -76 105 -61 117 5 5 48 34 96 65 47 32 119 88 160 127 63 59 98 83 98 65z"/>
 <path d="M3730 5553 c-365 -171 -634 -321 -931 -520 -191 -127 -377 -261 -413 -298 -82 -84 -288 -710 -277 -844 2 -25 38 17 80 93 140 254 369 537 676 834 319 310 615 539 855 663 63 33 85 50 85 64 0 26 -30 29 -75 8z"/>
 </g>

</svg>