<!DOCTYPE svg PUBLIC "-//W3C//DTD SVG 20010904//EN" "http://www.w3.org/TR/2001/REC-SVG-20010904/DTD/svg10.dtd">
<svg version="1.0" xmlns="http://www.w3.org/2000/svg" width="800px" height="800px" viewBox="0 0 8000 8000" preserveAspectRatio="xMidYMid meet">
<g id="layer101" fill="#000000" stroke="none">
 <path d="M2877 7809 c-10 -6 -39 -14 -65 -18 -34 -4 -49 -12 -58 -28 -6 -12 -22 -32 -36 -43 -31 -24 -96 -27 -104 -5 -4 8 -12 15 -20 15 -8 0 -14 4 -14 9 0 20 -68 21 -130 1 -34 -11 -73 -20 -86 -20 -13 0 -24 -4 -24 -8 0 -4 -13 -13 -30 -19 -28 -10 -30 -15 -30 -62 0 -46 -3 -52 -30 -66 -22 -12 -35 -13 -49 -5 -33 17 -86 12 -114 -12 -32 -28 -97 -125 -97 -144 0 -8 -7 -17 -15 -20 -24 -10 -17 -48 15 -79 33 -32 41 -84 15 -105 -8 -7 -15 -23 -15 -37 0 -13 -7 -35 -16 -48 -18 -27 -12 -45 16 -45 26 0 50 27 50 55 0 13 7 30 15 39 8 8 15 24 15 35 0 10 14 30 31 43 47 35 99 90 99 105 0 7 4 13 9 13 5 0 14 14 20 30 5 17 14 30 19 30 6 0 13 15 16 33 12 60 29 72 99 69 42 -2 72 2 92 12 17 9 51 16 78 16 26 0 47 4 47 9 0 6 13 17 28 26 16 10 32 27 38 39 13 30 75 34 110 7 23 -18 41 -21 129 -21 131 0 160 6 195 41 24 25 36 29 82 29 47 0 56 -4 78 -30 l25 -30 126 0 126 0 37 35 c51 48 83 55 110 24 50 -57 59 -59 281 -59 173 0 210 3 230 16 14 9 25 22 25 30 0 17 41 28 71 19 13 -4 36 -21 52 -36 28 -29 29 -29 156 -29 l127 0 34 30 c28 25 42 30 86 30 41 0 54 -4 58 -18 11 -32 48 -44 168 -53 121 -9 143 -6 176 28 23 23 102 14 102 -11 0 -7 16 -27 36 -44 26 -23 46 -32 70 -32 19 0 48 -7 65 -16 20 -10 53 -14 100 -13 77 2 109 -15 109 -57 0 -20 43 -95 85 -149 8 -10 15 -22 15 -26 0 -4 20 -19 45 -33 26 -16 45 -34 45 -44 0 -10 6 -26 14 -37 7 -11 16 -36 20 -57 7 -36 21 -48 57 -48 23 0 25 27 4 54 -8 11 -15 29 -15 41 0 12 -7 30 -15 41 -22 30 -18 58 15 89 17 16 30 39 30 51 0 26 -29 85 -47 97 -7 4 -13 15 -13 23 0 8 -20 34 -44 59 -36 38 -49 45 -81 45 -21 0 -46 -7 -56 -16 -16 -15 -20 -14 -43 3 -19 13 -25 27 -26 53 -1 57 -9 74 -48 91 -74 32 -218 57 -235 40 -6 -6 -18 -11 -27 -11 -8 0 -24 -9 -33 -21 -27 -31 -73 -17 -124 37 -26 27 -51 44 -65 44 -13 0 -53 7 -91 16 -64 16 -70 16 -110 -1 -23 -10 -56 -31 -73 -47 -25 -24 -36 -27 -65 -22 -46 9 -68 21 -97 55 -23 29 -25 29 -132 29 -105 0 -111 -1 -154 -31 -25 -16 -48 -34 -51 -38 -10 -17 -81 6 -115 37 l-34 32 -212 0 -211 0 -34 -35 c-27 -27 -42 -35 -71 -35 -23 0 -42 6 -50 18 -30 40 -75 52 -188 52 l-109 0 -35 -36 c-49 -50 -108 -58 -153 -20 -17 14 -35 26 -41 26 -5 0 -15 7 -22 15 -15 18 -115 20 -143 4z m600 -42 c6 -4 10 -28 9 -54 l-1 -48 -100 0 c-85 0 -100 2 -103 16 -2 11 7 20 25 26 27 10 27 10 6 17 -28 9 -30 30 -4 48 14 10 38 12 89 8 38 -4 73 -10 79 -13z m351 12 c30 -10 31 -13 28 -56 -4 -51 -16 -63 -63 -63 -65 0 -90 35 -33 47 33 6 37 15 15 33 -11 9 -12 17 -4 31 11 22 15 23 57 8z m283 -15 c11 -14 11 -18 -4 -29 -21 -15 -22 -25 -3 -25 7 0 19 -7 27 -16 17 -21 -3 -34 -51 -34 -44 0 -63 16 -50 41 7 11 7 20 0 24 -14 9 -12 42 3 48 26 11 65 6 78 -9z m471 -2 c9 -9 7 -17 -6 -31 -17 -18 -17 -20 1 -30 14 -8 16 -14 7 -28 -10 -16 -23 -18 -95 -14 -46 2 -87 5 -91 8 -5 2 -8 26 -8 53 l0 49 43 4 c64 7 137 1 149 -11z m-1575 -7 c3 -9 -2 -22 -12 -29 -13 -9 -15 -15 -7 -20 19 -11 14 -44 -8 -56 -33 -18 -147 -25 -165 -10 -14 12 -14 15 1 31 14 16 14 19 -1 43 -31 47 -16 56 90 56 77 0 97 -3 102 -15z m951 -28 c4 -45 -13 -73 -34 -56 -14 12 -19 80 -7 93 18 17 38 -1 41 -37z m1110 15 c2 -13 -4 -32 -13 -42 -15 -17 -15 -19 1 -28 10 -6 15 -16 11 -26 -7 -17 -76 -22 -149 -10 -45 8 -59 36 -33 65 16 17 16 19 1 25 -9 3 -16 15 -16 25 0 18 7 20 98 17 93 -3 97 -4 100 -26z m-2530 -44 c8 -8 8 -17 1 -30 -7 -14 -6 -20 6 -24 52 -20 -37 -77 -113 -72 -40 3 -47 6 -50 26 -2 13 -14 28 -28 34 -31 15 -30 26 4 39 15 6 38 17 52 25 31 17 112 18 128 2z m2916 -3 c15 -8 35 -15 43 -15 8 0 24 -5 35 -11 20 -11 19 -12 -11 -39 -17 -16 -31 -36 -31 -44 0 -25 -104 -22 -146 5 -37 23 -43 36 -18 46 8 3 14 15 12 27 -1 11 1 27 5 34 11 17 76 15 111 -3z m-3277 -191 c4 -10 -1 -22 -10 -29 -21 -15 -21 -33 0 -57 14 -16 14 -20 1 -35 -8 -10 -18 -26 -21 -36 -15 -41 -119 -46 -132 -6 -4 12 -1 27 8 37 7 9 17 24 21 32 41 88 115 141 133 94z m3622 -46 c22 -35 45 -68 50 -75 16 -18 13 -60 -5 -67 -33 -13 -78 -6 -101 16 -13 12 -23 26 -23 31 0 5 -8 15 -17 22 -15 11 -15 14 4 30 22 19 21 46 -3 66 -19 16 0 39 31 39 18 0 34 -16 64 -62z"/>
 <path d="M3860 7425 c-7 -8 -20 -15 -29 -15 -10 0 -26 -7 -37 -15 -10 -8 -26 -15 -34 -15 -8 0 -33 -9 -55 -20 -22 -11 -48 -19 -57 -20 -10 0 -18 -4 -18 -10 0 -5 -6 -10 -13 -10 -7 0 -29 -9 -50 -20 -20 -11 -43 -20 -51 -20 -7 0 -19 -7 -26 -15 -7 -8 -20 -15 -30 -15 -9 0 -35 -13 -56 -28 -36 -26 -41 -36 -57 -108 -15 -73 -36 -330 -29 -367 7 -35 53 -51 172 -58 63 -4 146 -12 184 -19 84 -15 563 -8 616 8 19 6 79 14 133 18 143 9 137 -2 128 228 -7 165 -10 189 -25 198 -12 7 -16 17 -12 33 5 18 -2 30 -27 51 -17 15 -46 33 -64 40 -17 8 -34 18 -38 24 -3 5 -15 10 -25 10 -10 0 -25 7 -34 15 -8 8 -22 15 -31 15 -9 0 -29 6 -43 13 -66 34 -99 47 -129 53 -18 4 -38 13 -44 20 -6 8 -23 14 -38 14 -14 1 -37 7 -51 15 -34 19 -114 19 -130 0z m180 -50 c7 -8 23 -15 36 -15 12 0 29 -7 38 -15 8 -8 23 -15 33 -15 11 0 28 -7 39 -15 10 -8 28 -15 40 -15 11 0 29 -7 40 -15 10 -8 24 -15 31 -15 16 0 52 -17 88 -40 17 -11 39 -24 50 -29 11 -6 30 -20 41 -33 19 -21 22 -39 27 -193 4 -94 8 -181 9 -195 3 -21 -2 -26 -24 -28 l-27 -3 -3 118 -3 118 -27 3 -28 3 0 -124 c0 -131 -7 -153 -47 -145 -16 3 -18 15 -16 120 2 124 -3 137 -48 123 -17 -6 -19 -18 -19 -125 0 -65 -4 -121 -8 -124 -5 -3 -19 -2 -32 1 -23 6 -23 7 -17 125 l7 118 -35 0 c-31 0 -35 -3 -41 -36 -3 -19 -3 -70 0 -113 6 -64 4 -80 -8 -91 -13 -10 -19 -10 -31 0 -11 10 -15 36 -15 111 0 96 -1 99 -24 105 -14 3 -30 3 -35 -1 -7 -4 -11 -48 -11 -111 0 -86 -3 -106 -16 -111 -30 -11 -38 14 -35 111 1 52 -2 103 -8 114 -15 29 -16 419 -1 438 16 18 64 18 80 -1z m-485 -395 c55 -6 154 -16 220 -23 l120 -12 0 -120 0 -120 -175 3 c-101 2 -200 9 -235 17 -33 8 -71 15 -85 17 -25 3 -25 4 -24 103 0 55 4 113 8 129 6 26 10 28 39 22 18 -4 77 -11 132 -16z"/>
 <path d="M2290 7168 c-47 -29 -46 -28 -33 -36 7 -4 17 -19 23 -32 5 -14 19 -38 30 -55 11 -16 24 -39 30 -50 5 -11 15 -27 22 -36 13 -18 5 -47 -14 -53 -7 -3 -25 -7 -40 -10 -24 -5 -28 -12 -28 -39 0 -45 28 -69 61 -51 13 7 34 13 45 14 12 0 27 7 34 15 7 8 22 15 34 15 22 0 66 40 66 59 0 7 -9 29 -20 49 -10 20 -21 44 -24 52 -3 8 -12 24 -18 35 -44 68 -64 102 -68 120 -8 29 -57 30 -100 3z"/>
 <path d="M5510 7183 c-9 -2 -21 -16 -28 -31 -6 -15 -20 -40 -31 -57 -11 -16 -29 -50 -41 -75 -11 -25 -28 -58 -35 -73 -8 -16 -15 -35 -15 -43 0 -20 32 -54 50 -54 9 0 25 -7 36 -15 10 -8 27 -15 36 -15 9 0 30 -8 48 -17 31 -18 31 -18 51 6 10 13 19 31 19 41 0 22 -29 47 -60 52 -32 4 -38 37 -13 75 9 15 20 30 23 33 3 3 11 16 18 30 7 14 23 44 37 67 l25 41 -33 13 c-53 21 -71 25 -87 22z"/>
 <path d="M2545 7160 c10 -11 28 -20 39 -20 12 0 34 -7 50 -15 15 -8 36 -15 45 -15 9 0 28 -6 42 -14 14 -7 47 -16 73 -20 25 -4 58 -14 74 -22 15 -7 45 -14 67 -14 22 -1 51 -7 65 -15 27 -15 210 -22 210 -7 0 15 -65 35 -134 42 -39 4 -81 12 -93 18 -12 7 -39 12 -60 12 -21 0 -51 7 -67 15 -15 8 -40 15 -55 15 -14 0 -39 7 -55 15 -15 8 -40 15 -55 15 -15 0 -36 7 -47 15 -10 8 -41 15 -68 15 -48 0 -49 0 -31 -20z"/>
 <path d="M5260 7164 c-14 -7 -38 -14 -55 -14 -16 0 -39 -7 -49 -15 -11 -8 -36 -15 -55 -15 -20 0 -45 -7 -55 -15 -11 -8 -38 -15 -60 -15 -23 -1 -52 -7 -66 -15 -14 -8 -48 -14 -76 -15 -29 0 -76 -7 -105 -16 -30 -9 -60 -18 -66 -20 -19 -5 -15 -22 8 -34 16 -9 30 -8 60 4 22 9 63 16 92 16 28 1 63 7 77 15 14 8 43 14 65 15 22 0 49 6 60 14 11 7 41 16 68 20 26 4 59 14 75 22 15 7 36 14 48 14 11 0 24 4 30 9 5 5 25 13 44 18 45 12 55 43 13 42 -15 -1 -39 -7 -53 -15z"/>
 <path d="M1685 7133 c-17 -8 -43 -34 -58 -58 -17 -27 -38 -46 -54 -50 -75 -18 -183 -87 -183 -115 0 -18 -33 -70 -45 -70 -5 0 -20 -11 -33 -24 l-22 -24 51 -46 c28 -25 56 -46 63 -46 6 0 28 -9 49 -20 24 -13 56 -20 91 -20 82 0 86 -3 86 -70 0 -68 -11 -77 -86 -65 -53 8 -84 -7 -84 -40 0 -67 50 -102 101 -73 26 15 28 15 50 -8 14 -15 23 -40 26 -71 4 -47 3 -49 -56 -111 -65 -69 -80 -112 -68 -189 17 -103 174 -165 288 -113 56 25 70 38 92 79 35 66 11 154 -62 226 -40 38 -41 41 -41 106 0 78 3 80 88 76 61 -2 72 8 72 65 0 48 -29 71 -70 56 -16 -5 -41 -8 -57 -6 l-28 3 1 126 c1 139 10 169 51 169 37 0 83 -54 83 -97 0 -30 3 -33 31 -33 36 0 91 30 132 72 24 24 26 31 15 48 -7 12 -23 23 -36 27 -15 3 -25 15 -29 35 -7 35 -85 115 -121 125 -14 3 -37 12 -51 19 -14 8 -32 14 -38 14 -7 0 -13 3 -13 8 0 12 -75 92 -87 92 -6 0 -13 4 -15 9 -1 5 -17 2 -33 -6z m-87 -325 c6 -7 12 -38 14 -68 l3 -55 -57 -3 c-54 -3 -58 -2 -72 27 -14 25 -14 30 -1 41 8 7 15 17 15 22 0 16 43 47 66 48 12 0 26 -6 32 -12z m169 -133 c9 -24 -4 -30 -67 -30 -63 0 -76 6 -67 30 5 11 22 15 67 15 45 0 62 -4 67 -15z m-7 -544 c18 -35 12 -98 -12 -121 -35 -33 -65 -23 -101 32 -17 28 -15 45 11 86 19 30 86 32 102 3z"/>
 <path d="M6086 7076 c-34 -35 -68 -59 -101 -72 -27 -10 -56 -23 -63 -29 -38 -29 -82 -78 -82 -92 0 -8 -18 -30 -39 -50 -27 -24 -38 -40 -34 -52 8 -19 45 -61 56 -61 4 0 25 -11 47 -25 43 -27 70 -32 71 -12 2 54 9 81 25 98 43 48 84 48 104 0 6 -15 12 -79 13 -142 l2 -114 -60 -1 c-102 -2 -95 2 -95 -58 0 -49 2 -54 25 -60 13 -3 43 -3 65 0 57 9 70 -5 70 -78 0 -56 -2 -61 -47 -109 -100 -107 -98 -219 6 -286 45 -30 57 -33 124 -33 54 0 78 4 87 15 7 8 18 15 24 15 7 0 26 15 44 33 30 31 32 38 32 103 0 63 -3 76 -29 111 -16 23 -38 47 -48 55 -45 34 -55 100 -23 153 9 17 24 28 31 26 86 -22 119 -5 119 59 0 50 -22 64 -81 51 -23 -5 -47 -7 -55 -4 -19 7 -37 70 -30 106 3 18 10 65 15 106 12 102 41 118 104 54 30 -29 37 -44 37 -75 0 -26 4 -38 14 -38 8 0 18 5 21 10 3 6 14 10 23 10 9 0 35 16 57 35 22 19 46 40 53 45 19 17 15 27 -27 61 -22 17 -45 45 -52 63 -22 51 -55 76 -166 122 -25 9 -54 33 -69 53 -61 82 -96 83 -168 7z m133 -955 c26 -37 27 -65 1 -101 -32 -45 -57 -48 -91 -10 -52 57 -31 140 36 140 26 0 38 -7 54 -29z"/>
 <path d="M2530 7051 c0 -5 7 -14 15 -21 8 -7 15 -24 15 -37 0 -25 4 -36 49 -121 26 -50 18 -75 -32 -98 -18 -8 -50 -25 -72 -39 -22 -13 -47 -24 -56 -25 -9 0 -22 -7 -29 -15 -9 -11 -35 -15 -106 -15 -56 0 -94 -4 -94 -10 0 -6 33 -10 78 -10 71 0 80 -2 108 -27 26 -24 152 -93 169 -93 13 0 115 -52 120 -61 4 -5 28 -9 54 -9 l48 0 12 83 c7 45 17 113 22 151 5 39 15 76 21 83 13 16 99 8 138 -13 14 -7 46 -16 72 -19 26 -3 50 -10 53 -16 4 -5 24 -9 45 -9 43 0 41 -4 55 117 7 68 -12 83 -105 83 -38 0 -77 6 -94 15 -15 8 -42 15 -60 15 -17 0 -43 6 -57 14 -14 7 -48 16 -75 20 -27 3 -67 13 -89 21 -22 8 -56 14 -75 15 -19 0 -44 7 -54 15 -21 16 -76 20 -76 6z m190 -380 c0 -24 -19 -31 -85 -31 -66 0 -85 7 -85 31 0 17 8 19 85 19 77 0 85 -2 85 -19z"/>
 <path d="M5281 7046 c-6 -7 -35 -16 -64 -20 -28 -3 -70 -13 -92 -21 -22 -8 -54 -14 -71 -15 -18 0 -45 -7 -60 -15 -16 -8 -43 -15 -60 -15 -18 0 -45 -7 -60 -15 -18 -9 -58 -15 -104 -15 -97 -1 -110 -10 -110 -82 0 -61 16 -117 33 -119 28 -3 73 4 82 12 6 4 31 11 55 15 24 4 55 13 69 21 14 7 47 13 73 13 54 0 68 -15 68 -74 0 -19 7 -61 15 -93 8 -31 15 -76 15 -99 0 -23 6 -46 13 -52 16 -14 93 -4 108 14 6 8 19 14 29 14 10 0 23 7 30 15 7 8 20 15 29 15 9 0 33 9 54 20 20 11 42 20 47 20 6 0 16 5 23 10 7 6 31 24 55 41 44 32 55 59 23 59 -10 0 -24 7 -31 15 -7 8 -20 15 -30 15 -10 0 -23 7 -30 15 -7 8 -21 15 -31 15 -9 0 -24 7 -33 15 -8 8 -19 15 -24 15 -12 0 -52 44 -52 57 0 5 14 35 30 66 17 31 30 67 30 80 0 13 7 32 15 43 8 10 15 25 15 32 0 16 -45 15 -59 -2z"/>
 <path d="M2896 6687 c-29 -22 -13 -57 27 -57 18 -1 43 -7 57 -15 14 -8 44 -14 68 -15 23 0 59 -7 79 -15 19 -8 59 -15 87 -15 28 0 69 -5 91 -11 22 -6 83 -17 135 -24 52 -8 127 -19 165 -26 87 -14 582 -14 680 0 39 6 108 16 155 22 47 5 100 15 118 21 19 5 70 13 115 18 45 4 95 13 110 19 16 6 43 11 62 11 18 0 46 7 61 15 16 8 42 15 57 15 25 0 28 3 25 27 -4 34 -45 53 -80 36 -13 -7 -48 -14 -78 -18 -30 -3 -59 -10 -65 -15 -6 -5 -42 -14 -81 -19 -38 -5 -87 -14 -109 -20 -22 -6 -57 -11 -78 -11 -21 0 -48 -5 -60 -12 -12 -6 -71 -15 -132 -19 -60 -3 -168 -12 -238 -19 -111 -11 -151 -11 -295 3 -92 9 -196 19 -232 22 -35 3 -69 10 -74 15 -6 6 -33 10 -60 10 -28 0 -69 5 -91 11 -22 6 -69 15 -105 20 -36 5 -74 13 -85 18 -11 6 -49 15 -85 21 -36 6 -78 13 -95 16 -18 3 -38 0 -49 -9z"/>
 <path d="M2874 6523 c-3 -16 -9 -39 -14 -53 -5 -14 -11 -51 -14 -83 -2 -32 -9 -64 -14 -70 -5 -7 -12 -30 -15 -53 -5 -40 -3 -42 33 -58 20 -9 43 -16 51 -16 8 -1 32 -8 54 -16 22 -8 63 -19 90 -24 28 -5 68 -13 90 -19 22 -6 62 -11 88 -11 26 0 64 -7 84 -15 19 -8 65 -15 102 -15 36 -1 84 -7 106 -15 58 -21 783 -21 870 0 33 8 83 15 111 15 28 0 71 7 94 15 23 8 63 15 88 15 25 0 68 6 96 14 28 8 74 20 101 26 157 35 185 49 185 90 0 16 -5 41 -11 57 -7 15 -18 62 -25 103 -27 155 -19 140 -83 140 -31 -1 -67 -7 -81 -15 -14 -8 -46 -14 -71 -15 -25 0 -68 -6 -95 -14 -27 -8 -83 -18 -124 -21 -41 -4 -86 -12 -100 -17 -14 -5 -72 -13 -130 -18 -58 -4 -123 -13 -145 -19 -60 -16 -438 -14 -505 3 -30 7 -99 16 -153 20 -53 3 -105 10 -115 15 -10 5 -54 13 -98 16 -43 4 -96 13 -117 21 -20 8 -59 14 -86 14 -27 0 -68 7 -91 15 -23 8 -67 15 -96 15 -50 0 -54 -2 -60 -27z"/>
 <path d="M2515 6418 c-37 -57 -134 -148 -157 -148 -11 0 -31 13 -46 28 -15 16 -53 46 -85 66 -31 21 -60 42 -63 47 -3 5 -14 9 -25 9 -23 0 -26 -34 -6 -55 14 -13 31 -205 31 -350 0 -99 -14 -206 -30 -232 -25 -40 -18 -52 24 -46 20 3 44 12 53 19 8 8 21 14 27 14 41 0 224 173 261 247 13 26 28 56 33 66 27 56 41 126 48 237 4 69 5 128 3 133 -11 20 -43 3 -68 -35z"/>
 <path d="M5289 6456 c-2 -3 -1 -56 3 -118 7 -110 34 -248 49 -248 5 0 11 -16 15 -35 3 -19 10 -35 14 -35 4 0 12 -12 18 -27 27 -76 212 -222 329 -261 41 -13 49 -1 28 41 -10 19 -20 72 -25 132 -9 130 3 432 18 447 7 7 12 25 12 40 0 21 -5 28 -20 28 -11 0 -20 -4 -20 -8 0 -5 -25 -26 -56 -48 -30 -21 -62 -45 -69 -51 -7 -7 -17 -13 -20 -13 -4 0 -15 -10 -25 -22 -16 -21 -19 -21 -41 -6 -51 33 -159 154 -159 177 0 10 -42 16 -51 7z"/>
 <path d="M5824 6382 c-6 -4 -20 -28 -32 -53 -20 -40 -22 -62 -22 -197 0 -113 4 -162 15 -189 8 -19 15 -50 15 -68 0 -18 7 -38 15 -45 8 -7 15 -21 15 -30 0 -10 17 -33 38 -50 l37 -31 3 27 c2 14 -4 34 -12 43 -9 10 -16 28 -16 42 0 13 -7 33 -15 43 -9 12 -15 42 -15 76 0 31 -7 77 -16 102 -19 57 -15 236 6 285 15 33 5 59 -16 45z"/>
 <path d="M2035 6353 c17 -59 17 -273 1 -337 -9 -34 -16 -80 -16 -102 0 -21 -7 -48 -15 -58 -8 -11 -15 -30 -15 -42 0 -12 -7 -27 -15 -34 -8 -7 -15 -21 -15 -32 0 -15 4 -18 22 -12 24 7 57 42 58 60 0 6 7 17 15 24 8 7 15 27 15 44 0 17 7 44 15 60 12 22 15 68 15 207 0 163 -2 181 -21 213 -26 44 -55 50 -44 9z"/>
 <path d="M2780 6120 c-16 -30 -3 -60 25 -60 13 0 36 -5 52 -12 42 -17 255 -61 408 -83 55 -8 124 -19 154 -25 29 -5 81 -10 115 -10 33 0 83 -7 110 -15 71 -22 520 -21 603 0 31 8 94 15 139 15 44 0 103 7 130 15 27 8 67 15 89 15 23 0 65 6 95 14 30 7 78 17 105 21 28 3 69 13 93 21 23 8 56 14 71 14 16 0 42 7 57 15 16 8 39 15 50 15 30 0 37 26 17 57 -15 22 -21 24 -57 19 -22 -4 -45 -11 -51 -16 -5 -4 -32 -11 -59 -15 -27 -4 -61 -14 -75 -21 -14 -8 -51 -14 -82 -14 -31 0 -70 -7 -85 -15 -16 -8 -54 -15 -84 -15 -30 -1 -66 -7 -80 -15 -15 -9 -54 -14 -100 -15 -41 0 -120 -7 -174 -15 -113 -17 -373 -19 -511 -4 -49 6 -148 13 -220 17 -71 4 -140 13 -152 20 -12 6 -44 12 -72 12 -28 0 -68 6 -88 14 -21 8 -66 17 -101 19 -34 3 -68 10 -75 15 -7 5 -34 13 -60 16 -26 4 -63 14 -82 22 -50 21 -92 18 -105 -6z"/>
 <path d="M2680 5807 c-9 -7 -27 -36 -40 -64 -14 -29 -28 -53 -32 -53 -5 0 -8 -6 -8 -14 0 -7 -9 -25 -20 -39 -11 -14 -20 -31 -21 -39 0 -7 -10 -33 -22 -58 -21 -43 -24 -45 -60 -42 -34 3 -37 2 -37 -23 0 -15 7 -54 15 -87 9 -33 13 -68 10 -78 -3 -10 -24 -30 -46 -46 -48 -33 -48 -58 -1 -62 42 -4 172 -131 172 -168 0 -42 -62 -57 -116 -29 -16 8 -30 11 -32 7 -5 -14 36 -83 62 -103 35 -28 34 -57 -4 -70 -30 -11 -32 -29 -3 -29 39 0 123 -127 123 -185 0 -37 -28 -45 -169 -45 -71 0 -132 -3 -135 -8 -2 -4 -6 -71 -8 -148 -3 -123 -1 -142 15 -158 9 -10 17 -32 17 -51 0 -46 26 -60 70 -39 39 20 101 20 156 0 39 -13 42 -13 73 11 67 52 146 30 204 -57 32 -49 37 -64 37 -116 0 -41 -7 -73 -23 -104 -21 -43 -25 -45 -74 -51 -28 -4 -62 -14 -74 -23 -33 -23 -87 -20 -126 7 -18 12 -33 25 -33 30 0 14 -78 7 -84 -8 -4 -12 -25 -15 -101 -15 -76 0 -97 3 -101 15 -4 9 -19 15 -38 15 -25 -1 -36 -8 -55 -38 -21 -33 -23 -45 -18 -112 9 -119 -7 -265 -36 -345 -37 -98 -36 -110 16 -133 93 -43 135 -65 199 -105 73 -46 138 -104 138 -123 0 -6 7 -14 15 -18 8 -3 15 -10 15 -17 0 -6 13 -28 29 -48 61 -78 71 -115 49 -194 -10 -39 -9 -46 9 -63 43 -41 154 -96 268 -132 130 -42 169 -52 200 -52 19 0 46 -5 62 -11 15 -7 48 -15 73 -19 25 -4 59 -12 75 -18 54 -19 138 -34 235 -42 52 -4 159 -13 238 -20 123 -11 165 -10 305 4 89 9 189 16 222 16 33 0 76 4 95 10 19 5 77 13 130 16 52 3 109 10 126 15 17 5 65 14 105 19 70 9 94 14 199 40 25 6 70 16 100 22 30 6 60 14 65 19 6 4 31 11 55 15 24 4 55 13 69 21 42 21 188 17 234 -7 44 -24 57 -25 57 -6 0 35 -200 165 -255 166 -11 1 -31 7 -45 15 -14 8 -48 14 -77 15 -85 0 -140 32 -127 73 21 65 116 180 165 199 25 10 24 25 -3 39 -45 23 -41 32 60 158 68 85 307 281 342 281 6 0 10 4 10 9 0 5 12 14 28 20 35 15 71 36 85 50 6 6 18 11 26 11 9 0 30 7 46 16 17 8 51 18 78 21 38 5 47 10 47 25 0 18 -7 19 -177 15 -98 -3 -189 -6 -203 -8 -21 -3 -26 1 -28 22 -2 14 4 31 12 39 9 7 16 21 16 32 0 10 6 21 14 24 8 3 17 15 20 28 3 12 19 35 35 52 17 16 31 34 31 41 0 6 3 13 8 15 4 1 27 27 52 57 53 65 146 154 169 162 9 4 25 17 36 29 l20 23 -35 -7 c-133 -26 -170 -30 -182 -18 -9 9 -8 16 5 30 9 10 17 25 17 33 0 9 7 24 15 35 8 10 15 26 15 34 0 8 9 33 20 55 19 39 26 85 14 85 -3 0 -26 -13 -51 -30 -24 -16 -48 -30 -54 -30 -5 0 -9 -4 -9 -9 0 -12 -50 -44 -58 -37 -5 6 47 116 60 126 4 3 12 17 18 30 17 39 37 73 61 103 l21 27 167 2 166 2 -140 5 c-77 4 -146 10 -153 14 -9 6 -9 13 0 30 17 32 90 107 104 107 7 0 17 6 21 14 4 7 15 16 23 19 8 3 -3 6 -26 6 -22 1 -44 -3 -50 -9 -5 -5 -19 -7 -32 -3 -17 4 -20 8 -11 19 6 7 8 23 4 35 -7 21 -11 22 -106 16 -93 -6 -99 -5 -110 15 -14 26 -3 122 17 139 8 6 14 19 14 28 0 9 8 24 18 32 9 9 27 28 39 42 13 15 32 27 43 27 11 0 20 4 20 9 0 10 -76 88 -201 206 -117 111 -154 161 -224 303 -15 28 -35 57 -45 62 -20 11 -121 5 -185 -11 -22 -5 -103 -14 -180 -19 -77 -5 -192 -12 -255 -17 -182 -13 -844 -10 -925 4 -38 7 -173 17 -300 23 -238 10 -434 30 -495 49 -19 6 -53 11 -76 11 -23 0 -61 7 -84 15 -51 18 -80 19 -100 2z m2675 -1157 c4 -6 1 -17 -5 -25 -10 -12 -43 -15 -159 -15 -148 0 -176 6 -164 36 4 11 38 14 163 14 100 0 161 -4 165 -10z m-2275 -1450 c21 -16 42 -30 46 -30 5 0 34 -23 64 -50 30 -28 62 -50 71 -50 17 0 55 -47 46 -56 -7 -7 -167 15 -187 25 -8 5 -33 12 -55 16 -63 11 -105 41 -105 75 0 16 6 33 13 37 7 4 18 20 24 36 16 35 36 34 83 -3z"/>
 <path d="M2369 5792 c-52 -55 -180 -132 -221 -132 -13 -1 -34 -7 -48 -15 -14 -8 -35 -14 -47 -15 -12 0 -37 -6 -55 -14 -18 -8 -55 -19 -83 -24 -27 -6 -79 -18 -115 -27 -36 -9 -87 -22 -115 -29 -27 -6 -60 -17 -72 -24 -12 -6 -28 -12 -37 -12 -13 0 -51 -17 -96 -42 -8 -4 -22 -11 -30 -14 -8 -3 -22 -10 -30 -15 -8 -5 -22 -12 -30 -15 -16 -6 -21 -8 -95 -54 -83 -51 -86 -53 -141 -104 -29 -26 -63 -67 -74 -90 -12 -22 -25 -48 -29 -56 -18 -33 -40 -86 -46 -110 -3 -14 -10 -34 -15 -45 -15 -33 -38 -157 -62 -335 l-13 -95 -82 -3 c-46 -2 -83 -7 -83 -12 0 -5 37 -10 83 -12 l82 -3 7 -90 c12 -169 27 -308 37 -339 5 -17 12 -69 15 -115 6 -90 20 -118 53 -107 15 5 21 22 30 79 13 81 38 190 47 205 9 16 45 2 58 -22 6 -11 14 -23 17 -26 13 -11 51 -70 51 -79 0 -5 3 -11 8 -13 10 -4 52 -65 52 -76 0 -12 54 -62 68 -62 17 0 15 42 -3 76 -8 16 -15 47 -15 68 0 21 -7 73 -15 115 -11 54 -15 121 -13 231 l3 155 28 3 c30 4 38 22 8 22 -33 0 -40 20 -30 95 5 39 14 102 18 141 5 40 14 81 20 92 6 12 11 32 11 46 0 30 62 155 107 216 40 53 178 179 248 225 62 41 226 125 244 125 6 0 11 5 11 10 0 6 5 10 11 10 13 0 103 44 144 70 17 11 37 23 45 27 68 31 194 150 217 204 14 33 -1 39 -28 11z m-1143 -1273 c10 -18 -11 -31 -51 -31 -20 0 -42 5 -47 10 -18 18 2 32 47 32 24 0 47 -5 51 -11z"/>
 <path d="M5476 5778 c30 -58 162 -181 217 -201 9 -3 17 -11 17 -17 0 -5 8 -10 19 -10 10 0 24 -7 31 -15 7 -8 21 -15 31 -15 9 0 24 -7 32 -15 8 -7 26 -17 41 -21 14 -3 26 -10 26 -15 0 -5 5 -9 11 -9 10 0 127 -57 199 -96 44 -24 51 -29 175 -134 81 -68 169 -174 191 -230 3 -8 12 -28 19 -45 17 -40 36 -118 45 -185 11 -80 19 -100 46 -110 29 -11 31 -36 4 -45 -19 -6 -20 -15 -20 -248 -1 -176 -5 -258 -15 -302 -8 -33 -15 -77 -15 -98 0 -21 -7 -51 -15 -68 -26 -50 4 -68 43 -26 12 13 22 29 22 35 0 7 7 15 15 18 8 4 15 10 15 14 0 5 27 49 59 98 81 122 104 130 116 39 4 -28 11 -57 16 -63 5 -6 13 -43 19 -83 12 -85 15 -91 40 -91 27 0 40 30 40 91 0 28 7 88 15 133 30 166 48 355 42 450 -3 63 -2 97 6 105 7 7 65 12 157 13 l145 2 -152 5 c-84 3 -157 11 -162 16 -6 6 -13 37 -16 70 -9 92 -55 262 -87 325 -10 19 -18 41 -18 48 0 7 -7 20 -15 28 -8 9 -15 24 -15 34 0 10 -7 20 -15 24 -8 3 -15 10 -15 15 0 13 -63 76 -84 84 -9 4 -16 11 -16 17 0 5 -5 10 -10 10 -12 0 -73 41 -78 53 -2 4 -9 7 -16 7 -8 0 -25 9 -39 20 -14 11 -32 20 -40 20 -8 0 -20 7 -27 15 -7 8 -21 15 -31 15 -9 0 -24 7 -33 15 -8 8 -23 15 -34 15 -11 0 -25 7 -32 15 -7 8 -21 15 -32 15 -11 0 -29 5 -41 12 -20 11 -56 20 -197 52 -30 7 -68 18 -83 24 -16 7 -40 12 -55 12 -15 1 -38 7 -52 15 -14 8 -38 15 -55 15 -16 0 -41 7 -55 15 -14 8 -37 14 -52 15 -15 0 -29 4 -32 9 -4 5 -27 19 -52 31 -25 13 -67 42 -92 66 -57 53 -80 58 -56 12z m1384 -1128 c13 -9 12 -12 -4 -25 -35 -27 -95 -13 -83 19 7 18 63 22 87 6z"/>
 <path d="M2458 5696 c-10 -7 -18 -18 -18 -25 0 -6 -7 -11 -15 -11 -8 0 -15 -5 -15 -11 0 -22 -130 -149 -153 -149 -3 0 -21 -13 -39 -30 -18 -16 -36 -30 -40 -30 -4 0 -26 -12 -50 -27 -61 -40 -76 -48 -138 -80 -30 -15 -57 -31 -60 -35 -3 -4 -17 -12 -30 -18 -50 -22 -80 -41 -80 -51 0 -5 -6 -9 -14 -9 -8 0 -21 -6 -28 -12 -19 -18 -76 -58 -82 -58 -9 0 -142 -138 -162 -168 -31 -45 -39 -64 -62 -137 -29 -97 -55 -233 -50 -275 l3 -35 66 -3 c88 -4 94 3 102 118 7 89 25 166 53 222 8 14 14 35 14 46 0 11 7 25 15 32 8 7 15 19 15 27 0 8 40 54 89 102 63 62 109 98 157 122 135 67 463 338 487 402 3 9 11 17 17 17 5 0 10 6 10 14 0 8 7 22 16 30 8 9 14 22 12 30 -2 12 -6 12 -20 2z"/>
 <path d="M5408 5678 c7 -7 12 -19 12 -27 0 -31 183 -223 265 -279 22 -15 49 -35 60 -45 33 -31 157 -111 208 -136 26 -13 63 -37 82 -55 18 -17 45 -40 59 -50 14 -10 26 -25 26 -32 0 -8 4 -14 9 -14 4 0 21 -19 37 -42 16 -24 32 -45 35 -48 4 -3 9 -16 13 -30 4 -14 11 -34 16 -45 22 -55 50 -155 50 -184 l0 -32 83 3 c66 2 82 6 80 18 -12 76 -46 197 -64 230 -5 8 -15 29 -23 45 -39 81 -225 240 -368 315 -27 14 -48 28 -48 32 0 5 -6 8 -14 8 -8 0 -21 6 -28 13 -18 16 -94 57 -107 57 -14 0 -161 101 -161 111 0 5 -7 9 -15 9 -15 0 -134 114 -170 162 -11 15 -27 27 -34 28 -12 0 -12 -3 -3 -12z"/>
 <path d="M6295 4588 c13 -45 18 -550 5 -608 -16 -74 -23 -140 -16 -140 18 0 84 41 107 67 41 44 52 132 56 436 l4 267 -82 0 c-80 0 -81 0 -74 -22z"/>
 <path d="M1420 4328 c0 -129 12 -257 36 -375 5 -27 47 -67 96 -92 45 -22 49 -15 35 54 -5 28 -12 166 -14 308 l-4 257 -74 0 -75 0 0 -152z"/>
 <path d="M5840 3995 c-19 -7 -45 -14 -58 -14 -37 -1 -95 -40 -132 -90 -19 -25 -42 -53 -50 -62 -28 -30 -40 -57 -28 -61 18 -6 132 12 143 23 5 5 21 9 36 9 15 0 32 7 39 15 6 8 21 17 33 21 12 4 26 12 33 18 6 6 22 18 34 26 12 8 33 23 45 33 13 9 28 17 34 17 6 0 11 4 11 10 0 5 15 16 33 24 17 8 41 21 52 30 19 14 12 15 -85 15 -63 0 -119 -6 -140 -14z"/>
 <path d="M5710 3470 c-42 -10 -121 -39 -135 -49 -5 -5 -22 -11 -37 -15 -16 -3 -28 -11 -28 -16 0 -6 -6 -10 -13 -10 -7 0 -36 -16 -66 -35 -29 -19 -56 -35 -61 -35 -17 0 -142 -129 -135 -141 9 -14 76 -5 125 18 19 8 51 23 70 32 19 8 45 22 56 31 12 8 32 22 44 30 12 8 28 20 35 27 29 28 198 153 207 153 5 0 6 5 3 10 -7 11 -15 11 -65 0z"/>
 <path d="M5600 3222 c-30 -9 -61 -22 -68 -29 -7 -7 -18 -13 -23 -13 -5 0 -17 -8 -27 -18 -10 -10 -29 -26 -43 -35 -42 -30 -8 -39 128 -33 153 8 159 10 133 43 -25 32 -25 38 1 74 l20 29 -33 -1 c-18 -1 -58 -8 -88 -17z"/>
 <path d="M5250 3011 c-8 -4 -37 -19 -65 -32 -76 -37 -140 -113 -102 -123 6 -2 27 -8 45 -14 45 -15 136 5 227 49 66 32 75 34 174 33 62 0 96 3 83 7 -12 5 -22 13 -22 19 0 5 -9 10 -20 10 -12 0 -33 6 -48 14 -15 7 -46 17 -69 21 -24 4 -45 11 -49 16 -6 11 -133 11 -154 0z"/>
 <path d="M5387 2781 c-8 -33 46 -69 158 -105 28 -9 60 -16 73 -16 19 0 22 4 16 22 -9 30 -73 86 -106 93 -15 4 -30 11 -33 16 -4 5 -28 9 -54 9 -40 0 -50 -4 -54 -19z"/>
 <path d="M2557 2508 c-17 -42 -8 -58 52 -89 25 -13 48 -27 51 -30 5 -6 47 -18 146 -43 28 -8 60 -18 72 -25 11 -6 31 -11 44 -11 13 0 33 -7 44 -15 10 -8 39 -15 64 -15 25 0 58 -7 74 -15 15 -8 45 -15 66 -15 21 0 60 -6 86 -14 48 -14 123 -27 274 -46 41 -5 109 -14 150 -20 48 -7 92 -8 122 -2 29 6 98 5 182 -1 132 -10 218 -5 396 23 147 24 189 31 232 41 26 6 71 15 100 19 86 15 161 31 193 42 17 5 47 13 67 18 21 4 43 12 50 17 7 6 34 14 60 17 26 4 50 11 53 17 4 5 14 9 23 9 9 1 35 9 57 20 22 11 44 19 48 20 9 0 28 15 57 43 18 18 18 20 -2 54 -17 27 -25 33 -42 28 -12 -3 -37 -10 -56 -15 -32 -8 -81 -28 -122 -50 -9 -5 -36 -13 -60 -16 -24 -4 -55 -13 -70 -20 -15 -8 -38 -14 -51 -14 -14 0 -41 -7 -60 -15 -20 -8 -50 -15 -67 -15 -17 0 -40 -5 -50 -10 -26 -14 -130 -33 -430 -80 -73 -11 -615 -11 -710 0 -168 20 -362 54 -431 76 -26 8 -62 14 -80 14 -19 1 -45 7 -59 15 -14 8 -41 14 -61 15 -19 0 -44 7 -55 15 -10 8 -32 15 -49 15 -16 0 -48 9 -70 20 -22 11 -45 19 -52 20 -6 0 -24 6 -40 14 -36 18 -95 36 -116 36 -10 0 -23 -14 -30 -32z"/>
 <path d="M2393 2293 c-10 -21 -16 -48 -15 -60 2 -13 -4 -37 -12 -54 -9 -17 -18 -46 -22 -65 -3 -18 -12 -38 -20 -45 -8 -6 -14 -22 -14 -34 0 -12 -7 -28 -15 -35 -8 -7 -15 -28 -15 -47 0 -21 -6 -36 -15 -39 -8 -4 -15 -18 -15 -33 0 -14 -8 -44 -18 -66 -10 -22 -26 -67 -36 -100 -19 -61 -37 -107 -62 -158 -8 -16 -14 -36 -14 -45 0 -9 -7 -30 -15 -46 -8 -15 -15 -36 -15 -45 0 -9 -7 -29 -15 -44 -8 -15 -17 -45 -21 -65 -4 -20 -13 -46 -20 -57 -20 -28 -17 -53 6 -60 11 -3 20 -11 20 -16 0 -5 15 -9 33 -9 17 0 45 -7 61 -15 16 -8 45 -18 65 -21 33 -5 38 -2 54 26 9 17 17 40 17 50 0 32 11 50 31 50 21 0 22 -4 19 -70 -1 -25 -9 -53 -18 -63 -14 -16 -14 -19 -2 -27 32 -21 70 0 70 38 0 15 6 37 14 48 8 11 16 31 18 44 3 23 8 25 56 28 l52 3 0 -44 c0 -24 -7 -66 -15 -93 -10 -33 -15 -94 -15 -190 l0 -141 42 -7 c23 -4 47 -11 53 -15 5 -5 34 -11 64 -15 74 -10 93 -21 89 -54 -3 -26 -5 -27 -62 -24 -33 1 -66 8 -73 14 -8 6 -42 12 -76 12 l-62 1 0 -35 c0 -35 0 -35 53 -41 29 -4 65 -12 80 -17 15 -6 47 -13 71 -15 24 -3 49 -10 55 -17 6 -6 13 -41 16 -78 5 -65 6 -67 38 -76 18 -5 36 -6 40 -2 4 4 9 35 12 69 l5 62 38 3 c21 2 45 -2 52 -8 8 -7 50 -14 94 -17 70 -5 81 -4 87 11 12 31 -31 63 -94 69 -63 6 -161 32 -175 46 -14 14 31 54 51 45 9 -3 42 -9 72 -11 30 -2 69 -12 87 -21 42 -21 63 -5 63 49 0 21 6 58 14 81 8 24 16 64 20 90 3 26 10 56 15 65 5 10 14 45 19 78 21 122 35 180 44 192 6 7 9 14 7 15 -2 0 -71 4 -154 7 -127 5 -150 8 -153 22 -4 24 26 29 179 29 144 0 150 2 164 50 14 50 40 100 55 105 16 5 116 -7 190 -24 25 -6 69 -10 98 -11 36 0 54 -4 58 -14 8 -20 -12 -53 -36 -61 -24 -8 -84 -65 -93 -89 -4 -9 -11 -16 -17 -16 -5 0 -10 -6 -10 -12 0 -7 -7 -26 -16 -43 -20 -36 -46 -284 -32 -302 5 -7 24 -16 41 -22 40 -12 479 -20 699 -12 222 8 212 -2 189 181 -14 105 -24 146 -44 184 -30 55 -88 114 -131 134 -22 10 -27 18 -24 40 3 26 5 27 83 33 44 3 96 10 115 16 19 6 60 14 92 17 56 6 56 6 77 -29 11 -20 24 -48 27 -62 4 -15 13 -38 20 -52 8 -14 14 -33 14 -42 0 -9 7 -30 15 -45 8 -16 15 -45 15 -64 0 -20 5 -41 11 -47 5 -5 13 -37 16 -69 3 -32 12 -71 19 -86 8 -15 14 -42 14 -61 0 -19 7 -51 15 -70 8 -20 15 -56 15 -79 0 -67 9 -88 37 -88 13 0 34 6 46 14 24 15 156 30 181 20 27 -10 19 -43 -11 -49 -16 -4 -36 -11 -47 -16 -10 -6 -44 -13 -75 -15 -75 -7 -121 -30 -121 -62 l0 -24 95 4 c55 2 100 9 107 16 17 17 65 15 72 -4 3 -9 6 -37 6 -64 0 -61 16 -76 59 -54 31 15 32 18 30 70 -3 72 17 93 97 103 33 5 72 13 87 20 16 6 42 11 58 11 29 0 30 2 27 38 -3 32 -7 37 -31 40 -16 2 -54 -5 -85 -14 -31 -10 -79 -19 -107 -19 -43 0 -50 3 -53 21 -4 30 33 51 104 59 32 4 64 11 69 15 6 5 26 12 45 17 l35 9 -1 145 c-1 96 -7 164 -18 204 -9 32 -16 73 -16 91 0 17 -7 45 -15 60 -8 16 -15 45 -15 64 0 19 -7 44 -15 54 -8 11 -15 31 -15 45 0 14 -7 35 -15 45 -8 11 -15 28 -15 37 0 10 -6 22 -14 26 -8 4 -17 20 -21 35 -6 24 -3 29 35 47 22 11 55 23 73 27 18 3 41 13 52 20 11 8 30 14 43 14 12 0 34 7 48 17 23 15 26 15 41 0 15 -15 15 -18 -1 -36 -10 -11 -21 -42 -23 -68 -3 -26 -11 -67 -19 -91 -19 -59 -19 -280 0 -324 8 -18 17 -49 20 -68 6 -38 35 -63 61 -54 18 7 20 25 3 42 -43 43 -39 437 6 504 10 15 15 31 12 37 -10 16 5 41 25 41 15 0 19 -7 19 -38 0 -21 -7 -47 -15 -58 -11 -15 -14 -58 -15 -212 0 -176 2 -196 21 -234 20 -40 22 -40 63 -35 23 3 55 13 71 21 17 9 38 16 48 16 55 0 85 61 52 104 -8 11 -15 29 -15 40 0 12 -7 34 -15 50 -8 15 -15 36 -15 45 0 9 -6 28 -14 43 -8 15 -17 42 -21 60 -4 18 -14 42 -21 53 -8 11 -14 28 -14 38 0 10 -7 25 -15 33 -8 9 -15 29 -15 46 0 16 -6 42 -14 56 -8 15 -24 56 -36 92 -12 36 -28 77 -36 92 -8 14 -14 34 -14 45 0 10 -7 27 -15 37 -8 11 -15 32 -15 47 0 14 -7 32 -15 39 -8 7 -15 25 -15 40 0 15 -7 33 -15 40 -9 8 -15 30 -15 57 0 50 -32 103 -62 103 -21 0 -24 -23 -4 -39 7 -6 16 -25 20 -42 3 -17 13 -37 21 -45 8 -9 15 -29 15 -45 0 -17 7 -37 15 -45 8 -9 15 -30 15 -48 0 -19 7 -39 15 -46 8 -7 15 -24 15 -39 0 -15 9 -44 19 -65 20 -38 19 -97 -2 -124 -13 -17 -37 3 -37 32 -1 11 -7 32 -15 46 -8 14 -15 41 -15 60 0 19 -7 44 -15 54 -8 11 -15 29 -15 40 0 12 -7 34 -15 50 -8 15 -15 40 -15 55 0 15 -7 36 -15 47 -8 10 -15 30 -15 43 0 14 -10 40 -22 58 -20 29 -27 33 -53 28 -16 -3 -47 -14 -68 -25 -21 -11 -45 -20 -55 -20 -9 0 -26 -7 -36 -15 -11 -8 -27 -15 -37 -15 -9 0 -30 -7 -45 -15 -16 -8 -39 -15 -52 -15 -13 0 -33 -6 -45 -12 -32 -19 -197 -60 -312 -79 -33 -5 -90 -16 -126 -24 -37 -8 -86 -15 -109 -15 -22 0 -64 -7 -92 -17 -44 -14 -95 -15 -440 -11 -263 4 -394 10 -401 17 -6 6 -30 11 -54 11 -23 0 -78 6 -120 14 -43 8 -105 19 -138 25 -110 18 -263 56 -313 77 -18 8 -43 14 -55 14 -12 0 -31 7 -41 15 -11 8 -32 15 -46 15 -14 0 -35 7 -46 15 -10 8 -27 15 -37 15 -9 0 -43 14 -74 30 -31 17 -63 28 -72 25 -19 -6 -51 -59 -51 -83 0 -9 -6 -29 -14 -43 -7 -14 -16 -43 -20 -64 -4 -20 -11 -45 -16 -54 -14 -27 -41 -113 -50 -161 -18 -94 -57 -149 -74 -104 -11 28 -6 85 8 112 8 15 18 44 21 65 3 20 10 37 15 37 6 0 10 13 10 28 0 16 7 37 15 48 8 10 15 31 15 45 0 15 9 38 20 52 11 14 20 36 20 50 0 13 7 30 15 37 22 18 19 50 -5 50 -12 0 -25 -13 -37 -37z m768 -405 c6 -24 17 -55 25 -70 8 -14 14 -36 14 -48 0 -12 4 -29 10 -39 7 -14 3 -24 -18 -44 -54 -51 -110 -39 -147 34 -14 27 -13 32 15 84 16 30 30 61 30 67 0 13 40 58 51 58 5 0 13 -19 20 -42z m1606 14 c6 -4 15 -21 19 -37 4 -16 13 -36 21 -43 7 -7 13 -22 13 -32 0 -10 5 -22 10 -25 20 -12 9 -43 -27 -84 l-38 -42 -37 15 c-53 23 -68 48 -57 99 5 23 16 56 24 72 8 17 17 42 20 58 5 27 27 35 52 19z m-811 -72 c4 -16 13 -35 20 -41 8 -6 14 -18 14 -27 0 -8 6 -23 14 -31 8 -9 17 -35 21 -58 6 -39 4 -45 -26 -73 -47 -42 -61 -44 -108 -13 -36 24 -41 31 -41 66 0 21 6 51 14 65 7 15 26 53 40 85 30 64 44 71 52 27z m-1540 -105 c10 -8 31 -15 45 -15 14 0 34 -7 45 -15 10 -8 27 -15 37 -15 10 0 41 -10 68 -21 42 -18 49 -25 49 -50 0 -15 -4 -30 -9 -33 -12 -8 -48 -83 -57 -120 -4 -16 -13 -41 -20 -55 -8 -14 -14 -42 -14 -62 0 -49 -17 -61 -82 -57 l-53 3 -5 135 c-3 74 -11 148 -18 163 -6 16 -12 42 -12 59 0 17 -7 39 -16 49 -18 20 -13 49 9 49 7 0 22 -7 33 -15z m-106 -50 c0 -12 5 -26 12 -33 16 -16 28 -107 35 -244 4 -102 3 -107 -17 -113 -12 -4 -26 -3 -30 2 -5 4 -12 79 -15 166 -4 106 -11 166 -21 185 -17 33 -17 47 -3 74 11 21 12 21 25 3 8 -10 14 -28 14 -40z m513 -80 c20 -8 49 -15 65 -15 49 0 68 -43 37 -84 -8 -11 -15 -29 -15 -41 0 -26 -18 -45 -42 -45 -24 0 -98 47 -98 62 0 6 -6 19 -13 27 -18 23 -39 89 -32 101 9 15 57 12 98 -5z m2333 4 c3 -6 1 -23 -6 -37 -7 -15 -20 -43 -29 -62 -48 -104 -161 -124 -161 -29 0 12 -8 27 -17 34 -25 18 -3 63 34 70 15 3 48 12 73 19 56 18 97 19 106 5z m-1958 -106 c25 -35 11 -47 -112 -97 -87 -36 -114 -8 -74 76 l23 50 75 -6 c54 -4 79 -11 88 -23z m1661 -16 c12 -24 21 -55 21 -70 0 -24 -4 -27 -35 -27 -19 0 -43 4 -53 10 -9 5 -43 21 -74 35 -32 15 -58 30 -58 33 0 13 15 27 40 39 40 18 52 21 97 22 39 1 42 -1 62 -42z m-2654 -190 c10 -8 15 -19 11 -25 -9 -15 -106 -16 -106 -2 0 6 0 13 -1 18 0 7 34 19 62 21 8 1 23 -5 34 -12z"/>
 <path d="M1740 1270 c0 -6 45 -10 115 -10 70 0 115 4 115 10 0 6 -45 10 -115 10 -70 0 -115 -4 -115 -10z"/>
 <path d="M1976 1086 c-25 -46 -18 -69 22 -77 19 -4 39 -12 45 -18 6 -6 20 -11 32 -11 11 0 33 -7 49 -15 15 -8 36 -15 45 -15 9 0 27 -6 41 -13 41 -21 72 -27 92 -16 41 22 6 73 -83 120 -86 44 -97 49 -121 49 -12 0 -32 7 -42 15 -33 25 -60 18 -80 -19z"/>
 <path d="M5824 1105 c-10 -8 -28 -15 -40 -15 -11 0 -29 -7 -40 -15 -10 -8 -28 -15 -39 -15 -20 0 -136 -78 -150 -100 -4 -6 1 -20 11 -31 20 -23 60 -20 111 6 15 8 33 15 39 15 7 0 25 7 40 15 16 8 38 15 50 15 11 0 25 5 31 11 6 6 26 14 45 18 29 6 33 10 30 36 -5 38 -30 75 -51 75 -10 0 -26 -7 -37 -15z"/>
 <path d="M1917 908 c-9 -18 -19 -49 -22 -68 -4 -19 -11 -40 -16 -46 -12 -15 -24 -104 -14 -104 10 0 74 39 97 58 16 14 16 17 1 42 -9 15 -13 35 -10 44 8 20 66 21 93 1 10 -8 31 -15 46 -15 25 0 26 1 15 35 -12 41 -59 70 -130 80 -44 7 -46 6 -60 -27z"/>
 <path d="M5890 929 c-54 -7 -110 -35 -116 -58 -3 -9 -10 -24 -15 -33 -8 -16 -4 -18 25 -18 18 0 39 7 46 15 15 18 74 20 88 2 12 -14 5 -57 -9 -57 -5 0 -9 -6 -9 -12 0 -13 94 -78 111 -78 10 0 1 65 -16 110 -7 19 -18 54 -24 76 -14 54 -26 61 -81 53z"/>
 <path d="M3512 778 c-7 -7 -7 -17 0 -34 10 -21 18 -24 62 -24 28 0 67 -5 86 -11 19 -6 130 -13 245 -15 251 -7 427 13 457 50 10 12 18 23 18 26 0 3 -179 5 -397 5 -219 0 -412 3 -429 7 -18 4 -35 3 -42 -4z"/>
 <path d="M3593 629 c-7 -7 -13 -20 -13 -29 0 -9 -7 -25 -15 -36 -8 -10 -15 -22 -15 -26 0 -14 75 -8 97 7 22 16 103 12 287 -11 27 -3 58 -2 70 4 36 18 198 23 216 8 8 -8 34 -17 58 -21 38 -6 42 -5 42 14 0 12 -4 21 -8 21 -5 0 -13 17 -18 38 l-9 37 -75 0 c-41 -1 -115 -3 -165 -5 -49 -1 -169 0 -265 4 -138 6 -178 5 -187 -5z"/>
 <path d="M4070 518 c-24 -12 -23 -12 18 -16 26 -2 45 -9 49 -18 6 -15 93 -21 93 -5 0 12 -65 42 -103 47 -18 2 -43 -2 -57 -8z"/>
 <path d="M3663 495 l-28 -24 35 0 c19 0 44 6 54 14 11 8 35 15 53 15 18 0 33 5 33 10 0 6 -26 10 -59 10 -49 0 -65 -4 -88 -25z"/>
 <path d="M3753 453 c-7 -2 -13 -20 -13 -38 0 -32 3 -35 38 -40 84 -15 89 -21 93 -116 4 -83 20 -109 68 -109 47 0 57 17 66 114 7 75 9 78 39 91 17 8 43 16 57 19 30 6 40 31 28 64 -8 22 -11 22 -186 21 -98 0 -184 -3 -190 -6z"/>
 </g>

</svg>