<!DOCTYPE svg PUBLIC "-//W3C//DTD SVG 20010904//EN" "http://www.w3.org/TR/2001/REC-SVG-20010904/DTD/svg10.dtd">
<svg version="1.0" xmlns="http://www.w3.org/2000/svg" width="800px" height="800px" viewBox="0 0 8000 8000" preserveAspectRatio="xMidYMid meet">
<g id="layer101" fill="#000000" stroke="none">
 <path d="M5143 6850 c-66 -15 -72 -31 -39 -115 37 -98 154 -419 167 -460 26 -83 48 -110 115 -139 36 -16 52 -17 130 -7 49 6 193 13 319 17 136 4 235 11 243 17 27 21 -17 186 -58 219 -24 20 -79 19 -245 -1 -44 -5 -122 -10 -172 -10 l-93 -1 -16 38 c-8 20 -27 73 -41 117 -14 44 -32 94 -39 112 -8 17 -14 38 -14 47 0 8 -6 30 -14 48 -8 18 -20 48 -27 66 -20 55 -33 62 -112 61 -40 -1 -87 -5 -104 -9z"/>
 <path d="M2583 6830 c-13 -5 -23 -16 -23 -24 0 -9 -6 -30 -14 -48 -8 -18 -21 -49 -30 -70 -9 -20 -16 -42 -16 -50 0 -26 -37 -120 -51 -129 -8 -5 -58 -9 -111 -9 -53 0 -99 -4 -102 -9 -10 -15 22 -21 109 -21 46 0 86 -4 90 -9 6 -11 -22 -90 -40 -109 -10 -11 -32 -11 -121 -2 -60 6 -170 14 -244 17 -158 6 -151 10 -187 -99 -29 -88 -29 -114 -1 -129 14 -7 136 -15 346 -20 321 -9 324 -9 367 12 47 24 66 58 107 199 5 19 14 40 18 45 4 6 13 26 19 47 13 38 37 56 55 38 10 -10 7 -20 -49 -180 -8 -25 -20 -54 -25 -65 -11 -23 -37 -95 -51 -142 -13 -45 -33 -48 -212 -35 -84 6 -255 13 -382 14 l-230 3 -15 -30 c-22 -45 -24 -168 -5 -281 9 -54 20 -105 25 -114 4 -8 10 -32 14 -52 6 -32 21 -70 67 -173 5 -11 17 -32 27 -47 9 -14 30 -48 46 -75 114 -189 328 -381 544 -488 99 -49 115 -46 123 25 8 73 24 120 72 210 58 109 68 123 201 258 163 167 297 252 398 252 24 1 54 7 68 15 39 22 327 21 375 -2 45 -22 69 -10 73 38 7 72 -53 396 -79 424 -5 5 -9 15 -9 23 0 35 -64 159 -146 282 -106 159 -85 144 -220 150 -76 3 -119 9 -121 16 -3 8 24 13 86 15 94 4 115 11 89 32 -168 134 -300 217 -365 231 -18 4 -35 12 -38 17 -4 5 -32 9 -65 9 -46 0 -59 -4 -65 -17 -4 -10 -22 -58 -40 -108 -58 -158 -61 -163 -90 -157 -19 3 -24 9 -19 21 3 9 11 30 16 46 6 17 16 44 23 60 63 154 66 174 24 185 -47 13 -194 20 -216 10z m-33 -339 c0 -12 -29 -23 -41 -15 -18 10 -9 24 16 24 14 0 25 -4 25 -9z"/>
 <path d="M4900 6802 c-156 -54 -331 -168 -445 -291 -119 -127 -238 -329 -293 -496 -61 -187 -74 -322 -55 -585 8 -107 16 -201 18 -207 9 -26 56 -14 93 25 128 132 370 221 485 179 23 -8 58 -19 77 -23 19 -3 41 -10 50 -15 8 -4 33 -16 55 -26 23 -10 90 -67 160 -138 133 -132 182 -190 215 -250 11 -22 25 -47 30 -55 5 -8 18 -37 31 -63 12 -27 28 -51 36 -54 8 -3 32 4 53 16 21 11 48 27 61 34 80 43 214 143 279 207 148 148 292 378 336 534 48 172 65 384 35 454 l-14 33 -156 -4 c-86 -2 -257 -10 -381 -17 -124 -7 -237 -10 -251 -7 -21 5 -31 20 -50 69 -13 35 -27 74 -30 88 -4 14 -17 50 -29 80 -12 30 -26 71 -32 90 -5 19 -13 40 -18 45 -4 6 -18 44 -30 85 -13 41 -28 80 -33 87 -5 7 -13 27 -17 45 -14 57 -49 140 -66 159 -20 22 -52 22 -114 1z"/>
 <path d="M820 6052 c-119 -9 -191 -167 -125 -272 40 -63 78 -76 240 -85 122 -6 143 -10 163 -28 26 -24 29 -59 6 -81 -29 -29 -87 -35 -475 -45 -309 -8 -317 -8 -355 -32 -49 -30 -84 -66 -96 -101 -6 -16 -14 -28 -19 -28 -5 0 -9 -31 -9 -70 0 -38 4 -70 9 -70 5 0 13 -10 17 -22 11 -36 52 -85 90 -107 30 -18 62 -22 236 -30 111 -5 205 -8 209 -5 4 2 14 1 22 -2 18 -7 12 -32 -12 -54 -10 -8 -51 -55 -91 -105 -41 -49 -77 -92 -80 -95 -3 -3 -39 -45 -80 -95 -41 -49 -85 -101 -97 -115 -99 -115 -164 -199 -169 -218 -9 -31 20 -72 51 -72 34 0 98 64 300 299 44 51 92 107 108 125 15 17 82 95 150 173 l122 143 60 -3 c38 -1 60 -6 60 -14 0 -6 -103 -132 -230 -278 -126 -147 -238 -277 -248 -289 -28 -33 -67 -77 -106 -122 -20 -22 -48 -54 -64 -72 -26 -31 -30 -32 -106 -32 -48 0 -83 -4 -87 -11 -11 -18 17 -29 75 -29 l53 0 -6 -35 c-7 -34 -1 -44 107 -188 63 -84 123 -161 134 -172 10 -11 36 -42 57 -70 117 -154 579 -630 623 -641 32 -9 50 10 59 62 6 40 5 41 -42 75 -27 19 -78 52 -114 74 -110 66 -237 174 -246 211 -3 12 -1 38 4 58 10 36 9 38 -60 119 -39 45 -82 95 -97 112 -14 16 -65 81 -113 145 -48 63 -91 120 -95 125 -4 6 -17 21 -27 33 -19 22 -19 23 2 52 22 29 22 29 3 40 -11 5 -40 10 -65 10 -46 0 -61 12 -30 24 9 3 48 6 87 7 l72 0 77 92 c43 51 88 104 100 118 13 15 57 69 100 120 42 52 88 108 103 124 14 17 54 64 88 105 34 41 78 93 98 115 21 22 52 58 69 80 17 22 41 44 53 48 12 5 159 7 327 5 304 -2 305 -2 343 21 41 25 49 58 21 85 -17 18 -69 22 -79 6 -3 -5 -27 -19 -53 -30 -45 -20 -56 -21 -232 -13 -102 4 -200 7 -217 7 -22 -1 -33 3 -33 13 0 12 70 104 107 142 8 7 22 25 31 38 16 25 17 25 156 23 188 -4 178 -5 174 27 -4 32 -26 41 -111 42 -32 1 -72 8 -88 17 l-30 15 37 42 c43 48 71 71 98 80 12 5 16 13 11 25 -3 9 -11 42 -17 72 -13 63 -23 80 -49 80 -23 0 -33 -10 -129 -129 -41 -51 -115 -141 -164 -200 -48 -58 -107 -128 -129 -156 -96 -115 -109 -125 -170 -125 -60 0 -78 16 -49 42 32 28 140 151 357 403 44 52 121 140 171 197 104 118 128 152 121 171 -3 7 1 21 9 32 21 28 17 54 -8 60 -26 5 -799 12 -868 7z m503 -69 c197 -7 209 -10 170 -51 -10 -10 -44 -49 -77 -87 -85 -102 -131 -156 -164 -193 l-29 -33 -6 48 c-4 36 -12 53 -34 70 -26 21 -37 23 -174 23 -80 0 -160 5 -177 11 -38 13 -62 48 -62 91 1 48 22 78 71 105 39 21 57 23 169 23 69 0 209 -3 313 -7z m-233 -520 c0 -5 -15 -24 -33 -44 -17 -20 -46 -54 -64 -75 -17 -22 -39 -49 -50 -60 -10 -12 -40 -47 -67 -79 l-49 -57 -221 4 c-231 4 -257 8 -302 53 -11 11 -28 36 -37 56 -15 33 -15 42 -3 84 26 85 57 104 181 115 111 10 645 12 645 3z"/>
 <path d="M6334 6018 c-37 -17 -48 -49 -31 -89 11 -27 93 -138 117 -159 3 -3 24 -27 45 -55 22 -27 42 -52 45 -55 3 -3 25 -30 50 -60 25 -30 47 -57 50 -60 3 -3 33 -39 65 -80 33 -41 62 -77 65 -80 6 -6 174 -208 240 -290 25 -30 47 -57 50 -60 9 -9 105 -125 145 -175 22 -27 42 -52 45 -55 3 -3 27 -32 54 -65 26 -33 63 -78 81 -100 19 -22 93 -111 165 -198 73 -87 143 -164 157 -170 22 -10 27 -8 44 13 28 35 39 66 39 108 -1 43 24 10 -350 452 -146 172 -332 392 -414 489 -160 189 -207 245 -301 355 -34 39 -79 93 -100 120 -22 28 -49 60 -60 72 -11 12 -40 47 -65 77 -60 73 -90 88 -136 65z"/>
 <path d="M6205 5793 c-9 -47 -28 -127 -32 -138 -2 -5 20 -37 49 -71 29 -33 73 -84 98 -114 25 -29 50 -58 55 -64 6 -6 30 -36 55 -66 25 -30 47 -57 50 -60 3 -3 25 -30 50 -60 25 -30 47 -57 50 -60 3 -3 24 -27 45 -55 22 -27 42 -52 45 -55 6 -6 52 -60 102 -121 20 -24 76 -91 124 -149 156 -186 196 -234 229 -275 122 -150 295 -354 306 -360 21 -14 4 -48 -82 -161 -50 -65 -96 -122 -101 -125 -27 -17 9 -29 85 -29 l82 0 75 99 c41 54 82 109 90 121 8 12 23 31 33 42 17 22 21 32 17 57 -1 8 -71 98 -157 200 -197 237 -181 217 -233 281 -25 30 -47 57 -50 60 -3 3 -24 27 -45 55 -22 27 -44 55 -50 61 -17 19 -128 152 -246 294 -61 74 -126 153 -145 175 -60 73 -216 259 -257 308 -23 27 -53 64 -67 82 -95 121 -126 155 -147 155 -17 0 -24 -7 -28 -27z"/>
 <path d="M3435 5454 c-38 -7 -86 -13 -106 -13 -80 -2 -225 -66 -329 -146 -60 -46 -151 -158 -195 -240 -14 -26 -29 -53 -33 -59 -54 -71 -65 -300 -21 -416 34 -90 186 -272 251 -300 13 -6 41 -21 64 -33 86 -49 250 -83 338 -71 161 23 302 119 359 245 31 70 57 158 57 195 -1 49 -37 170 -65 216 -48 78 -144 149 -220 163 -45 8 -65 21 -65 42 0 8 17 49 37 91 47 96 164 220 237 251 69 30 60 50 -34 72 -87 21 -176 22 -275 3z m-58 -846 c49 -45 17 -138 -47 -138 -62 0 -82 73 -34 129 31 37 49 39 81 9z"/>
 <path d="M4525 5314 c-22 -3 -53 -11 -70 -18 -77 -35 -168 -81 -179 -90 -6 -6 -33 -28 -59 -50 -71 -56 -128 -138 -184 -261 -21 -47 -26 -246 -6 -286 6 -13 21 -46 33 -72 29 -64 112 -145 190 -186 76 -41 207 -67 253 -51 17 5 39 10 51 10 62 0 206 104 233 167 20 50 47 43 119 -31 35 -35 70 -79 79 -97 9 -19 24 -50 35 -69 20 -37 34 -80 44 -142 12 -67 57 -59 95 19 35 70 35 71 58 148 57 190 68 344 33 479 -34 133 -89 225 -213 356 -79 82 -164 140 -205 140 -11 0 -34 7 -52 16 -33 17 -172 26 -255 18z m-81 -485 c14 -17 26 -39 26 -48 0 -27 -38 -71 -61 -71 -59 0 -98 75 -65 125 24 36 67 34 100 -6z"/>
 <path d="M3684 5242 c-27 -22 -61 -62 -76 -89 -32 -58 -31 -59 47 -122 56 -47 92 -53 99 -18 18 93 30 178 31 217 0 41 -2 45 -26 48 -18 2 -41 -9 -75 -36z"/>
 <path d="M3833 4854 c-3 -9 -2 -19 3 -23 5 -3 17 -18 27 -33 10 -16 24 -28 33 -28 18 0 32 35 26 66 -6 33 -77 48 -89 18z"/>
 <path d="M2055 4420 c-16 -4 -54 -8 -84 -9 -56 -1 -116 -18 -276 -77 -178 -65 -194 -80 -91 -86 29 -2 51 -8 54 -15 6 -20 -142 -18 -158 2 -20 24 -190 20 -190 -5 0 -4 21 -11 48 -15 26 -4 50 -9 55 -12 4 -2 -27 -32 -70 -66 -120 -97 -253 -269 -238 -309 3 -8 44 -41 91 -73 47 -33 127 -89 177 -124 51 -35 119 -83 152 -106 33 -23 87 -61 120 -84 33 -24 72 -50 87 -59 32 -19 36 -52 14 -104 -8 -18 -24 -67 -36 -108 -12 -41 -26 -86 -30 -100 -4 -14 -18 -59 -30 -100 -12 -41 -28 -91 -35 -110 -7 -19 -23 -69 -35 -110 -12 -41 -29 -94 -38 -118 -14 -41 -14 -43 8 -67 13 -14 31 -25 40 -25 8 0 24 -6 35 -13 11 -7 54 -21 95 -31 63 -15 106 -17 265 -13 210 5 246 11 420 74 255 93 482 274 641 510 67 100 205 330 236 393 36 75 86 188 108 245 12 33 26 69 31 80 17 45 29 89 29 110 0 41 -176 174 -251 190 -30 7 -65 21 -109 46 -8 5 -25 13 -38 19 -12 5 -28 14 -35 20 -43 37 -59 48 -89 62 -65 31 -109 48 -124 48 -9 0 -28 6 -42 14 -48 25 -97 43 -132 51 -19 4 -39 11 -45 15 -5 4 -30 12 -55 18 -25 6 -63 15 -85 20 -113 28 -321 40 -390 22z"/>
 <path d="M5500 4355 c-30 -7 -67 -14 -82 -14 -15 -1 -45 -8 -67 -17 -32 -13 -42 -24 -56 -62 -37 -98 -68 -154 -116 -206 -71 -78 -78 -78 -144 -10 -43 44 -55 64 -55 88 0 45 -25 76 -60 76 -16 0 -31 -4 -34 -9 -3 -5 -18 -12 -33 -15 -16 -4 -43 -13 -60 -21 -18 -8 -48 -21 -65 -29 -66 -28 -183 -88 -199 -103 -33 -28 -28 -57 20 -129 l46 -69 159 -5 c115 -4 161 -8 164 -17 3 -10 -29 -13 -137 -13 -163 0 -164 -1 -138 -84 27 -85 36 -169 27 -237 -7 -50 -6 -70 6 -98 70 -161 174 -368 219 -435 39 -59 214 -244 270 -284 17 -12 50 -37 75 -56 51 -38 310 -166 337 -166 10 -1 29 -7 43 -15 14 -8 37 -14 52 -15 15 0 53 -7 85 -15 93 -24 305 -20 399 7 42 12 79 29 84 38 5 9 -4 79 -21 170 -16 85 -35 196 -44 245 -13 76 -37 211 -62 342 -7 40 5 56 66 86 25 13 84 43 131 69 188 101 250 134 375 198 149 78 151 81 110 174 -14 32 -23 61 -20 65 4 3 72 7 151 9 106 3 144 7 141 15 -2 8 -55 14 -170 17 l-166 5 -24 32 c-57 78 -138 160 -212 217 -95 72 -96 73 -205 126 -47 23 -93 45 -102 51 -144 78 -533 131 -688 94z"/>
 <path d="M3845 4129 c-70 -28 -146 -88 -197 -156 -71 -93 -83 -131 -83 -253 0 -105 0 -106 40 -175 26 -46 57 -82 90 -107 27 -21 52 -43 54 -49 5 -17 -109 -121 -159 -145 -104 -49 -129 -57 -199 -65 -45 -5 -81 -15 -90 -24 -15 -14 -14 -18 9 -36 34 -27 132 -78 205 -107 33 -13 75 -30 93 -38 18 -8 45 -14 61 -14 16 0 48 -7 71 -15 60 -21 236 -20 304 1 211 68 410 209 465 329 12 28 31 68 41 90 11 22 24 72 30 111 9 61 8 83 -9 160 -35 160 -80 245 -185 348 -129 128 -198 159 -366 162 -105 2 -133 -1 -175 -17z m269 -304 c33 -30 33 -49 0 -92 -32 -42 -83 -47 -108 -8 -23 35 -20 59 13 94 35 37 59 39 95 6z"/>
 <path d="M7547 3824 c-18 -19 0 -24 84 -24 68 0 90 3 87 13 -5 13 -158 23 -171 11z"/>
 <path d="M7142 3729 c-37 -40 -96 -101 -131 -137 l-63 -66 5 -54 c11 -106 49 -110 135 -14 33 37 86 94 117 127 32 33 82 91 113 128 65 80 62 87 -41 87 l-68 0 -67 -71z"/>
 <path d="M1045 3713 c-14 -15 -25 -35 -25 -43 0 -8 -7 -28 -15 -44 -8 -16 -18 -45 -21 -66 -6 -35 -4 -38 47 -76 30 -21 59 -41 65 -44 6 -3 77 -49 157 -103 103 -69 147 -104 147 -118 0 -10 -16 -65 -35 -121 -19 -57 -40 -119 -46 -138 -7 -19 -18 -51 -25 -70 -36 -98 -47 -150 -34 -164 21 -26 166 -106 191 -106 29 0 49 17 49 41 0 10 13 57 29 106 16 48 38 122 51 163 12 41 28 93 35 115 83 243 80 286 -18 350 -29 18 -83 56 -122 84 -38 28 -99 70 -135 95 -36 24 -105 72 -153 105 -49 34 -95 61 -102 61 -8 0 -26 -12 -40 -27z"/>
 <path d="M6725 3495 c-44 -24 -134 -72 -200 -106 -66 -33 -136 -70 -155 -81 -19 -11 -56 -32 -82 -45 -27 -14 -62 -43 -79 -64 -36 -46 -37 -34 20 -344 19 -103 40 -217 52 -285 21 -124 31 -126 207 -41 53 25 67 46 54 77 -7 13 -12 40 -12 59 0 19 -6 54 -14 77 -12 37 -23 89 -62 299 -7 39 12 51 279 179 48 23 90 46 93 51 3 5 13 9 22 9 23 1 62 34 62 53 0 41 -42 183 -57 195 -26 18 -41 14 -128 -33z"/>
 <path d="M6607 3077 c-47 -23 -69 -39 -73 -55 -10 -37 6 -45 67 -34 33 6 244 8 544 5 465 -6 491 -7 515 -25 38 -30 90 -109 90 -137 -1 -47 -36 -108 -78 -135 l-40 -25 -349 -3 c-340 -3 -349 -4 -391 -26 -64 -34 -102 -93 -102 -158 0 -45 4 -55 29 -77 27 -22 39 -24 178 -29 160 -6 198 -16 229 -62 12 -20 13 -32 5 -64 -11 -41 -25 -56 -78 -85 -27 -15 -62 -17 -295 -16 -144 0 -384 5 -533 10 -148 6 -362 13 -475 17 -201 7 -206 8 -231 32 -41 40 -44 59 -9 72 22 7 30 16 30 34 0 19 -6 24 -37 29 -21 3 -50 13 -65 21 -47 25 -78 20 -215 -42 -17 -8 -37 -14 -45 -14 -7 0 -22 -7 -32 -15 -11 -8 -29 -15 -41 -15 -12 0 -25 -4 -30 -9 -10 -10 -72 -34 -135 -53 -52 -15 -60 -26 -60 -78 0 -72 6 -80 54 -80 23 0 46 4 52 9 5 4 45 20 89 34 141 46 167 56 248 91 51 22 53 21 98 -23 21 -22 56 -45 76 -51 64 -20 329 -28 995 -32 629 -3 637 -3 665 18 38 28 76 108 77 166 1 37 -5 53 -30 84 -17 21 -50 49 -74 61 -38 20 -57 23 -166 23 -117 0 -124 1 -153 26 -36 30 -39 52 -12 85 18 22 28 24 242 36 123 6 290 12 370 12 81 1 161 4 178 7 35 7 131 88 131 110 0 8 7 17 15 20 12 5 15 24 15 85 0 43 -4 79 -9 79 -5 0 -13 10 -17 23 -11 35 -52 84 -92 109 -36 21 -47 22 -387 29 -192 4 -409 7 -482 8 -122 1 -132 2 -138 21 -9 28 -38 25 -118 -13z"/>
 <path d="M4335 2995 c-73 -58 -83 -65 -156 -103 -167 -88 -389 -93 -594 -14 -68 27 -129 52 -147 62 -21 12 -88 13 -88 2 0 -4 -20 -32 -45 -62 -39 -47 -113 -153 -167 -240 -21 -35 -82 -184 -101 -250 -38 -128 -48 -193 -54 -337 l-6 -153 -131 0 c-139 0 -179 -6 -173 -24 2 -7 57 -13 158 -16 l154 -5 6 -35 c36 -192 109 -378 192 -485 90 -116 96 -115 266 13 151 113 271 201 350 256 31 21 58 42 61 45 16 19 72 51 90 51 12 0 41 -15 64 -32 24 -18 54 -40 66 -48 12 -8 71 -51 131 -95 60 -44 150 -109 200 -145 50 -36 108 -80 129 -97 66 -57 100 -44 186 72 40 52 100 180 131 275 23 72 53 212 47 221 -3 5 -68 9 -144 9 -76 0 -145 3 -154 6 -39 15 5 24 118 24 68 0 138 3 155 6 l31 7 0 131 c0 154 -31 328 -76 433 -8 17 -14 35 -14 40 0 29 -109 216 -178 306 -149 195 -185 235 -212 236 -16 0 -51 -20 -95 -54z"/>
 <path d="M2286 2431 c-3 -5 -27 -14 -52 -20 -45 -11 -46 -13 -29 -31 9 -10 34 -27 54 -38 20 -10 63 -33 96 -51 129 -71 283 -141 310 -141 8 0 23 -4 33 -10 9 -5 37 -17 62 -26 96 -33 112 -36 137 -25 20 9 23 18 23 65 0 47 -4 57 -26 75 -15 12 -36 21 -48 21 -12 0 -31 7 -42 15 -10 8 -26 15 -34 15 -8 0 -28 7 -44 15 -15 8 -33 15 -38 15 -8 0 -44 15 -138 57 -19 9 -51 22 -70 30 -19 8 -48 21 -63 29 -31 15 -123 19 -131 5z"/>
 <path d="M3859 1567 c-25 -18 -83 -59 -128 -92 -45 -33 -128 -94 -184 -135 -56 -41 -121 -88 -145 -104 -62 -42 -70 -62 -35 -89 15 -12 48 -39 73 -60 25 -20 50 -42 57 -47 15 -12 70 -13 75 -2 3 8 202 167 251 202 12 8 42 30 66 48 24 17 53 32 63 32 18 0 75 -35 89 -53 3 -5 29 -25 57 -45 63 -46 177 -134 217 -167 16 -14 38 -25 48 -25 10 0 44 20 75 45 132 104 134 108 72 152 -23 15 -99 71 -170 123 -71 52 -166 122 -211 155 -147 107 -191 117 -270 62z"/>
 </g>

</svg>