<!DOCTYPE svg PUBLIC "-//W3C//DTD SVG 20010904//EN" "http://www.w3.org/TR/2001/REC-SVG-20010904/DTD/svg10.dtd">
<svg version="1.0" xmlns="http://www.w3.org/2000/svg" width="800px" height="800px" viewBox="0 0 8000 8000" preserveAspectRatio="xMidYMid meet">
<g id="layer101" fill="#000000" stroke="none">
 <path d="M3973 7317 c-11 -12 -43 -56 -71 -97 -109 -161 -230 -251 -461 -345 -61 -25 -60 -26 59 -56 131 -33 195 -23 307 47 69 44 98 70 140 127 19 26 41 47 48 47 8 0 34 -26 59 -57 55 -70 95 -102 177 -144 80 -41 127 -46 247 -24 124 23 137 32 80 58 -24 10 -74 33 -113 50 -153 68 -276 173 -370 316 -25 37 -53 75 -63 84 -17 16 -20 16 -39 -6z"/>
 <path d="M2945 6793 c-16 -2 -50 -8 -75 -15 -41 -10 -88 -23 -345 -95 l-90 -25 -100 23 c-88 21 -124 24 -300 24 -172 0 -214 -4 -300 -23 -322 -74 -448 -102 -512 -112 -40 -7 -73 -16 -73 -20 0 -12 87 -73 146 -103 152 -77 425 -133 588 -121 l89 7 -6 -29 c-28 -147 -30 -176 -19 -260 12 -93 44 -173 95 -241 30 -39 57 -56 57 -34 0 13 97 153 194 283 122 161 146 203 211 382 23 63 63 107 149 165 68 46 183 105 236 121 48 15 194 70 198 75 6 5 -95 4 -143 -2z"/>
 <path d="M4891 6797 c3 -4 52 -23 110 -43 215 -74 412 -189 459 -267 11 -18 27 -57 36 -87 34 -118 108 -241 249 -416 45 -55 97 -128 115 -162 18 -34 39 -62 47 -62 22 0 67 53 93 107 13 27 30 89 38 140 14 77 14 106 4 180 -6 48 -14 98 -18 111 -6 22 -5 22 82 22 176 0 352 30 488 82 111 43 269 139 253 154 -2 3 -33 9 -68 14 -35 5 -136 27 -224 49 -232 57 -346 79 -491 92 -133 11 -148 10 -431 -33 -83 -12 -101 -9 -298 50 -71 22 -152 45 -180 51 -54 13 -274 28 -264 18z"/>
 <path d="M3660 6599 c-316 -87 -592 -223 -850 -418 -80 -60 -233 -215 -297 -299 -184 -244 -318 -578 -382 -952 -31 -180 -62 -443 -59 -497 l3 -48 108 -3 c128 -3 121 -12 131 153 47 738 307 1235 815 1559 138 88 373 203 506 247 39 13 76 27 83 32 9 7 12 40 10 121 -3 122 -4 123 -68 105z"/>
 <path d="M4267 6603 c-4 -3 -7 -55 -7 -113 0 -118 0 -118 65 -139 195 -62 483 -211 655 -339 106 -79 274 -251 350 -359 200 -287 302 -603 340 -1058 18 -211 18 -212 42 -219 27 -6 207 5 213 14 5 9 -33 354 -54 490 -54 345 -164 659 -313 894 -205 324 -585 609 -1000 750 -120 40 -268 86 -280 86 -3 0 -8 -3 -11 -7z"/>
 <path d="M1709 6191 c-20 -4 -65 -22 -100 -41 l-63 -33 -93 12 c-122 15 -280 13 -373 -3 -41 -8 -154 -43 -251 -79 -163 -61 -267 -91 -344 -100 l-30 -3 60 -58 c71 -68 163 -115 285 -146 144 -36 286 -37 477 -4 30 6 32 4 41 -32 6 -22 13 -73 16 -114 12 -167 66 -307 156 -404 58 -62 151 -116 201 -116 l26 0 -21 43 c-18 36 -21 58 -20 152 1 61 9 155 19 210 9 55 19 156 22 225 5 118 4 129 -22 195 -42 110 -42 109 2 141 47 35 58 48 84 97 33 63 18 75 -72 58z"/>
 <path d="M6186 6191 c-12 -18 41 -102 96 -151 l50 -46 -26 -51 c-46 -91 -52 -167 -26 -334 13 -82 25 -209 27 -296 4 -136 3 -156 -16 -197 l-20 -46 38 0 c49 0 141 54 202 119 48 52 90 128 114 207 16 56 45 241 45 290 0 18 3 35 8 38 4 2 79 -1 167 -6 304 -21 504 32 645 171 l55 54 -45 9 c-117 22 -190 43 -279 80 -254 106 -406 129 -682 104 -96 -9 -97 -8 -165 24 -74 35 -176 52 -188 31z"/>
 <path d="M3524 6091 c-249 -121 -400 -227 -569 -402 -233 -240 -366 -524 -414 -879 -6 -41 -16 -151 -22 -243 -10 -131 -9 -171 0 -180 15 -15 1152 -29 1162 -15 3 5 11 271 18 591 7 320 16 717 20 882 4 165 5 306 3 313 -7 22 -34 13 -198 -67z"/>
 <path d="M4270 6083 c-1 -241 34 -1681 41 -1701 l9 -23 562 7 c329 4 571 11 582 16 17 9 18 19 12 157 -13 252 -42 435 -97 595 -116 336 -327 603 -634 802 -97 62 -434 234 -459 234 -13 0 -16 -15 -16 -87z"/>
 <path d="M6780 5576 c0 -59 16 -100 67 -175 23 -35 43 -67 43 -73 0 -5 -20 -30 -44 -56 -98 -106 -130 -200 -156 -457 -18 -179 -45 -287 -87 -350 -7 -11 -13 -23 -13 -27 0 -16 67 -7 142 18 219 73 355 246 404 517 3 20 10 39 14 42 4 3 27 -17 51 -43 97 -105 204 -168 326 -192 123 -24 383 6 383 44 0 7 -21 32 -46 56 -25 25 -112 119 -192 210 -166 186 -190 211 -247 249 -63 44 -102 53 -229 57 -69 2 -124 8 -132 15 -8 6 -34 40 -59 75 -25 34 -57 71 -73 82 -24 17 -121 52 -143 52 -5 0 -9 -20 -9 -44z"/>
 <path d="M1122 5591 c-64 -22 -80 -36 -147 -127 l-53 -71 -108 0 c-90 1 -119 -3 -169 -23 -108 -42 -192 -116 -307 -270 -31 -41 -99 -118 -152 -170 -53 -52 -96 -98 -96 -103 0 -20 146 -56 232 -57 166 -1 314 59 431 174 41 40 79 71 84 67 6 -3 24 -55 42 -116 18 -60 48 -139 67 -175 63 -121 181 -217 324 -266 64 -21 130 -31 130 -20 0 3 -9 20 -20 39 -38 64 -59 148 -75 295 -18 174 -29 235 -57 322 -23 73 -79 164 -115 187 -49 32 -48 46 13 138 48 72 58 94 62 140 5 64 2 65 -86 36z"/>
 <path d="M7212 4797 c-21 -25 -26 -137 -9 -198 9 -30 19 -77 23 -106 l6 -52 -66 -30 c-118 -53 -223 -176 -346 -406 -49 -93 -146 -231 -166 -239 -26 -10 -14 -34 26 -50 137 -55 350 -32 485 52 22 14 74 60 115 103 44 46 80 75 86 71 6 -4 28 -41 50 -81 51 -99 130 -203 195 -257 78 -64 212 -105 225 -69 3 8 -1 58 -10 112 -9 54 -25 152 -36 218 -35 220 -41 248 -61 309 -29 85 -72 157 -122 203 -46 42 -138 83 -186 83 -40 0 -50 17 -73 117 -20 91 -45 144 -95 201 -25 29 -31 31 -41 19z"/>
 <path d="M732 4768 c-33 -36 -80 -147 -91 -216 -11 -72 -24 -92 -56 -92 -64 0 -178 -59 -233 -119 -59 -67 -114 -217 -132 -363 -20 -166 -32 -247 -46 -313 -28 -130 -28 -132 -8 -139 27 -8 116 17 168 48 61 35 135 120 191 218 72 126 94 158 107 158 6 0 48 -38 92 -84 98 -101 121 -118 211 -147 58 -19 92 -23 195 -24 109 0 131 3 174 22 l48 23 -48 53 c-27 29 -74 98 -104 153 -83 152 -224 357 -276 403 -25 22 -71 50 -102 61 -31 12 -60 27 -64 33 -8 13 -8 15 22 142 20 84 21 145 3 191 -8 20 -27 17 -51 -8z"/>
 <path d="M7309 3759 c-33 -33 -59 -102 -79 -212 -25 -140 -49 -231 -64 -253 -12 -16 -19 -17 -85 -4 -64 12 -80 11 -144 -4 -149 -35 -255 -125 -377 -321 -50 -80 -101 -146 -152 -197 -51 -52 -73 -80 -65 -85 7 -4 57 -9 112 -11 182 -7 319 40 581 201 34 20 66 37 72 37 14 0 22 -26 22 -75 0 -60 26 -157 65 -240 38 -82 94 -161 104 -149 4 5 13 29 20 54 7 25 38 99 70 165 68 141 76 163 90 233 21 103 8 226 -31 289 -10 17 -41 48 -68 67 -59 43 -59 39 -25 212 30 153 31 215 5 272 -10 23 -21 42 -25 42 -3 0 -14 -9 -26 -21z"/>
 <path d="M633 3738 c-25 -46 -21 -144 11 -301 29 -140 27 -156 -23 -182 -90 -46 -133 -166 -112 -312 14 -94 31 -143 101 -288 32 -67 64 -140 71 -163 7 -23 15 -42 19 -42 12 0 55 60 83 116 26 52 55 156 77 277 7 37 16 69 20 72 4 2 43 -18 86 -46 232 -148 419 -210 592 -195 103 8 112 16 65 51 -63 47 -101 94 -176 215 -94 149 -194 255 -290 306 l-72 39 -128 0 c-105 0 -130 3 -137 15 -13 23 -58 206 -70 287 -11 71 -60 172 -87 180 -6 3 -20 -11 -30 -29z"/>
 <path d="M2013 3752 c-8 -5 -21 -99 -37 -272 -14 -146 -30 -317 -36 -380 -6 -63 -15 -162 -20 -220 -6 -58 -15 -153 -21 -211 -17 -159 10 -252 95 -327 50 -43 84 -50 308 -60 109 -4 200 -11 203 -14 3 -2 0 -30 -6 -60 -14 -67 -28 -43 161 -266 131 -154 151 -173 203 -196 72 -32 87 -32 225 -1 61 14 119 25 128 25 16 0 16 -1 1 -18 -9 -10 -82 -70 -162 -133 -86 -68 -143 -120 -142 -129 2 -13 30 -15 192 -12 105 2 226 7 269 10 l79 7 44 105 c24 57 41 110 39 116 -4 11 405 304 446 319 8 3 39 -11 69 -32 30 -20 92 -63 139 -96 47 -32 122 -84 167 -115 46 -31 83 -64 83 -72 0 -28 83 -219 98 -225 23 -8 498 -29 516 -22 9 4 16 12 16 19 -1 7 -54 55 -119 106 -65 52 -138 112 -162 134 l-44 39 45 -6 c25 -3 80 -15 124 -25 101 -25 129 -25 199 3 54 21 67 34 218 212 158 186 161 190 156 230 -2 22 -8 49 -12 61 -6 18 -2 22 32 27 21 4 115 7 209 7 103 0 185 5 205 12 86 29 166 134 175 230 3 29 1 103 -5 163 -5 61 -19 211 -30 335 -12 124 -28 299 -36 390 -9 91 -18 199 -22 240 -9 114 -4 110 -140 110 l-116 0 6 -102 c7 -102 17 -239 59 -783 12 -154 21 -297 21 -317 -1 -47 -30 -106 -65 -132 -32 -23 -151 -35 -361 -35 l-128 -1 -113 80 c-63 44 -120 80 -127 80 -7 0 -30 -12 -50 -26 -21 -14 -42 -24 -47 -23 -9 4 -93 75 -162 136 l-35 32 20 36 19 37 -39 32 c-21 17 -93 72 -161 121 -67 50 -219 162 -338 250 -120 88 -226 166 -236 174 -21 14 -2 27 -445 -300 -283 -208 -365 -272 -365 -282 0 -7 7 -21 15 -31 8 -11 15 -25 15 -32 0 -13 -182 -174 -197 -174 -5 0 -24 11 -43 25 -19 14 -40 25 -47 25 -8 0 -65 -36 -127 -80 l-114 -80 -148 1 c-223 1 -309 11 -340 40 -52 48 -57 72 -51 209 7 121 11 177 42 590 33 435 38 510 31 517 -10 11 -209 15 -223 5z m2235 -893 c136 -94 253 -178 260 -187 6 -9 12 -38 12 -65 0 -48 1 -50 85 -129 56 -54 88 -92 96 -116 42 -132 146 -237 257 -263 31 -7 33 -6 28 14 -57 193 -55 223 18 215 32 -4 63 -20 122 -64 79 -59 94 -72 94 -86 0 -6 -136 -162 -205 -237 -15 -15 -32 -12 -350 54 -93 20 -212 44 -262 54 -106 21 -110 24 -254 142 -109 89 -147 107 -192 90 -14 -5 -72 -48 -129 -94 -156 -126 -129 -115 -413 -172 -38 -8 -148 -30 -243 -49 -95 -20 -179 -36 -186 -36 -16 0 -226 234 -226 252 0 13 36 43 139 117 53 37 114 43 131 12 11 -22 -1 -98 -26 -164 -18 -48 -18 -47 9 -47 90 1 219 124 263 252 11 33 37 67 99 128 84 81 85 83 85 131 0 34 6 55 18 67 10 10 110 81 222 159 280 192 282 193 292 193 5 0 120 -77 256 -171z"/>
 <path d="M5090 3750 c-206 -5 -466 -11 -577 -15 l-203 -7 0 -199 0 -199 33 -34 c17 -19 147 -121 287 -228 140 -107 311 -237 380 -289 69 -53 165 -126 215 -164 l89 -68 146 7 c90 5 150 12 157 19 12 12 7 105 -27 502 -5 66 -14 183 -20 260 -17 247 -31 390 -39 405 -10 19 4 19 -441 10z"/>
 <path d="M2456 3733 c-5 -17 -16 -141 -36 -413 -11 -154 -28 -376 -44 -580 -7 -85 -9 -160 -4 -166 4 -6 66 -14 148 -18 118 -5 145 -4 171 10 17 8 144 102 283 208 396 303 556 425 627 477 37 27 69 59 73 71 9 34 7 381 -2 395 -8 13 -637 33 -1039 33 -155 0 -172 -2 -177 -17z"/>
 <path d="M930 2708 c0 -49 17 -114 52 -208 25 -64 26 -90 6 -90 -6 0 -27 -12 -46 -26 -149 -114 -25 -466 276 -783 8 -8 17 -10 21 -5 21 24 35 141 36 301 1 95 4 175 7 179 4 3 57 -9 120 -27 158 -45 240 -59 338 -59 129 0 273 42 348 101 26 20 22 24 -30 33 -111 20 -240 78 -387 175 -146 96 -249 126 -396 115 -97 -8 -92 -12 -160 139 -50 112 -74 141 -146 178 l-39 19 0 -42z"/>
 <path d="M6988 2712 c-50 -32 -62 -47 -90 -107 -18 -38 -46 -97 -63 -130 l-30 -60 -130 0 c-123 -1 -134 -3 -202 -32 -39 -17 -120 -62 -180 -100 -138 -89 -230 -130 -361 -163 -24 -6 -42 -16 -40 -22 9 -25 110 -69 223 -98 107 -27 338 -2 510 56 42 14 79 23 82 20 3 -3 5 -68 4 -144 -3 -167 24 -349 49 -340 20 7 146 160 206 249 72 109 115 204 139 314 28 124 4 194 -85 250 l-38 24 34 88 c35 87 58 233 38 233 -5 0 -35 -17 -66 -38z"/>
 <path d="M1380 1942 c0 -61 52 -202 96 -259 62 -82 180 -146 316 -173 76 -15 290 -15 318 0 20 11 20 12 -17 37 -44 30 -64 52 -139 150 -122 160 -255 227 -496 248 -53 5 -78 4 -78 -3z"/>
 <path d="M6410 1929 c-172 -31 -261 -86 -369 -228 -58 -75 -129 -148 -166 -169 -29 -16 -14 -23 67 -32 102 -12 256 4 356 36 168 55 280 188 307 367 l7 47 -48 -1 c-27 -1 -96 -10 -154 -20z"/>
 <path d="M3588 1365 c-6 -7 -246 -96 -275 -102 -12 -3 -24 -11 -26 -18 -5 -11 686 -585 703 -585 11 0 704 568 708 580 2 5 -2 12 -10 14 -13 5 -269 99 -298 110 -9 4 -92 -40 -200 -104 -102 -60 -192 -110 -200 -110 -7 0 -98 50 -200 110 -192 113 -193 114 -202 105z"/>
 </g>

</svg>