<!DOCTYPE svg PUBLIC "-//W3C//DTD SVG 20010904//EN" "http://www.w3.org/TR/2001/REC-SVG-20010904/DTD/svg10.dtd">
<svg version="1.0" xmlns="http://www.w3.org/2000/svg" width="800px" height="800px" viewBox="0 0 8000 8000" preserveAspectRatio="xMidYMid meet">
<g id="layer101" fill="#000000" stroke="none">
 <path d="M4010 7697 c-8 -8 -82 -54 -165 -102 -82 -49 -183 -108 -222 -132 -40 -23 -75 -43 -78 -43 -3 0 -18 -9 -33 -19 -15 -11 -171 -103 -347 -206 -176 -103 -358 -210 -405 -237 -47 -28 -101 -60 -120 -71 -19 -10 -66 -38 -105 -61 l-70 -41 -177 -5 c-105 -3 -181 -9 -188 -16 -7 -7 -9 -107 -8 -305 l3 -294 1960 0 1960 0 3 294 c1 192 -1 298 -8 305 -6 6 -90 12 -203 14 -147 3 -199 8 -222 20 -16 8 -142 83 -280 165 -137 83 -259 155 -270 161 -11 6 -94 56 -185 110 -91 55 -177 106 -192 115 -15 9 -96 57 -180 107 -84 50 -213 128 -287 172 -74 45 -142 82 -151 82 -8 0 -22 -6 -30 -13z"/>
 <path d="M1644 6318 c-55 -57 -173 -182 -264 -278 -191 -202 -325 -344 -460 -485 -53 -55 -130 -136 -171 -180 -41 -44 -107 -114 -146 -155 -140 -148 -143 -157 -48 -122 48 18 297 119 363 148 77 34 107 46 297 124 110 45 216 88 235 97 19 8 44 19 55 23 11 5 80 33 153 64 74 31 135 56 137 56 2 0 102 41 222 91 120 50 297 124 393 164 220 91 231 96 224 106 -3 5 -198 9 -435 9 l-429 0 0 204 c0 195 -3 236 -19 236 -4 0 -52 -46 -107 -102z"/>
 <path d="M6298 6418 c0 -2 -4 -100 -7 -218 l-6 -215 -420 -3 c-231 -1 -427 -5 -435 -8 -18 -7 23 -29 133 -73 42 -17 97 -40 124 -52 77 -34 77 -34 323 -134 290 -119 462 -191 517 -216 24 -10 49 -19 56 -19 7 0 17 -4 23 -8 5 -5 41 -21 79 -37 39 -15 84 -34 100 -41 17 -7 82 -34 145 -59 63 -26 129 -53 145 -60 50 -23 438 -182 463 -189 24 -8 29 5 10 26 -7 7 -33 36 -57 63 -24 28 -87 95 -140 150 -53 56 -123 130 -156 165 -81 87 -522 557 -606 645 -248 262 -282 296 -291 283z"/>
 <path d="M3773 5993 c-7 -5 -14 -60 -18 -146 l-8 -137 -26 -6 c-79 -18 -144 -36 -210 -59 -41 -14 -78 -25 -82 -25 -7 0 -31 39 -89 145 -58 106 -65 110 -138 69 -26 -15 -87 -49 -137 -76 -174 -97 -225 -129 -225 -142 0 -7 29 -65 65 -128 36 -64 65 -121 65 -127 0 -7 -42 -53 -93 -104 -51 -51 -109 -111 -129 -135 l-37 -42 -76 45 c-42 25 -78 45 -80 45 -2 0 -26 13 -54 29 -39 23 -52 27 -64 18 -13 -10 -115 -184 -205 -347 -40 -74 -36 -74 -150 -10 -56 31 -105 60 -109 64 -7 7 5 32 51 111 142 242 222 392 214 400 -5 6 -204 -74 -633 -252 -71 -30 -179 -74 -240 -99 -60 -24 -123 -51 -140 -59 -16 -8 -97 -42 -180 -76 -82 -33 -163 -67 -180 -74 -16 -7 -60 -25 -97 -39 -36 -15 -74 -33 -84 -41 -20 -14 -41 16 467 -655 254 -335 261 -344 276 -362 13 -15 28 -11 186 54 95 38 178 76 186 83 10 10 15 65 20 231 l6 217 125 1 c69 1 130 4 137 9 6 4 19 42 28 85 21 98 83 299 94 306 4 3 59 -24 122 -59 62 -36 117 -65 121 -65 13 0 9 -28 -16 -114 -13 -44 -30 -110 -38 -146 l-15 -65 -152 -5 c-120 -4 -154 -8 -161 -20 -13 -20 -13 -431 0 -464 l10 -26 139 0 c77 0 146 -3 155 -6 9 -3 16 -16 16 -28 0 -11 14 -70 31 -131 48 -175 52 -154 -38 -204 -43 -25 -104 -60 -135 -78 l-58 -34 40 -77 c83 -161 199 -357 212 -360 8 -1 72 30 143 70 l128 72 46 -55 c25 -30 83 -90 128 -134 46 -44 83 -85 83 -91 0 -6 -32 -66 -70 -134 -39 -68 -67 -127 -63 -131 4 -4 58 -35 118 -69 61 -34 139 -79 175 -100 103 -59 128 -70 144 -64 9 3 45 59 81 124 64 115 67 118 93 110 15 -5 69 -22 120 -39 52 -16 112 -33 134 -36 21 -4 41 -12 43 -18 2 -7 7 -69 10 -139 l7 -128 248 0 248 0 7 108 c3 59 7 118 8 131 2 23 9 26 74 37 39 6 115 24 168 39 53 15 97 26 99 24 2 -2 29 -51 61 -107 32 -57 64 -106 71 -109 7 -3 37 8 66 24 145 80 364 205 371 212 5 5 -5 31 -21 58 -43 72 -92 161 -92 166 0 2 40 39 88 81 48 42 112 105 142 141 30 36 58 65 62 65 6 0 122 -64 176 -97 23 -14 23 -14 -44 -91 -68 -77 -124 -131 -221 -211 -29 -23 -53 -48 -53 -54 0 -6 29 -61 65 -122 36 -62 65 -119 65 -128 0 -9 -9 -19 -20 -22 -41 -13 -52 -46 -44 -139 4 -48 10 -89 14 -91 12 -7 20 3 256 315 l109 145 3 144 c2 79 1 153 -2 165 -3 12 -25 31 -51 45 -25 13 -41 27 -36 31 13 7 212 353 238 412 11 25 9 28 -25 49 -64 38 -106 62 -134 76 -15 8 -30 18 -33 22 -2 5 9 48 25 96 17 49 37 122 45 164 9 41 21 81 27 88 7 9 42 13 114 13 l104 0 11 27 c12 33 8 457 -4 470 -5 4 -59 10 -120 13 l-112 5 -22 100 c-12 55 -33 133 -47 174 -20 58 -23 77 -14 83 7 4 42 25 78 45 36 20 77 45 93 55 l27 20 -29 51 c-16 29 -41 75 -56 102 -63 113 -80 143 -118 208 -21 37 -46 67 -54 67 -15 0 -147 -68 -187 -96 -18 -12 -29 -4 -125 95 -58 59 -126 123 -150 142 l-44 35 57 107 c32 59 56 113 53 120 -4 10 -134 87 -359 211 -73 40 -78 38 -136 -66 -77 -141 -64 -132 -153 -103 -42 13 -116 32 -166 41 l-90 17 -7 131 c-4 72 -9 133 -12 136 -9 8 -468 11 -481 3z m137 -821 l25 -87 103 0 c77 -1 106 3 115 14 7 7 21 46 33 85 13 48 25 70 35 69 30 -3 264 -66 272 -73 4 -3 0 -38 -9 -77 -10 -39 -15 -77 -11 -85 5 -15 167 -108 186 -108 6 0 33 23 62 50 29 28 57 50 63 50 14 0 206 -189 206 -203 0 -5 -20 -32 -45 -58 -25 -26 -45 -53 -45 -58 0 -12 91 -166 118 -201 l20 -24 65 15 c71 17 87 12 87 -25 0 -12 9 -52 20 -91 43 -153 44 -156 30 -165 -7 -5 -32 -11 -55 -15 -71 -10 -74 -16 -76 -137 -1 -58 2 -111 5 -117 4 -5 34 -18 67 -27 33 -9 62 -20 65 -25 5 -9 -21 -123 -42 -182 -8 -20 -14 -45 -14 -55 0 -10 -6 -26 -13 -36 -12 -17 -16 -17 -76 -1 -39 10 -67 13 -73 7 -5 -5 -33 -49 -62 -98 -60 -99 -60 -98 5 -162 l43 -41 -45 -48 c-106 -116 -154 -163 -164 -163 -7 0 -33 20 -59 45 -27 25 -54 45 -61 45 -8 0 -26 -10 -42 -23 -15 -13 -63 -41 -105 -63 -80 -40 -87 -49 -69 -96 4 -13 11 -39 15 -59 l6 -36 -82 -22 c-46 -12 -99 -27 -118 -32 -19 -6 -48 -11 -65 -12 -27 -2 -31 2 -40 38 -6 22 -16 56 -23 76 l-13 36 -110 1 c-125 1 -114 9 -145 -101 l-16 -59 -34 7 c-52 9 -248 66 -256 73 -4 4 2 40 13 80 12 40 19 79 16 85 -3 7 -43 36 -91 65 -98 60 -97 61 -169 -18 -26 -28 -52 -50 -57 -48 -13 4 -210 199 -210 207 0 4 27 34 60 66 33 33 60 67 60 76 0 9 -8 27 -19 40 -10 13 -35 57 -55 97 -20 39 -40 72 -44 72 -4 0 -45 -9 -91 -20 -47 -11 -88 -17 -93 -12 -5 5 -22 60 -38 123 -16 63 -32 123 -35 135 -7 24 12 34 102 54 79 18 81 22 84 127 2 52 -1 97 -7 103 -5 5 -48 22 -94 38 -60 19 -84 32 -83 42 8 54 70 280 77 280 2 0 16 -4 32 -10 16 -5 57 -16 92 -24 l63 -14 23 36 c12 20 37 61 55 91 l32 54 -65 66 c-36 37 -66 71 -66 77 0 11 188 214 198 214 4 0 35 -27 70 -60 34 -33 70 -60 80 -60 10 0 34 12 53 26 19 14 60 39 92 56 33 18 57 37 57 47 0 9 -9 50 -19 91 -10 41 -15 79 -11 83 7 8 241 74 270 76 11 1 22 -25 40 -87z"/>
 <path d="M4025 4923 c-228 -21 -416 -105 -566 -253 -156 -155 -234 -318 -260 -546 -22 -190 31 -405 142 -569 122 -180 322 -315 541 -365 176 -40 396 -16 554 61 256 124 434 344 488 606 35 166 29 289 -21 447 -98 314 -355 542 -673 599 -111 20 -156 24 -205 20z m465 -433 l45 -38 -22 -24 c-11 -13 -182 -237 -378 -498 -196 -261 -363 -475 -370 -475 -21 0 -125 78 -125 93 0 7 93 137 208 289 114 151 214 285 222 296 18 27 252 337 292 390 29 36 30 37 56 21 15 -8 47 -33 72 -54z"/>
 <path d="M5820 5429 c0 -5 14 -36 32 -67 86 -153 163 -292 190 -342 17 -30 35 -59 39 -64 20 -22 4 -37 -93 -91 -157 -85 -146 -66 -104 -187 20 -57 44 -145 55 -196 10 -52 24 -99 30 -105 8 -8 57 -12 139 -13 l127 0 8 -219 c5 -153 11 -223 20 -232 6 -6 64 -33 127 -58 63 -26 134 -55 157 -66 69 -31 76 -28 152 74 38 50 144 191 236 312 294 387 455 602 455 608 0 10 -65 41 -176 86 -55 22 -146 60 -204 84 -58 24 -179 74 -270 111 -91 37 -190 78 -220 91 -30 13 -111 47 -180 75 -69 28 -138 58 -155 65 -57 25 -354 145 -360 145 -3 0 -5 -5 -5 -11z"/>
 <path d="M6500 3679 c-8 -4 -71 -31 -140 -59 -451 -185 -520 -215 -520 -228 0 -5 56 -40 125 -78 68 -38 125 -73 125 -77 0 -5 -8 -21 -18 -35 -31 -45 -152 -268 -152 -281 0 -17 25 -13 48 7 11 9 71 85 133 167 62 83 174 231 249 330 74 99 146 195 159 213 24 34 19 57 -9 41z"/>
 <path d="M1500 3665 c0 -13 34 -60 270 -370 63 -82 153 -202 202 -266 48 -64 95 -120 105 -123 31 -12 36 11 10 55 -98 173 -147 263 -147 269 0 9 206 130 220 130 4 0 13 6 19 14 8 10 8 16 -1 23 -12 9 -149 68 -348 150 -47 19 -98 41 -115 48 -40 18 -131 54 -177 71 -32 11 -38 11 -38 -1z"/>
 <path d="M1385 3013 c-7 -298 1 -941 12 -971 4 -8 38 -29 77 -47 87 -40 347 -162 521 -245 72 -34 191 -90 265 -125 74 -35 203 -95 285 -135 83 -40 170 -81 195 -92 25 -11 60 -26 78 -35 73 -35 80 -45 -323 468 -335 427 -686 903 -913 1239 -129 191 -172 250 -181 250 -5 0 -12 -138 -16 -307z"/>
 <path d="M6538 3228 c-73 -110 -201 -298 -237 -349 -106 -149 -155 -219 -230 -319 -86 -117 -276 -372 -298 -400 -7 -8 -55 -71 -108 -140 -53 -69 -116 -149 -138 -179 -23 -30 -54 -68 -68 -85 -14 -17 -48 -60 -76 -96 -27 -36 -87 -112 -132 -170 -45 -58 -87 -113 -92 -123 -9 -17 -8 -18 13 -12 30 10 99 41 277 126 79 38 145 69 146 69 2 0 78 36 170 80 92 44 169 80 171 80 2 0 47 22 101 48 54 26 170 81 258 122 88 41 196 93 240 115 l80 40 6 100 c9 137 11 913 2 1063 -3 67 -10 122 -14 122 -5 0 -36 -42 -71 -92z"/>
 <path d="M2434 2824 c-18 -8 -42 -25 -54 -36 -23 -21 -23 -24 -16 -177 6 -151 7 -157 34 -191 16 -19 86 -111 157 -204 70 -93 136 -179 146 -190 11 -11 19 -24 19 -30 0 -6 4 -6 11 1 6 6 13 53 16 105 6 93 5 95 -21 116 -15 11 -32 22 -39 25 -12 4 -2 30 41 102 62 106 82 144 82 157 0 9 -26 37 -57 63 -87 71 -131 113 -207 198 -38 42 -72 77 -75 77 -3 0 -20 -7 -37 -16z"/>
 <path d="M3386 2271 c-4 -6 -4 -260 0 -566 l7 -556 100 -132 c126 -168 199 -257 209 -257 4 0 8 322 8 715 l0 714 -42 11 c-60 15 -240 68 -260 75 -9 4 -19 2 -22 -4z"/>
 <path d="M4525 2241 c-49 -15 -117 -35 -150 -43 l-60 -14 -3 -717 c-1 -411 2 -717 7 -717 5 0 42 43 82 96 41 53 103 133 137 178 35 44 70 92 77 106 16 32 26 1131 10 1136 -5 2 -50 -9 -100 -25z"/>
 <path d="M3267 2083 c-60 -135 -197 -483 -197 -500 0 -18 201 -285 220 -291 7 -3 10 135 10 422 0 234 -2 426 -4 426 -2 0 -15 -26 -29 -57z"/>
 <path d="M4716 2083 c-8 -49 -6 -739 3 -776 l6 -28 27 28 c58 62 197 249 198 265 0 17 -138 373 -181 465 -10 24 -19 47 -19 52 0 5 -6 14 -14 20 -11 9 -15 4 -20 -26z"/>
 <path d="M3882 2048 c-9 -9 -12 -183 -12 -761 l0 -749 64 -97 c35 -53 70 -102 78 -109 18 -15 25 -8 102 110 l56 86 -2 764 -3 763 -135 3 c-97 2 -139 -1 -148 -10z"/>
 </g>

</svg>