<!DOCTYPE svg PUBLIC "-//W3C//DTD SVG 20010904//EN" "http://www.w3.org/TR/2001/REC-SVG-20010904/DTD/svg10.dtd">
<svg version="1.0" xmlns="http://www.w3.org/2000/svg" width="800px" height="800px" viewBox="0 0 8000 8000" preserveAspectRatio="xMidYMid meet">
<g id="layer101" fill="#000000" stroke="none">
 <path d="M3920 7764 c-6 -14 -10 -30 -10 -35 0 -6 -20 -60 -45 -121 -51 -123 -101 -214 -182 -330 -31 -45 -53 -87 -53 -103 0 -39 -22 -75 -82 -130 -85 -79 -98 -100 -98 -161 0 -57 9 -69 108 -155 23 -19 42 -44 42 -53 0 -10 -21 -38 -46 -63 -32 -32 -43 -50 -38 -62 21 -48 11 -64 -78 -131 -190 -141 -190 -144 -58 -350 51 -80 101 -156 111 -169 11 -14 19 -40 19 -62 0 -44 -1 -45 -144 -119 -99 -51 -105 -60 -162 -234 l-39 -118 -146 -104 c-388 -277 -710 -573 -901 -829 -33 -43 -66 -91 -75 -105 -23 -39 -49 -53 -74 -39 -22 11 -22 24 -3 127 4 21 0 54 -12 90 -15 44 -19 85 -18 182 2 214 44 321 175 444 81 76 262 205 327 233 l37 16 -34 11 c-63 18 -264 -50 -421 -143 -98 -59 -251 -183 -340 -277 -83 -88 -201 -240 -249 -322 -91 -154 -141 -215 -234 -286 l-49 -36 34 0 c122 0 182 -79 180 -236 -2 -168 -106 -358 -234 -425 -72 -37 -128 -21 -196 56 l-40 45 -6 -162 c-28 -746 -14 -1011 73 -1413 148 -677 663 -1454 1116 -1682 55 -28 154 -63 178 -63 6 0 -21 23 -59 52 -169 127 -304 312 -304 417 0 25 11 54 35 91 19 30 35 68 35 83 0 16 -14 61 -32 100 -21 47 -33 93 -36 134 -4 55 -1 68 27 116 17 30 31 65 31 77 0 20 -30 80 -92 185 -114 191 -221 464 -263 670 -102 495 -82 916 62 1305 70 188 223 463 274 491 32 17 44 10 134 -75 l89 -84 -27 -34 c-159 -201 -259 -423 -302 -673 -66 -383 -34 -741 101 -1136 111 -328 257 -519 479 -630 84 -41 114 -51 173 -56 74 -6 89 2 50 26 -82 51 -216 198 -287 315 -202 330 -274 609 -275 1066 -1 249 7 308 55 402 38 74 30 72 382 58 172 -7 335 -10 362 -6 45 7 57 15 123 82 65 66 79 76 124 84 30 6 56 6 60 2 9 -9 -149 -229 -188 -264 -50 -44 -80 -48 -369 -48 -163 0 -284 -4 -295 -10 -20 -11 -43 -73 -61 -167 -16 -84 -6 -400 15 -518 45 -244 86 -369 148 -462 32 -48 63 -56 92 -24 10 11 41 31 69 44 205 99 319 156 432 219 l130 73 3 393 2 393 78 117 c118 177 122 188 126 399 4 193 -3 423 -13 423 -3 0 -12 -13 -19 -30 -8 -16 -52 -60 -98 -97 -56 -44 -86 -75 -90 -92 -38 -179 -175 -270 -362 -242 -221 34 -403 139 -532 306 -38 49 -40 55 -40 124 0 79 9 104 69 186 161 222 339 389 679 635 137 99 486 308 527 316 45 8 55 0 55 -47 0 -33 6 -46 30 -67 l30 -26 0 -784 0 -783 -32 -67 c-45 -94 -113 -194 -196 -285 -48 -52 -73 -90 -78 -112 -3 -18 -2 -168 3 -332 l8 -298 51 1 c28 1 63 8 79 16 41 22 136 108 253 230 l102 107 0 1564 c0 975 -4 1584 -10 1616 -8 43 -24 69 -95 158 -57 70 -85 113 -83 127 4 29 75 79 248 174 l151 83 132 -72 c174 -95 248 -141 260 -160 17 -27 0 -61 -83 -164 -48 -60 -82 -112 -84 -130 -3 -16 -7 -740 -10 -1607 l-6 -1576 39 -49 c63 -79 273 -277 316 -297 22 -11 61 -21 86 -24 l46 -4 6 113 c11 191 8 528 -5 552 -6 12 -35 48 -65 81 -68 74 -164 215 -203 301 l-30 66 0 777 0 778 29 22 c25 18 30 30 33 69 3 41 6 48 25 51 43 6 162 -59 430 -234 335 -219 584 -434 756 -650 108 -138 117 -157 117 -254 l0 -86 -69 -75 c-145 -157 -291 -237 -494 -269 -168 -28 -303 43 -351 183 -9 26 -16 54 -16 62 0 8 -21 31 -47 52 -84 68 -142 125 -148 144 -4 10 -11 19 -16 19 -7 0 -9 -110 -7 -307 l3 -308 31 -65 c17 -36 62 -108 100 -160 l69 -95 0 -394 0 -395 105 -59 c124 -69 304 -161 413 -211 43 -20 93 -47 111 -61 43 -33 60 -32 89 7 53 71 92 171 127 330 64 287 73 554 25 743 -25 98 -13 95 -340 95 -350 0 -328 -8 -462 166 -115 150 -117 160 -28 143 43 -8 58 -18 113 -75 35 -36 79 -72 97 -80 42 -17 116 -18 448 -2 251 12 258 11 285 -8 36 -27 68 -93 87 -182 31 -148 15 -551 -30 -767 -71 -341 -281 -712 -488 -860 -31 -22 -56 -44 -57 -49 0 -5 30 -6 68 -3 150 11 340 132 466 296 111 144 212 393 277 685 76 340 62 753 -36 1061 -38 117 -125 288 -200 387 -36 48 -65 91 -65 96 0 16 168 172 185 172 26 0 88 -71 139 -159 39 -66 63 -115 143 -289 44 -97 105 -322 125 -457 16 -113 21 -425 9 -545 -46 -448 -128 -698 -357 -1098 -30 -52 -54 -101 -54 -109 0 -9 14 -40 31 -70 28 -49 31 -60 27 -126 -3 -55 -11 -88 -36 -141 -17 -37 -32 -77 -32 -89 0 -11 16 -48 35 -83 43 -76 45 -125 10 -195 -54 -109 -162 -235 -264 -309 -33 -24 -61 -48 -61 -51 0 -10 57 5 128 34 180 74 429 301 633 577 353 479 545 1003 600 1640 11 135 7 616 -9 923 l-7 138 -19 -31 c-25 -44 -101 -90 -146 -90 -68 0 -165 81 -227 190 -53 94 -76 179 -71 273 5 114 33 171 95 199 27 12 59 18 79 16 19 -2 34 -2 34 2 0 3 -30 27 -67 55 -72 54 -115 106 -188 230 -121 202 -328 435 -500 563 -163 121 -448 238 -529 218 -32 -8 -33 -22 -3 -30 12 -3 67 -35 122 -72 223 -149 324 -262 361 -404 25 -95 25 -305 0 -387 -18 -58 -18 -66 -4 -115 16 -57 10 -94 -17 -104 -21 -9 -48 18 -103 99 -89 133 -316 378 -487 527 -79 68 -161 136 -205 170 -25 19 -47 37 -50 40 -10 11 -155 117 -245 179 -49 34 -93 68 -96 74 -4 7 -26 69 -49 139 -23 70 -49 137 -58 148 -9 11 -66 46 -127 78 -152 79 -152 73 -5 297 61 94 113 180 116 192 15 56 -19 100 -146 188 -44 31 -84 64 -89 72 -5 9 -4 30 2 51 11 33 10 36 -32 71 -51 44 -58 83 -20 113 86 68 108 91 119 123 21 64 7 98 -86 195 -56 59 -84 97 -84 112 0 29 -27 80 -98 184 -68 101 -124 214 -170 345 -21 57 -41 104 -47 104 -6 0 -11 -115 -13 -322 l-2 -321 105 -103 c58 -56 105 -107 104 -113 -2 -21 -241 -236 -254 -228 -27 16 -235 216 -235 226 0 6 45 56 100 111 l100 100 0 327 c0 321 -5 369 -30 302z"/>
 <path d="M3856 6254 l-129 -66 92 -92 91 -91 0 -1765 c0 -1725 -1 -1766 -19 -1797 -17 -27 -56 -52 -66 -41 -2 2 -5 57 -6 122 -3 133 -8 141 -63 107 -50 -31 -62 -57 -69 -145 -5 -53 -13 -86 -24 -98 -38 -42 -157 -84 -293 -103 -91 -13 -93 -15 -60 -104 36 -100 37 -101 145 -101 109 0 214 20 291 55 30 14 59 25 64 25 5 0 45 34 89 75 44 41 85 75 91 75 6 0 39 -26 73 -58 71 -66 110 -92 187 -123 85 -34 166 -48 272 -49 92 0 98 1 116 25 24 30 55 125 50 150 -2 15 -24 22 -109 36 -125 21 -207 50 -247 87 -25 24 -29 36 -35 106 -8 87 -22 117 -70 146 -55 34 -57 32 -57 -99 0 -66 -4 -122 -9 -126 -18 -10 -60 18 -76 50 -13 29 -15 225 -15 1790 l0 1757 92 89 c59 56 89 92 83 98 -14 13 -216 118 -240 124 -13 4 -67 -18 -149 -59z"/>
 <path d="M3935 2121 c-16 -10 -65 -50 -108 -88 -49 -44 -94 -75 -120 -83 -23 -8 -115 -16 -205 -19 l-164 -6 -24 -30 c-44 -55 -134 -211 -134 -233 0 -29 32 -47 110 -61 36 -7 83 -16 105 -21 22 -5 93 -19 159 -31 l118 -21 26 25 c13 14 82 96 151 183 69 87 131 159 138 161 7 3 74 -74 150 -170 76 -96 148 -180 159 -187 18 -10 49 -7 175 18 85 17 184 36 222 43 68 13 107 37 107 65 0 18 -135 240 -153 251 -7 4 -84 11 -172 14 -90 3 -179 12 -204 19 -27 9 -67 35 -100 66 -135 124 -176 142 -236 105z"/>
 <path d="M3928 1723 c-30 -38 -78 -99 -107 -137 -51 -69 -51 -70 -32 -90 94 -104 30 -168 -322 -318 -89 -38 -169 -76 -177 -84 -12 -12 14 -42 202 -226 202 -200 329 -340 442 -486 26 -35 51 -62 56 -60 4 2 58 66 121 143 66 82 213 239 353 378 204 204 237 240 225 252 -8 8 -69 37 -136 64 -179 74 -316 145 -362 189 -51 49 -55 86 -12 134 l29 33 -21 30 c-42 61 -191 245 -198 245 -4 0 -31 -30 -61 -67z"/>
 </g>

</svg>